JonovaCondensed-Italic.ufo
<glyph name="quotedbl" format="2">
  <advance width="552"/>
  <unicode hex="0022"/>
  <outline>
    <contour>
      <point x="242" y="901" type="line"/>
      <point x="268" y="1434" type="line"/>
      <point x="295" y="1464" type="line"/>
      <point x="401" y="1464" type="line"/>
      <point x="419" y="1434" type="line"/>
      <point x="304" y="901" type="line"/>
    </contour>
    <contour>
      <point x="485" y="901" type="line"/>
      <point x="511" y="1434" type="line"/>
      <point x="538" y="1464" type="line"/>
      <point x="644" y="1464" type="line"/>
      <point x="662" y="1434" type="line"/>
      <point x="547" y="901" type="line"/>
    </contour>
  </outline>
</glyph>
<glyph name="parenright" format="2">
  <advance width="552"/>
  <unicode hex="0029"/>
  <outline>
    <contour>
      <point x="284" y="1570" type="line"/>
      <point x="414" y="1442"/>
      <point x="549" y="1084"/>
      <point x="549" y="846" type="qcurve"/>
      <point x="549" y="651"/>
      <point x="476" y="284"/>
      <point x="341" y="-36"/>
      <point x="146" y="-296"/>
      <point x="26" y="-384" type="qcurve"/>
      <point x="26" y="-278" type="line"/>
      <point x="118" y="-195"/>
      <point x="269" y="47"/>
      <point x="375" y="336"/>
      <point x="433" y="660"/>
      <point x="433" y="826" type="qcurve"/>
      <point x="433" y="1018"/>
      <point x="344" y="1349"/>
      <point x="255" y="1464" type="qcurve"/>
    </contour>
  </outline>
</glyph>
<glyph name="asterisk" format="2">
  <advance width="768"/>
  <unicode hex="002A"/>
  <outline>
    <contour>
      <point x="480" y="1584" type="line"/>
      <point x="603" y="1584" type="line"/>
      <point x="557" y="1263" type="line"/>
      <point x="563" y="1258" type="line"/>
      <point x="748" y="1472" type="line"/>
      <point x="809" y="1330" type="line"/>
      <point x="578" y="1224" type="line"/>
      <point x="578" y="1214" type="line"/>
      <point x="809" y="1106" type="line"/>
      <point x="748" y="964" type="line"/>
      <point x="563" y="1180" type="line"/>
      <point x="557" y="1175" type="line"/>
      <point x="603" y="854" type="line"/>
      <point x="480" y="854" type="line"/>
      <point x="527" y="1175" type="line"/>
      <point x="521" y="1180" type="line"/>
      <point x="335" y="966" type="line"/>
      <point x="274" y="1108" type="line"/>
      <point x="506" y="1214" type="line"/>
      <point x="506" y="1223" type="line"/>
      <point x="274" y="1330" type="line"/>
      <point x="335" y="1472" type="line"/>
      <point x="521" y="1258" type="line"/>
      <point x="527" y="1263" type="line"/>
    </contour>
  </outline>
</glyph>
<glyph name="plus" format="2">
  <advance width="864"/>
  <unicode hex="002B"/>
  <outline>
    <contour>
      <point x="123" y="426" type="line"/>
      <point x="139" y="548" type="line"/>
      <point x="458" y="548" type="line"/>
      <point x="515" y="974" type="line"/>
      <point x="606" y="974" type="line"/>
      <point x="550" y="548" type="line"/>
      <point x="869" y="548" type="line"/>
      <point x="854" y="426" type="line"/>
      <point x="534" y="426" type="line"/>
      <point x="478" y="0" type="line"/>
      <point x="386" y="0" type="line"/>
      <point x="443" y="426" type="line"/>
    </contour>
  </outline>
</glyph>
<glyph name="comma" format="2">
  <advance width="432"/>
  <unicode hex="002C"/>
  <outline>
    <contour>
      <point x="157" y="79" type="line"/>
      <point x="260" y="216" type="line"/>
      <point x="275" y="216" type="line"/>
      <point x="293" y="187"/>
      <point x="319" y="72"/>
      <point x="319" y="6" type="qcurve"/>
      <point x="319" y="-64"/>
      <point x="282" y="-184"/>
      <point x="220" y="-284"/>
      <point x="138" y="-367"/>
      <point x="93" y="-400" type="qcurve"/>
      <point x="38" y="-327" type="line"/>
      <point x="62" y="-303"/>
      <point x="113" y="-245"/>
      <point x="155" y="-176"/>
      <point x="182" y="-97"/>
      <point x="182" y="-52" type="qcurve"/>
      <point x="182" y="-20"/>
      <point x="167" y="41"/>
      <point x="157" y="59" type="qcurve"/>
    </contour>
  </outline>
</glyph>
<glyph name="hyphen" format="2">
  <advance width="552"/>
  <unicode hex="002D"/>
  <outline>
    <contour>
      <point x="198" y="548" type="line"/>
      <point x="627" y="548" type="line"/>
      <point x="611" y="426" type="line"/>
      <point x="182" y="426" type="line"/>
    </contour>
  </outline>
</glyph>
<glyph name="zero" format="2">
  <advance width="840"/>
  <unicode hex="0030"/>
  <outline>
    <contour>
      <point x="614" y="1464" type="qcurve"/>
      <point x="678" y="1464"/>
      <point x="783" y="1403"/>
      <point x="857" y="1280"/>
      <point x="897" y="1095"/>
      <point x="897" y="971" type="qcurve"/>
      <point x="897" y="839"/>
      <point x="863" y="588"/>
      <point x="801" y="366"/>
      <point x="714" y="180"/>
      <point x="607" y="45"/>
      <point x="483" y="-30"/>
      <point x="416" y="-30" type="qcurve"/>
      <point x="350" y="-30"/>
      <point x="246" y="31"/>
      <point x="172" y="154"/>
      <point x="132" y="339"/>
      <point x="132" y="462" type="qcurve"/>
      <point x="132" y="593"/>
      <point x="166" y="844"/>
      <point x="227" y="1067"/>
      <point x="315" y="1254"/>
      <point x="422" y="1389"/>
      <point x="546" y="1464"/>
    </contour>
    <contour>
      <point x="600" y="1362" type="qcurve"/>
      <point x="551" y="1362"/>
      <point x="462" y="1282"/>
      <point x="387" y="1146"/>
      <point x="326" y="964"/>
      <point x="284" y="759"/>
      <point x="261" y="542"/>
      <point x="261" y="440" type="qcurve"/>
      <point x="261" y="254"/>
      <point x="347" y="72"/>
      <point x="429" y="72" type="qcurve"/>
      <point x="478" y="72"/>
      <point x="566" y="152"/>
      <point x="641" y="288"/>
      <point x="702" y="470"/>
      <point x="745" y="675"/>
      <point x="768" y="891"/>
      <point x="768" y="993" type="qcurve"/>
      <point x="768" y="1178"/>
      <point x="681" y="1362"/>
    </contour>
  </outline>
</glyph>
<glyph name="one" format="2">
  <advance width="840"/>
  <unicode hex="0031"/>
  <outline>
    <contour>
      <point x="710" y="1464" type="line"/>
      <point x="516" y="0" type="line"/>
      <point x="395" y="0" type="line"/>
      <point x="563" y="1265" type="line"/>
      <point x="555" y="1265" type="line"/>
      <point x="350" y="1206" type="line"/>
      <point x="350" y="1309" type="line"/>
      <point x="687" y="1464" type="line"/>
    </contour>
  </outline>
</glyph>
<glyph name="two" format="2">
  <advance width="840"/>
  <unicode hex="0032"/>
  <outline>
    <contour>
      <point x="338" y="1309" type="line"/>
      <point x="362" y="1337"/>
      <point x="427" y="1393"/>
      <point x="503" y="1437"/>
      <point x="588" y="1464"/>
      <point x="632" y="1464" type="qcurve"/>
      <point x="685" y="1464"/>
      <point x="775" y="1428"/>
      <point x="841" y="1355"/>
      <point x="878" y="1245"/>
      <point x="878" y="1171" type="qcurve"/>
      <point x="878" y="1090"/>
      <point x="841" y="940"/>
      <point x="770" y="791"/>
      <point x="668" y="634"/>
      <point x="540" y="458"/>
      <point x="386" y="254"/>
      <point x="299" y="132" type="qcurve"/>
      <point x="298" y="122" type="line"/>
      <point x="756" y="142" type="line"/>
      <point x="737" y="0" type="line"/>
      <point x="115" y="0" type="line"/>
      <point x="117" y="20" type="line"/>
      <point x="232" y="190"/>
      <point x="416" y="451"/>
      <point x="558" y="655"/>
      <point x="660" y="815"/>
      <point x="726" y="955"/>
      <point x="757" y="1087"/>
      <point x="757" y="1161" type="qcurve"/>
      <point x="757" y="1206"/>
      <point x="738" y="1280"/>
      <point x="703" y="1333"/>
      <point x="651" y="1362"/>
      <point x="619" y="1362" type="qcurve"/>
      <point x="565" y="1362"/>
      <point x="467" y="1279"/>
      <point x="414" y="1207" type="qcurve"/>
    </contour>
  </outline>
</glyph>
<glyph name="three" format="2">
  <advance width="840"/>
  <unicode hex="0033"/>
  <outline>
    <contour>
      <point x="315" y="1309" type="line"/>
      <point x="332" y="1330"/>
      <point x="389" y="1384"/>
      <point x="462" y="1431"/>
      <point x="550" y="1464"/>
      <point x="599" y="1464" type="qcurve"/>
      <point x="650" y="1464"/>
      <point x="733" y="1423"/>
      <point x="791" y="1352"/>
      <point x="822" y="1255"/>
      <point x="822" y="1199" type="qcurve"/>
      <point x="822" y="1152"/>
      <point x="801" y="1065"/>
      <point x="767" y="990"/>
      <point x="721" y="927"/>
      <point x="673" y="880"/>
      <point x="625" y="850"/>
      <point x="605" y="845" type="qcurve"/>
      <point x="604" y="835" type="line"/>
      <point x="619" y="830"/>
      <point x="660" y="808"/>
      <point x="704" y="772"/>
      <point x="747" y="720"/>
      <point x="780" y="648"/>
      <point x="801" y="556"/>
      <point x="801" y="499" type="qcurve"/>
      <point x="801" y="390"/>
      <point x="740" y="198"/>
      <point x="630" y="54"/>
      <point x="475" y="-30"/>
      <point x="380" y="-30" type="qcurve"/>
      <point x="329" y="-30"/>
      <point x="246" y="-5"/>
      <point x="181" y="38"/>
      <point x="132" y="94"/>
      <point x="114" y="125" type="qcurve"/>
      <point x="191" y="227" type="line"/>
      <point x="203" y="195"/>
      <point x="242" y="139"/>
      <point x="296" y="97"/>
      <point x="359" y="72"/>
      <point x="394" y="72" type="qcurve"/>
      <point x="449" y="72"/>
      <point x="549" y="142"/>
      <point x="626" y="259"/>
      <point x="672" y="411"/>
      <point x="672" y="493" type="qcurve"/>
      <point x="672" y="554"/>
      <point x="644" y="659"/>
      <point x="589" y="734"/>
      <point x="506" y="777"/>
      <point x="452" y="777" type="qcurve"/>
      <point x="398" y="777" type="line"/>
      <point x="411" y="879" type="line"/>
      <point x="473" y="879" type="line"/>
      <point x="511" y="879"/>
      <point x="591" y="927"/>
      <point x="658" y="1011"/>
      <point x="701" y="1126"/>
      <point x="701" y="1194" type="qcurve"/>
      <point x="701" y="1230"/>
      <point x="686" y="1291"/>
      <point x="656" y="1336"/>
      <point x="613" y="1362"/>
      <point x="584" y="1362" type="qcurve"/>
      <point x="553" y="1362"/>
      <point x="498" y="1334"/>
      <point x="450" y="1290"/>
      <point x="410" y="1235"/>
      <point x="392" y="1207" type="qcurve"/>
    </contour>
  </outline>
</glyph>
<glyph name="four" format="2">
  <advance width="840"/>
  <unicode hex="0034"/>
  <outline>
    <contour>
      <point x="701" y="1434" type="line"/>
      <point x="723" y="1434" type="line"/>
      <point x="819" y="1410" type="line"/>
      <point x="268" y="481" type="line"/>
      <point x="577" y="496" type="line"/>
      <point x="599" y="667" type="line"/>
      <point x="704" y="707" type="line"/>
      <point x="726" y="707" type="line"/>
      <point x="699" y="502" type="line"/>
      <point x="824" y="508" type="line"/>
      <point x="804" y="365" type="line"/>
      <point x="681" y="365" type="line"/>
      <point x="633" y="0" type="line"/>
      <point x="512" y="0" type="line"/>
      <point x="560" y="365" type="line"/>
      <point x="111" y="365" type="line"/>
      <point x="113" y="385" type="line"/>
    </contour>
  </outline>
</glyph>
<glyph name="five" format="2">
  <advance width="840"/>
  <unicode hex="0035"/>
  <outline>
    <contour>
      <point x="239" y="777" type="line"/>
      <point x="326" y="1434" type="line"/>
      <point x="862" y="1434" type="line"/>
      <point x="845" y="1309" type="line"/>
      <point x="434" y="1332" type="line"/>
      <point x="376" y="893" type="line"/>
      <point x="383" y="893" type="line"/>
      <point x="410" y="910"/>
      <point x="487" y="931"/>
      <point x="525" y="931" type="qcurve"/>
      <point x="587" y="931"/>
      <point x="689" y="875"/>
      <point x="762" y="774"/>
      <point x="802" y="633"/>
      <point x="802" y="548" type="qcurve"/>
      <point x="802" y="435"/>
      <point x="740" y="227"/>
      <point x="626" y="66"/>
      <point x="467" y="-30"/>
      <point x="368" y="-30" type="qcurve"/>
      <point x="320" y="-30"/>
      <point x="238" y="-2"/>
      <point x="172" y="42"/>
      <point x="123" y="97"/>
      <point x="108" y="125" type="qcurve"/>
      <point x="185" y="227" type="line"/>
      <point x="194" y="200"/>
      <point x="233" y="145"/>
      <point x="284" y="100"/>
      <point x="347" y="72"/>
      <point x="380" y="72" type="qcurve"/>
      <point x="438" y="72"/>
      <point x="544" y="147"/>
      <point x="625" y="275"/>
      <point x="673" y="444"/>
      <point x="673" y="538" type="qcurve"/>
      <point x="673" y="611"/>
      <point x="642" y="720"/>
      <point x="593" y="793"/>
      <point x="533" y="829"/>
      <point x="504" y="829" type="qcurve"/>
      <point x="458" y="829"/>
      <point x="392" y="803"/>
      <point x="361" y="777" type="qcurve"/>
    </contour>
  </outline>
</glyph>
<glyph name="six" format="2">
  <advance width="840"/>
  <unicode hex="0036"/>
  <outline>
    <contour>
      <point x="803" y="1362" type="line"/>
      <point x="701" y="1362"/>
      <point x="531" y="1261"/>
      <point x="400" y="1077"/>
      <point x="311" y="819"/>
      <point x="290" y="661" type="qcurve"/>
      <point x="297" y="661" type="line"/>
      <point x="323" y="709"/>
      <point x="386" y="780"/>
      <point x="452" y="827"/>
      <point x="519" y="849"/>
      <point x="551" y="849" type="qcurve"/>
      <point x="614" y="849"/>
      <point x="713" y="799"/>
      <point x="782" y="709"/>
      <point x="819" y="582"/>
      <point x="819" y="504" type="qcurve"/>
      <point x="819" y="387"/>
      <point x="753" y="191"/>
      <point x="644" y="49"/>
      <point x="506" y="-30"/>
      <point x="434" y="-30" type="qcurve"/>
      <point x="378" y="-30"/>
      <point x="275" y="28"/>
      <point x="196" y="144"/>
      <point x="149" y="319"/>
      <point x="149" y="437" type="qcurve"/>
      <point x="149" y="556"/>
      <point x="184" y="800"/>
      <point x="255" y="1028"/>
      <point x="364" y="1229"/>
      <point x="512" y="1378"/>
      <point x="701" y="1464"/>
      <point x="816" y="1464" type="qcurve"/>
    </contour>
    <contour>
      <point x="537" y="747" type="qcurve"/>
      <point x="494" y="747"/>
      <point x="421" y="712"/>
      <point x="364" y="651"/>
      <point x="321" y="570"/>
      <point x="293" y="478"/>
      <point x="278" y="381"/>
      <point x="278" y="335" type="qcurve"/>
      <point x="278" y="276"/>
      <point x="299" y="179"/>
      <point x="342" y="110"/>
      <point x="405" y="72"/>
      <point x="448" y="72" type="qcurve"/>
      <point x="504" y="72"/>
      <point x="593" y="145"/>
      <point x="656" y="267"/>
      <point x="690" y="424"/>
      <point x="690" y="507" type="qcurve"/>
      <point x="690" y="560"/>
      <point x="671" y="648"/>
      <point x="634" y="712"/>
      <point x="576" y="747"/>
    </contour>
  </outline>
</glyph>
<glyph name="eight" format="2">
  <advance width="840"/>
  <unicode hex="0038"/>
  <outline>
    <contour>
      <point x="613" y="1464" type="qcurve"/>
      <point x="665" y="1464"/>
      <point x="747" y="1417"/>
      <point x="805" y="1339"/>
      <point x="835" y="1238"/>
      <point x="835" y="1183" type="qcurve"/>
      <point x="835" y="1073"/>
      <point x="749" y="892"/>
      <point x="676" y="834" type="qcurve"/>
      <point x="674" y="824" type="line"/>
      <point x="714" y="796"/>
      <point x="770" y="728"/>
      <point x="803" y="650"/>
      <point x="818" y="561"/>
      <point x="818" y="513" type="qcurve"/>
      <point x="818" y="447"/>
      <point x="794" y="316"/>
      <point x="746" y="195"/>
      <point x="677" y="91"/>
      <point x="587" y="14"/>
      <point x="478" y="-30"/>
      <point x="415" y="-30" type="qcurve"/>
      <point x="344" y="-30"/>
      <point x="237" y="30"/>
      <point x="167" y="131"/>
      <point x="131" y="262"/>
      <point x="131" y="333" type="qcurve"/>
      <point x="131" y="488"/>
      <point x="256" y="743"/>
      <point x="380" y="824" type="qcurve"/>
      <point x="382" y="834" type="line"/>
      <point x="339" y="874"/>
      <point x="300" y="985"/>
      <point x="300" y="1054" type="qcurve"/>
      <point x="300" y="1129"/>
      <point x="347" y="1275"/>
      <point x="429" y="1392"/>
      <point x="544" y="1464"/>
    </contour>
    <contour>
      <point x="599" y="1362" type="qcurve"/>
      <point x="561" y="1362"/>
      <point x="496" y="1307"/>
      <point x="449" y="1220"/>
      <point x="422" y="1110"/>
      <point x="422" y="1055" type="qcurve"/>
      <point x="422" y="1016"/>
      <point x="436" y="948"/>
      <point x="464" y="898"/>
      <point x="506" y="869"/>
      <point x="534" y="869" type="qcurve"/>
      <point x="572" y="869"/>
      <point x="638" y="923"/>
      <point x="686" y="1009"/>
      <point x="713" y="1118"/>
      <point x="713" y="1173" type="qcurve"/>
      <point x="713" y="1212"/>
      <point x="698" y="1281"/>
      <point x="669" y="1332"/>
      <point x="626" y="1362"/>
    </contour>
    <contour>
      <point x="521" y="767" type="qcurve"/>
      <point x="467" y="767"/>
      <point x="372" y="693"/>
      <point x="302" y="574"/>
      <point x="260" y="422"/>
      <point x="260" y="344" type="qcurve"/>
      <point x="260" y="287"/>
      <point x="283" y="188"/>
      <point x="326" y="114"/>
      <point x="389" y="72"/>
      <point x="428" y="72" type="qcurve"/>
      <point x="482" y="72"/>
      <point x="577" y="147"/>
      <point x="648" y="268"/>
      <point x="689" y="421"/>
      <point x="689" y="499" type="qcurve"/>
      <point x="689" y="556"/>
      <point x="667" y="654"/>
      <point x="623" y="726"/>
      <point x="561" y="767"/>
    </contour>
  </outline>
</glyph>
<glyph name="nine" format="2">
  <advance width="840"/>
  <unicode hex="0039"/>
  <outline>
    <contour>
      <point x="158" y="72" type="line"/>
      <point x="269" y="72"/>
      <point x="461" y="170"/>
      <point x="613" y="353"/>
      <point x="718" y="612"/>
      <point x="743" y="773" type="qcurve"/>
      <point x="735" y="773" type="line"/>
      <point x="710" y="722"/>
      <point x="644" y="650"/>
      <point x="572" y="605"/>
      <point x="503" y="585"/>
      <point x="474" y="585" type="qcurve"/>
      <point x="411" y="585"/>
      <point x="311" y="634"/>
      <point x="242" y="724"/>
      <point x="205" y="851"/>
      <point x="205" y="928" type="qcurve"/>
      <point x="205" y="1046"/>
      <point x="267" y="1243"/>
      <point x="374" y="1385"/>
      <point x="517" y="1464"/>
      <point x="598" y="1464" type="qcurve"/>
      <point x="654" y="1464"/>
      <point x="757" y="1409"/>
      <point x="836" y="1295"/>
      <point x="883" y="1121"/>
      <point x="883" y="1002" type="qcurve"/>
      <point x="883" y="876"/>
      <point x="841" y="625"/>
      <point x="758" y="395"/>
      <point x="636" y="198"/>
      <point x="476" y="53"/>
      <point x="276" y="-30"/>
      <point x="144" y="-30" type="qcurve"/>
    </contour>
    <contour>
      <point x="488" y="687" type="qcurve"/>
      <point x="554" y="687"/>
      <point x="654" y="765"/>
      <point x="721" y="886"/>
      <point x="754" y="1034"/>
      <point x="754" y="1105" type="qcurve"/>
      <point x="754" y="1226"/>
      <point x="668" y="1362"/>
      <point x="584" y="1362" type="qcurve"/>
      <point x="533" y="1362"/>
      <point x="443" y="1289"/>
      <point x="374" y="1168"/>
      <point x="334" y="1011"/>
      <point x="334" y="927" type="qcurve"/>
      <point x="334" y="874"/>
      <point x="353" y="786"/>
      <point x="391" y="722"/>
      <point x="449" y="687"/>
    </contour>
  </outline>
</glyph>
<glyph name="colon" format="2">
  <advance width="432"/>
  <unicode hex="003A"/>
  <outline>
    <contour>
      <point x="158" y="93" type="qcurve"/>
      <point x="158" y="118"/>
      <point x="172" y="163"/>
      <point x="197" y="197"/>
      <point x="230" y="216"/>
      <point x="250" y="216" type="qcurve"/>
      <point x="269" y="216"/>
      <point x="302" y="197"/>
      <point x="327" y="163"/>
      <point x="342" y="118"/>
      <point x="342" y="93" type="qcurve"/>
      <point x="342" y="68"/>
      <point x="327" y="23"/>
      <point x="302" y="-10"/>
      <point x="269" y="-30"/>
      <point x="250" y="-30" type="qcurve"/>
      <point x="230" y="-30"/>
      <point x="197" y="-10"/>
      <point x="172" y="23"/>
      <point x="158" y="68"/>
    </contour>
    <contour>
      <point x="262" y="881" type="qcurve"/>
      <point x="262" y="906"/>
      <point x="276" y="951"/>
      <point x="302" y="984"/>
      <point x="335" y="1004"/>
      <point x="354" y="1004" type="qcurve"/>
      <point x="373" y="1004"/>
      <point x="407" y="984"/>
      <point x="431" y="951"/>
      <point x="446" y="906"/>
      <point x="446" y="881" type="qcurve"/>
      <point x="446" y="855"/>
      <point x="431" y="811"/>
      <point x="407" y="777"/>
      <point x="373" y="758"/>
      <point x="354" y="758" type="qcurve"/>
      <point x="335" y="758"/>
      <point x="302" y="777"/>
      <point x="276" y="811"/>
      <point x="262" y="855"/>
    </contour>
  </outline>
</glyph>
<glyph name="less" format="2">
  <advance width="864"/>
  <unicode hex="003C"/>
  <outline>
    <contour>
      <point x="314" y="478" type="line"/>
      <point x="755" y="98" type="line"/>
      <point x="721" y="-30" type="line"/>
      <point x="179" y="436" type="line"/>
      <point x="192" y="538" type="line"/>
      <point x="857" y="1004" type="line"/>
      <point x="857" y="876" type="line"/>
      <point x="316" y="498" type="line"/>
    </contour>
  </outline>
</glyph>
<glyph name="equal" format="2">
  <advance width="864"/>
  <unicode hex="003D"/>
  <outline>
    <contour>
      <point x="868" y="748" type="line"/>
      <point x="852" y="626" type="line"/>
      <point x="177" y="626" type="line"/>
      <point x="193" y="748" type="line"/>
    </contour>
    <contour>
      <point x="815" y="350" type="line"/>
      <point x="800" y="228" type="line"/>
      <point x="125" y="228" type="line"/>
      <point x="140" y="350" type="line"/>
    </contour>
  </outline>
</glyph>
<glyph name="A" format="2">
  <advance width="1008"/>
  <unicode hex="0041"/>
  <outline>
    <contour>
      <point x="794" y="-30" type="line"/>
      <point x="731" y="365" type="line"/>
      <point x="302" y="365" type="line"/>
      <point x="130" y="-30" type="line"/>
      <point x="44" y="0" type="line"/>
      <point x="681" y="1464" type="line"/>
      <point x="714" y="1464" type="line"/>
      <point x="948" y="0" type="line"/>
    </contour>
    <contour>
      <point x="611" y="1090" type="line"/>
      <point x="355" y="487" type="line"/>
      <point x="712" y="487" type="line"/>
      <point x="618" y="1090" type="line"/>
    </contour>
  </outline>
</glyph>
<glyph name="B" format="2">
  <advance width="936"/>
  <unicode hex="0042"/>
  <outline>
    <contour>
      <point x="326" y="1434" type="line"/>
      <point x="605" y="1434" type="line"/>
      <point x="685" y="1434"/>
      <point x="814" y="1401"/>
      <point x="905" y="1333"/>
      <point x="953" y="1227"/>
      <point x="953" y="1155" type="qcurve"/>
      <point x="953" y="1079"/>
      <point x="906" y="953"/>
      <point x="839" y="860"/>
      <point x="765" y="805"/>
      <point x="738" y="800" type="qcurve"/>
      <point x="737" y="790" type="line"/>
      <point x="764" y="781"/>
      <point x="832" y="739"/>
      <point x="893" y="667"/>
      <point x="934" y="560"/>
      <point x="934" y="486" type="qcurve"/>
      <point x="934" y="373"/>
      <point x="860" y="193"/>
      <point x="728" y="67"/>
      <point x="540" y="0"/>
      <point x="427" y="0" type="qcurve"/>
      <point x="137" y="0" type="line"/>
    </contour>
    <contour>
      <point x="446" y="1312" type="line"/>
      <point x="383" y="839" type="line"/>
      <point x="527" y="839" type="line"/>
      <point x="585" y="839"/>
      <point x="690" y="874"/>
      <point x="770" y="948"/>
      <point x="817" y="1062"/>
      <point x="817" y="1141" type="qcurve"/>
      <point x="817" y="1231"/>
      <point x="698" y="1312"/>
      <point x="591" y="1312" type="qcurve"/>
    </contour>
    <contour>
      <point x="366" y="717" type="line"/>
      <point x="289" y="122" type="line"/>
      <point x="440" y="122" type="line"/>
      <point x="614" y="122"/>
      <point x="790" y="313"/>
      <point x="790" y="489" type="qcurve"/>
      <point x="790" y="554"/>
      <point x="753" y="642"/>
      <point x="689" y="695"/>
      <point x="603" y="717"/>
      <point x="554" y="717" type="qcurve"/>
    </contour>
  </outline>
</glyph>
<glyph name="H" format="2">
  <advance width="1128"/>
  <unicode hex="0048"/>
  <outline>
    <contour>
      <point x="467" y="1464" type="line"/>
      <point x="383" y="839" type="line"/>
      <point x="965" y="839" type="line"/>
      <point x="1044" y="1434" type="line"/>
      <point x="1185" y="1464" type="line"/>
      <point x="992" y="0" type="line"/>
      <point x="855" y="0" type="line"/>
      <point x="950" y="717" type="line"/>
      <point x="368" y="717" type="line"/>
      <point x="273" y="0" type="line"/>
      <point x="137" y="0" type="line"/>
      <point x="326" y="1434" type="line"/>
    </contour>
  </outline>
</glyph>
<glyph name="J" format="2">
  <advance width="552"/>
  <unicode hex="004A"/>
  <outline>
    <contour>
      <point x="472" y="1433" type="line"/>
      <point x="613" y="1463" type="line"/>
      <point x="485" y="492" type="line"/>
      <point x="470" y="380"/>
      <point x="419" y="216"/>
      <point x="351" y="100"/>
      <point x="267" y="27"/>
      <point x="172" y="-15"/>
      <point x="68" y="-30"/>
      <point x="12" y="-30" type="qcurve"/>
      <point x="31" y="112" type="line"/>
      <point x="76" y="112"/>
      <point x="174" y="137"/>
      <point x="261" y="210"/>
      <point x="328" y="346"/>
      <point x="343" y="457" type="qcurve"/>
    </contour>
  </outline>
</glyph>
<glyph name="R" format="2">
  <advance width="936"/>
  <unicode hex="0052"/>
  <outline>
    <contour>
      <point x="326" y="1434" type="line"/>
      <point x="631" y="1434" type="line"/>
      <point x="800" y="1434"/>
      <point x="965" y="1267"/>
      <point x="965" y="1116" type="qcurve"/>
      <point x="965" y="1045"/>
      <point x="931" y="921"/>
      <point x="872" y="817"/>
      <point x="796" y="733"/>
      <point x="713" y="673"/>
      <point x="627" y="637"/>
      <point x="589" y="632" type="qcurve"/>
      <point x="588" y="625" type="line"/>
      <point x="897" y="0" type="line"/>
      <point x="736" y="-30" type="line"/>
      <point x="472" y="595" type="line"/>
      <point x="351" y="595" type="line"/>
      <point x="273" y="0" type="line"/>
      <point x="137" y="0" type="line"/>
    </contour>
    <contour>
      <point x="446" y="1312" type="line"/>
      <point x="368" y="717" type="line"/>
      <point x="517" y="717" type="line"/>
      <point x="576" y="717"/>
      <point x="686" y="774"/>
      <point x="770" y="875"/>
      <point x="821" y="1015"/>
      <point x="821" y="1099" type="qcurve"/>
      <point x="821" y="1153"/>
      <point x="794" y="1233"/>
      <point x="743" y="1286"/>
      <point x="672" y="1312"/>
      <point x="629" y="1312" type="qcurve"/>
    </contour>
  </outline>
</glyph>
<glyph name="W" format="2">
  <advance width="1416"/>
  <unicode hex="0057"/>
  <outline>
    <contour>
      <point x="1103" y="348" type="line"/>
      <point x="1110" y="348" type="line"/>
      <point x="1488" y="1464" type="line"/>
      <point x="1574" y="1434" type="line"/>
      <point x="1076" y="0" type="line"/>
      <point x="984" y="0" type="line"/>
      <point x="865" y="1131" type="line"/>
      <point x="857" y="1131" type="line"/>
      <point x="432" y="0" type="line"/>
      <point x="341" y="0" type="line"/>
      <point x="221" y="1434" type="line"/>
      <point x="375" y="1464" type="line"/>
      <point x="460" y="348" type="line"/>
      <point x="467" y="348" type="line"/>
      <point x="887" y="1464" type="line"/>
      <point x="978" y="1464" type="line"/>
    </contour>
  </outline>
</glyph>
<glyph name="X" format="2">
  <advance width="936"/>
  <unicode hex="0058"/>
  <outline>
    <contour>
      <point x="524" y="600" type="line"/>
      <point x="145" y="-30" type="line"/>
      <point x="54" y="0" type="line"/>
      <point x="485" y="717" type="line"/>
      <point x="243" y="1434" type="line"/>
      <point x="398" y="1464" type="line"/>
      <point x="583" y="892" type="line"/>
      <point x="590" y="892" type="line"/>
      <point x="934" y="1464" type="line"/>
      <point x="1025" y="1434" type="line"/>
      <point x="629" y="775" type="line"/>
      <point x="890" y="0" type="line"/>
      <point x="735" y="-30" type="line"/>
      <point x="531" y="600" type="line"/>
    </contour>
  </outline>
</glyph>
<glyph name="bracketleft" format="2">
  <advance width="552"/>
  <unicode hex="005B"/>
  <outline>
    <contour>
      <point x="399" y="1464" type="line"/>
      <point x="683" y="1464" type="line"/>
      <point x="670" y="1362" type="line"/>
      <point x="492" y="1362" type="line"/>
      <point x="288" y="-176" type="line"/>
      <point x="467" y="-176" type="line"/>
      <point x="453" y="-278" type="line"/>
      <point x="168" y="-278" type="line"/>
    </contour>
  </outline>
</glyph>
<glyph name="backslash" format="2">
  <advance width="432"/>
  <unicode hex="005C"/>
  <outline>
    <contour>
      <point x="260" y="1586" type="line"/>
      <point x="452" y="-134" type="line"/>
      <point x="361" y="-152" type="line"/>
      <point x="170" y="1569" type="line"/>
    </contour>
  </outline>
</glyph>
<glyph name="bracketright" format="2">
  <advance width="552"/>
  <unicode hex="005D"/>
  <outline>
    <contour>
      <point x="254" y="1464" type="line"/>
      <point x="540" y="1464" type="line"/>
      <point x="309" y="-278" type="line"/>
      <point x="24" y="-278" type="line"/>
      <point x="38" y="-176" type="line"/>
      <point x="216" y="-176" type="line"/>
      <point x="420" y="1362" type="line"/>
      <point x="241" y="1362" type="line"/>
    </contour>
  </outline>
</glyph>
<glyph name="grave" format="2">
  <advance width="576"/>
  <unicode hex="0060"/>
  <outline>
    <contour>
      <point x="513" y="1116" type="line"/>
      <point x="239" y="1404" type="line"/>
      <point x="239" y="1434" type="line"/>
      <point x="300" y="1521" type="line"/>
      <point x="323" y="1521" type="line"/>
      <point x="556" y="1176" type="line"/>
    </contour>
  </outline>
</glyph>
<glyph name="a" format="2">
  <advance width="840"/>
  <unicode hex="0061"/>
  <outline>
    <contour>
      <point x="227" y="849" type="line"/>
      <point x="299" y="925"/>
      <point x="459" y="1004"/>
      <point x="557" y="1004" type="qcurve"/>
      <point x="606" y="1004"/>
      <point x="699" y="969"/>
      <point x="770" y="894"/>
      <point x="812" y="775"/>
      <point x="812" y="690" type="qcurve"/>
      <point x="812" y="668"/>
      <point x="810" y="622"/>
      <point x="806" y="597" type="qcurve"/>
      <point x="750" y="174" type="line"/>
      <point x="748" y="154"/>
      <point x="748" y="139" type="qcurve"/>
      <point x="748" y="72"/>
      <point x="795" y="72" type="qcurve"/>
      <point x="782" y="-30" type="line"/>
      <point x="711" y="-30"/>
      <point x="636" y="49"/>
      <point x="632" y="142" type="qcurve"/>
      <point x="625" y="142" type="line"/>
      <point x="603" y="115"/>
      <point x="538" y="55"/>
      <point x="458" y="4"/>
      <point x="368" y="-30"/>
      <point x="322" y="-30" type="qcurve"/>
      <point x="279" y="-30"/>
      <point x="205" y="4"/>
      <point x="150" y="65"/>
      <point x="119" y="149"/>
      <point x="119" y="199" type="qcurve"/>
      <point x="119" y="303"/>
      <point x="204" y="451"/>
      <point x="355" y="545"/>
      <point x="562" y="589"/>
      <point x="683" y="589" type="qcurve"/>
      <point x="690" y="637" type="line"/>
      <point x="695" y="675"/>
      <point x="695" y="707" type="qcurve"/>
      <point x="695" y="765"/>
      <point x="667" y="840"/>
      <point x="623" y="884"/>
      <point x="569" y="902"/>
      <point x="543" y="902" type="qcurve"/>
      <point x="507" y="902"/>
      <point x="443" y="879"/>
      <point x="384" y="838"/>
      <point x="329" y="781"/>
      <point x="303" y="747" type="qcurve"/>
    </contour>
    <contour>
      <point x="673" y="507" type="line"/>
      <point x="632" y="507"/>
      <point x="536" y="500"/>
      <point x="441" y="479"/>
      <point x="353" y="440"/>
      <point x="284" y="375"/>
      <point x="243" y="282"/>
      <point x="243" y="217" type="qcurve"/>
      <point x="243" y="153"/>
      <point x="305" y="72"/>
      <point x="363" y="72" type="qcurve"/>
      <point x="401" y="72"/>
      <point x="478" y="104"/>
      <point x="549" y="157"/>
      <point x="614" y="226"/>
      <point x="641" y="263" type="qcurve"/>
    </contour>
  </outline>
</glyph>
<glyph name="b" format="2">
  <advance width="840"/>
  <unicode hex="0062"/>
  <outline>
    <contour>
      <point x="253" y="190" type="line"/>
      <point x="282" y="139"/>
      <point x="378" y="72"/>
      <point x="438" y="72" type="qcurve"/>
      <point x="483" y="72"/>
      <point x="584" y="141"/>
      <point x="671" y="273"/>
      <point x="728" y="467"/>
      <point x="728" y="592" type="qcurve"/>
      <point x="728" y="666"/>
      <point x="698" y="782"/>
      <point x="647" y="861"/>
      <point x="579" y="902"/>
      <point x="541" y="902" type="qcurve"/>
      <point x="506" y="902"/>
      <point x="445" y="881"/>
      <point x="392" y="847"/>
      <point x="349" y="806"/>
      <point x="332" y="785" type="qcurve"/>
    </contour>
    <contour>
      <point x="300" y="1464" type="line"/>
      <point x="403" y="1494" type="line"/>
      <point x="425" y="1494" type="line"/>
      <point x="347" y="902" type="line"/>
      <point x="355" y="902" type="line"/>
      <point x="374" y="921"/>
      <point x="424" y="958"/>
      <point x="482" y="987"/>
      <point x="545" y="1004"/>
      <point x="578" y="1004" type="qcurve"/>
      <point x="638" y="1004"/>
      <point x="740" y="945"/>
      <point x="815" y="838"/>
      <point x="857" y="687"/>
      <point x="857" y="596" type="qcurve"/>
      <point x="857" y="499"/>
      <point x="823" y="331"/>
      <point x="764" y="192"/>
      <point x="683" y="84"/>
      <point x="589" y="9"/>
      <point x="485" y="-30"/>
      <point x="432" y="-30" type="qcurve"/>
      <point x="356" y="-30"/>
      <point x="210" y="74"/>
      <point x="131" y="190" type="qcurve"/>
    </contour>
  </outline>
</glyph>
<glyph name="g" format="2">
  <advance width="840"/>
  <unicode hex="0067"/>
  <outline>
    <contour>
      <point x="740" y="974" type="line"/>
      <point x="844" y="1004" type="line"/>
      <point x="866" y="1004" type="line"/>
      <point x="734" y="0" type="line"/>
      <point x="714" y="-146"/>
      <point x="632" y="-335"/>
      <point x="522" y="-446"/>
      <point x="391" y="-490"/>
      <point x="323" y="-490" type="qcurve"/>
      <point x="281" y="-490"/>
      <point x="200" y="-471"/>
      <point x="129" y="-432"/>
      <point x="68" y="-374"/>
      <point x="46" y="-335" type="qcurve"/>
      <point x="121" y="-233" type="line"/>
      <point x="157" y="-305"/>
      <point x="267" y="-388"/>
      <point x="336" y="-388" type="qcurve"/>
      <point x="380" y="-388"/>
      <point x="466" y="-350"/>
      <point x="539" y="-266"/>
      <point x="593" y="-134"/>
      <point x="606" y="-40" type="qcurve"/>
      <point x="631" y="142" type="line"/>
      <point x="623" y="142" type="line"/>
      <point x="617" y="127"/>
      <point x="576" y="79"/>
      <point x="515" y="33"/>
      <point x="437" y="0"/>
      <point x="392" y="0" type="qcurve"/>
      <point x="339" y="0"/>
      <point x="242" y="55"/>
      <point x="170" y="157"/>
      <point x="127" y="300"/>
      <point x="127" y="389" type="qcurve"/>
      <point x="127" y="471"/>
      <point x="159" y="621"/>
      <point x="216" y="751"/>
      <point x="293" y="857"/>
      <point x="380" y="933"/>
      <point x="475" y="974"/>
      <point x="521" y="974" type="qcurve"/>
      <point x="548" y="974"/>
      <point x="603" y="961"/>
      <point x="654" y="933"/>
      <point x="700" y="886"/>
      <point x="717" y="852" type="qcurve"/>
      <point x="725" y="852" type="line"/>
    </contour>
    <contour>
      <point x="710" y="743" type="line"/>
      <point x="681" y="813"/>
      <point x="589" y="872"/>
      <point x="530" y="872" type="qcurve"/>
      <point x="474" y="872"/>
      <point x="374" y="789"/>
      <point x="299" y="652"/>
      <point x="256" y="474"/>
      <point x="256" y="379" type="qcurve"/>
      <point x="256" y="306"/>
      <point x="284" y="201"/>
      <point x="332" y="134"/>
      <point x="394" y="102"/>
      <point x="428" y="102" type="qcurve"/>
      <point x="467" y="102"/>
      <point x="536" y="132"/>
      <point x="592" y="177"/>
      <point x="633" y="230"/>
      <point x="645" y="254" type="qcurve"/>
    </contour>
  </outline>
</glyph>
<glyph name="h" format="2">
  <advance width="840"/>
  <unicode hex="0068"/>
  <outline>
    <contour>
      <point x="308" y="1464" type="line"/>
      <point x="410" y="1494" type="line"/>
      <point x="433" y="1494" type="line"/>
      <point x="346" y="837" type="line"/>
      <point x="353" y="837" type="line"/>
      <point x="412" y="916"/>
      <point x="542" y="1004"/>
      <point x="622" y="1004" type="qcurve"/>
      <point x="668" y="1004"/>
      <point x="742" y="972"/>
      <point x="794" y="911"/>
      <point x="824" y="821"/>
      <point x="824" y="764" type="qcurve"/>
      <point x="824" y="733"/>
      <point x="819" y="697" type="qcurve"/>
      <point x="753" y="196" type="line"/>
      <point x="749" y="163"/>
      <point x="749" y="140" type="qcurve"/>
      <point x="749" y="104"/>
      <point x="771" y="72"/>
      <point x="795" y="72" type="qcurve"/>
      <point x="782" y="-30" type="line"/>
      <point x="731" y="-30"/>
      <point x="679" y="-4"/>
      <point x="645" y="43"/>
      <point x="630" y="109"/>
      <point x="630" y="149" type="qcurve"/>
      <point x="630" y="184"/>
      <point x="636" y="227" type="qcurve"/>
      <point x="698" y="697" type="line"/>
      <point x="701" y="720"/>
      <point x="701" y="745" type="qcurve"/>
      <point x="701" y="817"/>
      <point x="639" y="902"/>
      <point x="584" y="902" type="qcurve"/>
      <point x="546" y="902"/>
      <point x="475" y="869"/>
      <point x="410" y="812"/>
      <point x="352" y="738"/>
      <point x="327" y="696" type="qcurve"/>
      <point x="236" y="0" type="line"/>
      <point x="114" y="0" type="line"/>
    </contour>
  </outline>
</glyph>
<glyph name="j" format="2">
  <advance width="432"/>
  <unicode hex="006A"/>
  <outline>
    <contour>
      <point x="284" y="974" type="line"/>
      <point x="387" y="1004" type="line"/>
      <point x="410" y="1004" type="line"/>
      <point x="266" y="-77" type="line"/>
      <point x="251" y="-196"/>
      <point x="193" y="-354"/>
      <point x="112" y="-450"/>
      <point x="8" y="-490"/>
      <point x="-54" y="-490" type="qcurve"/>
      <point x="-41" y="-388" type="line"/>
      <point x="36" y="-388"/>
      <point x="119" y="-270"/>
      <point x="135" y="-152" type="qcurve"/>
    </contour>
    <contour>
      <point x="311" y="1272" type="qcurve"/>
      <point x="311" y="1312"/>
      <point x="353" y="1368"/>
      <point x="383" y="1368" type="qcurve"/>
      <point x="413" y="1368"/>
      <point x="455" y="1312"/>
      <point x="455" y="1272" type="qcurve"/>
      <point x="455" y="1232"/>
      <point x="413" y="1176"/>
      <point x="383" y="1176" type="qcurve"/>
      <point x="353" y="1176"/>
      <point x="311" y="1232"/>
    </contour>
  </outline>
</glyph>
<glyph name="k" format="2">
  <advance width="768"/>
  <unicode hex="006B"/>
  <outline>
    <contour>
      <point x="757" y="0" type="line"/>
      <point x="614" y="-30" type="line"/>
      <point x="371" y="477" type="line"/>
      <point x="363" y="477" type="line"/>
      <point x="287" y="390" type="line"/>
      <point x="236" y="0" type="line"/>
      <point x="114" y="0" type="line"/>
      <point x="308" y="1464" type="line"/>
      <point x="410" y="1494" type="line"/>
      <point x="433" y="1494" type="line"/>
      <point x="308" y="546" type="line"/>
      <point x="315" y="546" type="line"/>
      <point x="712" y="1004" type="line"/>
      <point x="803" y="974" type="line"/>
      <point x="446" y="571" type="line"/>
    </contour>
  </outline>
</glyph>
<glyph name="o" format="2">
  <advance width="840"/>
  <unicode hex="006F"/>
  <outline>
    <contour>
      <point x="553" y="1004" type="qcurve"/>
      <point x="623" y="1004"/>
      <point x="735" y="944"/>
      <point x="815" y="836"/>
      <point x="857" y="686"/>
      <point x="857" y="596" type="qcurve"/>
      <point x="857" y="469"/>
      <point x="788" y="242"/>
      <point x="667" y="71"/>
      <point x="506" y="-30"/>
      <point x="416" y="-30" type="qcurve"/>
      <point x="345" y="-30"/>
      <point x="232" y="30"/>
      <point x="153" y="139"/>
      <point x="111" y="290"/>
      <point x="111" y="381" type="qcurve"/>
      <point x="111" y="507"/>
      <point x="182" y="734"/>
      <point x="302" y="904"/>
      <point x="463" y="1004"/>
    </contour>
    <contour>
      <point x="539" y="902" type="qcurve"/>
      <point x="476" y="902"/>
      <point x="366" y="811"/>
      <point x="286" y="663"/>
      <point x="240" y="477"/>
      <point x="240" y="381" type="qcurve"/>
      <point x="240" y="314"/>
      <point x="266" y="201"/>
      <point x="314" y="118"/>
      <point x="384" y="72"/>
      <point x="429" y="72" type="qcurve"/>
      <point x="471" y="72"/>
      <point x="548" y="113"/>
      <point x="614" y="185"/>
      <point x="668" y="284"/>
      <point x="707" y="398"/>
      <point x="728" y="524"/>
      <point x="728" y="588" type="qcurve"/>
      <point x="728" y="655"/>
      <point x="703" y="770"/>
      <point x="654" y="854"/>
      <point x="584" y="902"/>
    </contour>
  </outline>
</glyph>
<glyph name="r" format="2">
  <advance width="552"/>
  <unicode hex="0072"/>
  <outline>
    <contour>
      <point x="364" y="974" type="line"/>
      <point x="342" y="808" type="line"/>
      <point x="350" y="808" type="line"/>
      <point x="397" y="905"/>
      <point x="496" y="1004"/>
      <point x="557" y="1004" type="qcurve"/>
      <point x="574" y="1004"/>
      <point x="605" y="992"/>
      <point x="631" y="974"/>
      <point x="649" y="953"/>
      <point x="653" y="944" type="qcurve"/>
      <point x="632" y="786" type="line"/>
      <point x="620" y="806"/>
      <point x="560" y="842"/>
      <point x="516" y="842" type="qcurve"/>
      <point x="471" y="842"/>
      <point x="399" y="783"/>
      <point x="347" y="699"/>
      <point x="316" y="607"/>
      <point x="311" y="574" type="qcurve"/>
      <point x="236" y="0" type="line"/>
      <point x="114" y="0" type="line"/>
      <point x="239" y="944" type="line"/>
      <point x="341" y="974" type="line"/>
    </contour>
  </outline>
</glyph>
<glyph name="t" format="2">
  <advance width="552"/>
  <unicode hex="0074"/>
  <outline>
    <contour>
      <point x="485" y="1322" type="line"/>
      <point x="443" y="1004" type="line"/>
      <point x="604" y="1004" type="line"/>
      <point x="587" y="872" type="line"/>
      <point x="427" y="885" type="line"/>
      <point x="349" y="297" type="line"/>
      <point x="342" y="249"/>
      <point x="342" y="211" type="qcurve"/>
      <point x="342" y="176"/>
      <point x="356" y="123"/>
      <point x="389" y="89"/>
      <point x="442" y="72"/>
      <point x="481" y="72" type="qcurve"/>
      <point x="467" y="-30" type="line"/>
      <point x="410" y="-30"/>
      <point x="318" y="-15"/>
      <point x="254" y="32"/>
      <point x="221" y="119"/>
      <point x="221" y="191" type="qcurve"/>
      <point x="221" y="244"/>
      <point x="231" y="326" type="qcurve"/>
      <point x="306" y="893" type="line"/>
      <point x="181" y="902" type="line"/>
      <point x="194" y="1004" type="line"/>
      <point x="321" y="1004" type="line"/>
      <point x="359" y="1292" type="line"/>
      <point x="462" y="1322" type="line"/>
    </contour>
  </outline>
</glyph>
<glyph name="w" format="2">
  <advance width="1080"/>
  <unicode hex="0077"/>
  <outline>
    <contour>
      <point x="1166" y="974" type="line"/>
      <point x="800" y="0" type="line"/>
      <point x="709" y="0" type="line"/>
      <point x="633" y="678" type="line"/>
      <point x="626" y="678" type="line"/>
      <point x="371" y="0" type="line"/>
      <point x="280" y="0" type="line"/>
      <point x="170" y="974" type="line"/>
      <point x="305" y="1004" type="line"/>
      <point x="380" y="269" type="line"/>
      <point x="388" y="269" type="line"/>
      <point x="645" y="974" type="line"/>
      <point x="737" y="974" type="line"/>
      <point x="809" y="269" type="line"/>
      <point x="817" y="269" type="line"/>
      <point x="1086" y="1004" type="line"/>
    </contour>
  </outline>
</glyph>
<glyph name="x" format="2">
  <advance width="768"/>
  <unicode hex="0078"/>
  <outline>
    <contour>
      <point x="320" y="1004" type="line"/>
      <point x="468" y="616" type="line"/>
      <point x="476" y="616" type="line"/>
      <point x="727" y="1004" type="line"/>
      <point x="805" y="974" type="line"/>
      <point x="509" y="527" type="line"/>
      <point x="508" y="517" type="line"/>
      <point x="713" y="0" type="line"/>
      <point x="578" y="-30" type="line"/>
      <point x="418" y="374" type="line"/>
      <point x="410" y="374" type="line"/>
      <point x="145" y="-30" type="line"/>
      <point x="67" y="0" type="line"/>
      <point x="378" y="470" type="line"/>
      <point x="380" y="480" type="line"/>
      <point x="184" y="974" type="line"/>
    </contour>
  </outline>
</glyph>
<glyph name="y" format="2">
  <advance width="720"/>
  <unicode hex="0079"/>
  <outline>
    <contour>
      <point x="326" y="1004" type="line"/>
      <point x="431" y="204" type="line"/>
      <point x="439" y="204" type="line"/>
      <point x="730" y="1004" type="line"/>
      <point x="807" y="974" type="line"/>
      <point x="440" y="-30" type="line"/>
      <point x="396" y="-149"/>
      <point x="320" y="-322"/>
      <point x="230" y="-435"/>
      <point x="116" y="-490"/>
      <point x="34" y="-490" type="qcurve"/>
      <point x="47" y="-388" type="line"/>
      <point x="104" y="-388"/>
      <point x="189" y="-342"/>
      <point x="259" y="-251"/>
      <point x="319" y="-117"/>
      <point x="351" y="-30" type="qcurve"/>
      <point x="191" y="974" type="line"/>
    </contour>
  </outline>
</glyph>
<glyph name="bar" format="2">
  <advance width="552"/>
  <unicode hex="007C"/>
  <outline>
    <contour>
      <point x="532" y="1536" type="line"/>
      <point x="264" y="-490" type="line"/>
      <point x="158" y="-490" type="line"/>
      <point x="425" y="1536" type="line"/>
    </contour>
  </outline>
</glyph>
<glyph name="braceright" format="2">
  <advance width="552"/>
  <unicode hex="007D"/>
  <outline>
    <contour>
      <point x="248" y="1464" type="line"/>
      <point x="302" y="1464"/>
      <point x="386" y="1442"/>
      <point x="443" y="1391"/>
      <point x="473" y="1308"/>
      <point x="473" y="1246" type="qcurve"/>
      <point x="473" y="1226"/>
      <point x="470" y="1182"/>
      <point x="467" y="1157" type="qcurve"/>
      <point x="444" y="992" type="line"/>
      <point x="437" y="941"/>
      <point x="427" y="850"/>
      <point x="427" y="811" type="qcurve"/>
      <point x="427" y="772"/>
      <point x="440" y="711"/>
      <point x="474" y="667"/>
      <point x="531" y="644"/>
      <point x="575" y="644" type="qcurve"/>
      <point x="562" y="542" type="line"/>
      <point x="498" y="542"/>
      <point x="420" y="490"/>
      <point x="374" y="398"/>
      <point x="349" y="270"/>
      <point x="339" y="194" type="qcurve"/>
      <point x="316" y="19" type="line"/>
      <point x="304" y="-70"/>
      <point x="256" y="-184"/>
      <point x="182" y="-252"/>
      <point x="80" y="-278"/>
      <point x="17" y="-278" type="qcurve"/>
      <point x="30" y="-176" type="line"/>
      <point x="91" y="-176"/>
      <point x="149" y="-155"/>
      <point x="185" y="-105"/>
      <point x="203" y="-23"/>
      <point x="212" y="39" type="qcurve"/>
      <point x="235" y="214" type="line"/>
      <point x="244" y="282"/>
      <point x="273" y="406"/>
      <point x="325" y="507"/>
      <point x="404" y="578"/>
      <point x="463" y="593" type="qcurve"/>
      <point x="422" y="604"/>
      <point x="369" y="648"/>
      <point x="338" y="710"/>
      <point x="324" y="787"/>
      <point x="324" y="831" type="qcurve"/>
      <point x="324" y="864"/>
      <point x="330" y="935"/>
      <point x="335" y="972" type="qcurve"/>
      <point x="357" y="1135" type="line"/>
      <point x="362" y="1169"/>
      <point x="367" y="1225"/>
      <point x="367" y="1248" type="qcurve"/>
      <point x="367" y="1278"/>
      <point x="356" y="1322"/>
      <point x="328" y="1349"/>
      <point x="282" y="1362"/>
      <point x="234" y="1362" type="qcurve"/>
    </contour>
  </outline>
</glyph>
<glyph name="asciitilde" format="2">
  <advance width="936"/>
  <unicode hex="007E"/>
  <outline>
    <contour>
      <point x="134" y="407" type="line"/>
      <point x="138" y="435"/>
      <point x="176" y="515"/>
      <point x="238" y="589"/>
      <point x="322" y="641"/>
      <point x="372" y="641" type="qcurve"/>
      <point x="413" y="641"/>
      <point x="478" y="614"/>
      <point x="533" y="573"/>
      <point x="579" y="525"/>
      <point x="626" y="484"/>
      <point x="677" y="457"/>
      <point x="708" y="457" type="qcurve"/>
      <point x="740" y="457"/>
      <point x="789" y="489"/>
      <point x="827" y="541"/>
      <point x="850" y="607"/>
      <point x="854" y="641" type="qcurve"/>
      <point x="877" y="641" type="line"/>
      <point x="930" y="569" type="line"/>
      <point x="926" y="541"/>
      <point x="889" y="461"/>
      <point x="827" y="387"/>
      <point x="742" y="335"/>
      <point x="692" y="335" type="qcurve"/>
      <point x="647" y="335"/>
      <point x="582" y="362"/>
      <point x="529" y="403"/>
      <point x="485" y="451"/>
      <point x="440" y="492"/>
      <point x="388" y="519"/>
      <point x="355" y="519" type="qcurve"/>
      <point x="324" y="519"/>
      <point x="275" y="487"/>
      <point x="239" y="435"/>
      <point x="215" y="369"/>
      <point x="211" y="335" type="qcurve"/>
      <point x="188" y="335" type="line"/>
    </contour>
  </outline>
</glyph>
<glyph name="exclamdown" format="2">
  <advance width="552"/>
  <unicode hex="00A1"/>
  <outline>
    <contour>
      <point x="390" y="580" type="line"/>
      <point x="482" y="580" type="line"/>
      <point x="383" y="-460" type="line"/>
      <point x="214" y="-460" type="line"/>
    </contour>
    <contour>
      <point x="384" y="891" type="qcurve"/>
      <point x="384" y="867"/>
      <point x="397" y="827"/>
      <point x="421" y="795"/>
      <point x="451" y="778"/>
      <point x="469" y="778" type="qcurve"/>
      <point x="486" y="778"/>
      <point x="517" y="795"/>
      <point x="541" y="827"/>
      <point x="554" y="867"/>
      <point x="554" y="891" type="qcurve"/>
      <point x="554" y="914"/>
      <point x="541" y="955"/>
      <point x="517" y="987"/>
      <point x="486" y="1004"/>
      <point x="469" y="1004" type="qcurve"/>
      <point x="451" y="1004"/>
      <point x="421" y="987"/>
      <point x="397" y="955"/>
      <point x="384" y="914"/>
    </contour>
  </outline>
</glyph>
<glyph name="sterling" format="2">
  <advance width="840"/>
  <unicode hex="00A3"/>
  <outline>
    <contour>
      <point x="218" y="803" type="line"/>
      <point x="375" y="803" type="line"/>
      <point x="379" y="830"/>
      <point x="375" y="906"/>
      <point x="371" y="993"/>
      <point x="369" y="1086"/>
      <point x="375" y="1130" type="qcurve"/>
      <point x="385" y="1203"/>
      <point x="434" y="1325"/>
      <point x="515" y="1414"/>
      <point x="627" y="1464"/>
      <point x="698" y="1464" type="qcurve"/>
      <point x="744" y="1464"/>
      <point x="817" y="1429"/>
      <point x="872" y="1380"/>
      <point x="908" y="1327"/>
      <point x="917" y="1309" type="qcurve"/>
      <point x="827" y="1207" type="line"/>
      <point x="820" y="1237"/>
      <point x="793" y="1293"/>
      <point x="758" y="1336"/>
      <point x="715" y="1362"/>
      <point x="690" y="1362" type="qcurve"/>
      <point x="648" y="1362"/>
      <point x="582" y="1325"/>
      <point x="533" y="1261"/>
      <point x="502" y="1173"/>
      <point x="495" y="1122" type="qcurve"/>
      <point x="491" y="1090"/>
      <point x="488" y="1003"/>
      <point x="487" y="913"/>
      <point x="485" y="830"/>
      <point x="482" y="803" type="qcurve"/>
      <point x="713" y="803" type="line"/>
      <point x="697" y="678" type="line"/>
      <point x="467" y="693" type="line"/>
      <point x="455" y="601"/>
      <point x="405" y="433"/>
      <point x="342" y="286"/>
      <point x="272" y="161"/>
      <point x="240" y="112" type="qcurve"/>
      <point x="239" y="102" type="line"/>
      <point x="290" y="102"/>
      <point x="367" y="93"/>
      <point x="428" y="81"/>
      <point x="483" y="72"/>
      <point x="514" y="72" type="qcurve"/>
      <point x="547" y="72"/>
      <point x="605" y="105"/>
      <point x="651" y="153"/>
      <point x="687" y="207"/>
      <point x="698" y="227" type="qcurve"/>
      <point x="761" y="125" type="line"/>
      <point x="745" y="106"/>
      <point x="695" y="53"/>
      <point x="626" y="4"/>
      <point x="542" y="-30"/>
      <point x="494" y="-30" type="qcurve"/>
      <point x="455" y="-30"/>
      <point x="382" y="-21"/>
      <point x="298" y="-9"/>
      <point x="195" y="0"/>
      <point x="112" y="0" type="qcurve"/>
      <point x="125" y="102" type="line"/>
      <point x="159" y="151"/>
      <point x="229" y="257"/>
      <point x="292" y="395"/>
      <point x="344" y="576"/>
      <point x="362" y="701" type="qcurve"/>
      <point x="206" y="718" type="line"/>
    </contour>
  </outline>
</glyph>
<glyph name="yen" format="2">
  <advance width="768"/>
  <unicode hex="00A5"/>
  <outline>
    <contour>
      <point x="401" y="1464" type="line"/>
      <point x="500" y="742" type="line"/>
      <point x="508" y="742" type="line"/>
      <point x="800" y="1464" type="line"/>
      <point x="886" y="1434" type="line"/>
      <point x="700" y="974" type="line"/>
      <point x="810" y="974" type="line"/>
      <point x="797" y="872" type="line"/>
      <point x="658" y="872" type="line"/>
      <point x="566" y="645" type="line"/>
      <point x="767" y="645" type="line"/>
      <point x="753" y="543" type="line"/>
      <point x="524" y="543" type="line"/>
      <point x="452" y="0" type="line"/>
      <point x="316" y="0" type="line"/>
      <point x="387" y="543" type="line"/>
      <point x="158" y="543" type="line"/>
      <point x="171" y="645" type="line"/>
      <point x="371" y="645" type="line"/>
      <point x="340" y="872" type="line"/>
      <point x="201" y="872" type="line"/>
      <point x="215" y="974" type="line"/>
      <point x="325" y="974" type="line"/>
      <point x="260" y="1434" type="line"/>
    </contour>
  </outline>
</glyph>
<glyph name="brokenbar" format="2">
  <advance width="552"/>
  <unicode hex="00A6"/>
  <outline>
    <contour>
      <point x="544" y="1682" type="line"/>
      <point x="431" y="825" type="line"/>
      <point x="339" y="825" type="line"/>
      <point x="452" y="1682" type="line"/>
    </contour>
    <contour>
      <point x="193" y="-278" type="line"/>
      <point x="307" y="579" type="line"/>
      <point x="398" y="579" type="line"/>
      <point x="284" y="-278" type="line"/>
    </contour>
  </outline>
</glyph>
<glyph name="section" format="2">
  <advance width="768"/>
  <unicode hex="00A7"/>
  <outline>
    <contour>
      <point x="329" y="-490" type="qcurve"/>
      <point x="292" y="-490"/>
      <point x="227" y="-465"/>
      <point x="171" y="-423"/>
      <point x="128" y="-367"/>
      <point x="111" y="-335" type="qcurve"/>
      <point x="188" y="-233" type="line"/>
      <point x="202" y="-265"/>
      <point x="234" y="-321"/>
      <point x="272" y="-363"/>
      <point x="317" y="-388"/>
      <point x="343" y="-388" type="qcurve"/>
      <point x="376" y="-388"/>
      <point x="427" y="-347"/>
      <point x="461" y="-284"/>
      <point x="479" y="-207"/>
      <point x="479" y="-170" type="qcurve"/>
      <point x="479" y="-121"/>
      <point x="455" y="-44"/>
      <point x="414" y="21"/>
      <point x="362" y="78"/>
      <point x="308" y="136"/>
      <point x="257" y="199"/>
      <point x="216" y="276"/>
      <point x="191" y="371"/>
      <point x="191" y="432" type="qcurve"/>
      <point x="191" y="505"/>
      <point x="224" y="627"/>
      <point x="281" y="728"/>
      <point x="358" y="809"/>
      <point x="403" y="842" type="qcurve"/>
      <point x="377" y="884"/>
      <point x="344" y="998"/>
      <point x="344" y="1070" type="qcurve"/>
      <point x="344" y="1150"/>
      <point x="383" y="1293"/>
      <point x="454" y="1401"/>
      <point x="554" y="1464"/>
      <point x="615" y="1464" type="qcurve"/>
      <point x="692" y="1464"/>
      <point x="798" y="1378"/>
      <point x="833" y="1309" type="qcurve"/>
      <point x="756" y="1207" type="line"/>
      <point x="749" y="1234"/>
      <point x="719" y="1289"/>
      <point x="679" y="1334"/>
      <point x="629" y="1362"/>
      <point x="602" y="1362" type="qcurve"/>
      <point x="568" y="1362"/>
      <point x="517" y="1321"/>
      <point x="483" y="1257"/>
      <point x="466" y="1179"/>
      <point x="466" y="1142" type="qcurve"/>
      <point x="466" y="1093"/>
      <point x="491" y="1017"/>
      <point x="531" y="952"/>
      <point x="582" y="896"/>
      <point x="636" y="838"/>
      <point x="687" y="775"/>
      <point x="728" y="699"/>
      <point x="752" y="605"/>
      <point x="752" y="545" type="qcurve"/>
      <point x="752" y="470"/>
      <point x="721" y="347"/>
      <point x="665" y="246"/>
      <point x="587" y="164"/>
      <point x="541" y="131" type="qcurve"/>
      <point x="567" y="89"/>
      <point x="601" y="-24"/>
      <point x="601" y="-97" type="qcurve"/>
      <point x="601" y="-178"/>
      <point x="563" y="-321"/>
      <point x="492" y="-428"/>
      <point x="392" y="-490"/>
    </contour>
    <contour>
      <point x="320" y="502" type="qcurve"/>
      <point x="320" y="450"/>
      <point x="351" y="369"/>
      <point x="400" y="300"/>
      <point x="461" y="236"/>
      <point x="491" y="200" type="qcurve"/>
      <point x="551" y="242"/>
      <point x="623" y="385"/>
      <point x="623" y="472" type="qcurve"/>
      <point x="623" y="524"/>
      <point x="593" y="605"/>
      <point x="544" y="674"/>
      <point x="484" y="738"/>
      <point x="454" y="774" type="qcurve"/>
      <point x="393" y="732"/>
      <point x="320" y="589"/>
    </contour>
  </outline>
</glyph>
<glyph name="dieresis" format="2">
  <advance width="576"/>
  <unicode hex="00A8"/>
  <outline>
    <contour>
      <point x="226" y="1280" type="qcurve"/>
      <point x="226" y="1299"/>
      <point x="238" y="1335"/>
      <point x="258" y="1362"/>
      <point x="285" y="1378"/>
      <point x="301" y="1378" type="qcurve"/>
      <point x="316" y="1378"/>
      <point x="344" y="1362"/>
      <point x="365" y="1335"/>
      <point x="377" y="1299"/>
      <point x="377" y="1280" type="qcurve"/>
      <point x="377" y="1259"/>
      <point x="365" y="1221"/>
      <point x="344" y="1192"/>
      <point x="316" y="1176"/>
      <point x="301" y="1176" type="qcurve"/>
      <point x="285" y="1176"/>
      <point x="258" y="1192"/>
      <point x="238" y="1221"/>
      <point x="226" y="1259"/>
    </contour>
    <contour>
      <point x="536" y="1280" type="qcurve"/>
      <point x="536" y="1299"/>
      <point x="548" y="1335"/>
      <point x="568" y="1362"/>
      <point x="595" y="1378"/>
      <point x="611" y="1378" type="qcurve"/>
      <point x="626" y="1378"/>
      <point x="653" y="1362"/>
      <point x="674" y="1335"/>
      <point x="687" y="1299"/>
      <point x="687" y="1280" type="qcurve"/>
      <point x="687" y="1259"/>
      <point x="674" y="1221"/>
      <point x="653" y="1192"/>
      <point x="626" y="1176"/>
      <point x="611" y="1176" type="qcurve"/>
      <point x="595" y="1176"/>
      <point x="568" y="1192"/>
      <point x="548" y="1221"/>
      <point x="536" y="1259"/>
    </contour>
  </outline>
</glyph>
<glyph name="copyright" format="2">
  <advance width="1200"/>
  <unicode hex="00A9"/>
  <outline>
    <contour>
      <point x="914" y="941" type="line"/>
      <point x="908" y="959"/>
      <point x="884" y="1008"/>
      <point x="847" y="1052"/>
      <point x="796" y="1082"/>
      <point x="763" y="1082" type="qcurve"/>
      <point x="727" y="1082"/>
      <point x="659" y="1046"/>
      <point x="599" y="984"/>
      <point x="549" y="899"/>
      <point x="513" y="799"/>
      <point x="493" y="689"/>
      <point x="493" y="634" type="qcurve"/>
      <point x="493" y="574"/>
      <point x="517" y="470"/>
      <point x="562" y="393"/>
      <point x="626" y="350"/>
      <point x="666" y="350" type="qcurve"/>
      <point x="700" y="350"/>
      <point x="758" y="380"/>
      <point x="806" y="424"/>
      <point x="843" y="473"/>
      <point x="854" y="491" type="qcurve"/>
      <point x="908" y="402" type="line"/>
      <point x="889" y="378"/>
      <point x="836" y="330"/>
      <point x="772" y="292"/>
      <point x="697" y="268"/>
      <point x="656" y="268" type="qcurve"/>
      <point x="595" y="268"/>
      <point x="495" y="321"/>
      <point x="424" y="417"/>
      <point x="386" y="549"/>
      <point x="386" y="628" type="qcurve"/>
      <point x="386" y="698"/>
      <point x="414" y="832"/>
      <point x="465" y="951"/>
      <point x="536" y="1051"/>
      <point x="623" y="1124"/>
      <point x="722" y="1164"/>
      <point x="774" y="1164" type="qcurve"/>
      <point x="816" y="1164"/>
      <point x="884" y="1140"/>
      <point x="938" y="1102"/>
      <point x="978" y="1054"/>
      <point x="992" y="1030" type="qcurve"/>
    </contour>
    <contour>
      <point x="140" y="716" type="qcurve"/>
      <point x="140" y="819"/>
      <point x="179" y="1010"/>
      <point x="252" y="1177"/>
      <point x="355" y="1313"/>
      <point x="479" y="1411"/>
      <point x="623" y="1464"/>
      <point x="700" y="1464" type="qcurve"/>
      <point x="777" y="1464"/>
      <point x="920" y="1411"/>
      <point x="1046" y="1313"/>
      <point x="1148" y="1177"/>
      <point x="1221" y="1010"/>
      <point x="1261" y="819"/>
      <point x="1261" y="716" type="qcurve"/>
      <point x="1261" y="613"/>
      <point x="1221" y="422"/>
      <point x="1148" y="256"/>
      <point x="1046" y="120"/>
      <point x="920" y="23"/>
      <point x="777" y="-30"/>
      <point x="700" y="-30" type="qcurve"/>
      <point x="623" y="-30"/>
      <point x="479" y="23"/>
      <point x="355" y="120"/>
      <point x="252" y="256"/>
      <point x="179" y="422"/>
      <point x="140" y="613"/>
    </contour>
    <contour>
      <point x="201" y="717" type="qcurve"/>
      <point x="201" y="627"/>
      <point x="238" y="459"/>
      <point x="304" y="312"/>
      <point x="396" y="189"/>
      <point x="507" y="101"/>
      <point x="633" y="52"/>
      <point x="700" y="52" type="qcurve"/>
      <point x="767" y="52"/>
      <point x="893" y="101"/>
      <point x="1004" y="189"/>
      <point x="1097" y="312"/>
      <point x="1163" y="459"/>
      <point x="1199" y="627"/>
      <point x="1199" y="717" type="qcurve"/>
      <point x="1199" y="806"/>
      <point x="1163" y="975"/>
      <point x="1097" y="1122"/>
      <point x="1004" y="1245"/>
      <point x="893" y="1333"/>
      <point x="767" y="1382"/>
      <point x="700" y="1382" type="qcurve"/>
      <point x="633" y="1382"/>
      <point x="507" y="1333"/>
      <point x="396" y="1245"/>
      <point x="304" y="1122"/>
      <point x="238" y="974"/>
      <point x="201" y="806"/>
    </contour>
  </outline>
</glyph>
<glyph name="ordfeminine" format="2">
  <advance width="648"/>
  <unicode hex="00AA"/>
  <outline>
    <contour>
      <point x="276" y="1341" type="line"/>
      <point x="323" y="1401"/>
      <point x="438" y="1464"/>
      <point x="506" y="1464" type="qcurve"/>
      <point x="550" y="1464"/>
      <point x="622" y="1428"/>
      <point x="669" y="1355"/>
      <point x="688" y="1246"/>
      <point x="679" y="1174" type="qcurve"/>
      <point x="630" y="810" type="line"/>
      <point x="620" y="729"/>
      <point x="665" y="729" type="qcurve"/>
      <point x="644" y="649" type="line"/>
      <point x="613" y="649"/>
      <point x="574" y="675"/>
      <point x="552" y="715"/>
      <point x="543" y="763"/>
      <point x="542" y="784" type="qcurve"/>
      <point x="536" y="784" type="line"/>
      <point x="518" y="761"/>
      <point x="476" y="713"/>
      <point x="425" y="674"/>
      <point x="362" y="649"/>
      <point x="322" y="649" type="qcurve"/>
      <point x="286" y="649"/>
      <point x="231" y="680"/>
      <point x="198" y="737"/>
      <point x="187" y="817"/>
      <point x="193" y="865" type="qcurve"/>
      <point x="202" y="932"/>
      <point x="255" y="1036"/>
      <point x="350" y="1107"/>
      <point x="489" y="1144"/>
      <point x="583" y="1144" type="qcurve"/>
      <point x="591" y="1206" type="line"/>
      <point x="598" y="1254"/>
      <point x="587" y="1321"/>
      <point x="560" y="1363"/>
      <point x="518" y="1382"/>
      <point x="495" y="1382" type="qcurve"/>
      <point x="443" y="1382"/>
      <point x="358" y="1315"/>
      <point x="326" y="1261" type="qcurve"/>
    </contour>
    <contour>
      <point x="575" y="1084" type="line"/>
      <point x="504" y="1084"/>
      <point x="401" y="1056"/>
      <point x="331" y="1003"/>
      <point x="293" y="925"/>
      <point x="286" y="874" type="qcurve"/>
      <point x="281" y="836"/>
      <point x="293" y="781"/>
      <point x="320" y="747"/>
      <point x="352" y="731"/>
      <point x="365" y="731" type="qcurve"/>
      <point x="392" y="731"/>
      <point x="440" y="749"/>
      <point x="484" y="784"/>
      <point x="524" y="833"/>
      <point x="546" y="864" type="qcurve"/>
    </contour>
  </outline>
</glyph>
<glyph name="guillemotleft" format="2">
  <advance width="768"/>
  <unicode hex="00AB"/>
  <outline>
    <contour>
      <point x="740" y="906" type="line"/>
      <point x="813" y="876" type="line"/>
      <point x="562" y="487" type="line"/>
      <point x="710" y="98" type="line"/>
      <point x="629" y="68" type="line"/>
      <point x="439" y="487" type="line"/>
    </contour>
    <contour>
      <point x="442" y="906" type="line"/>
      <point x="515" y="876" type="line"/>
      <point x="263" y="487" type="line"/>
      <point x="412" y="98" type="line"/>
      <point x="331" y="68" type="line"/>
      <point x="140" y="487" type="line"/>
    </contour>
  </outline>
</glyph>
<glyph name="logicalnot" format="2">
  <advance width="864"/>
  <unicode hex="00AC"/>
  <outline>
    <contour>
      <point x="907" y="747" type="line"/>
      <point x="842" y="256" type="line"/>
      <point x="751" y="256" type="line"/>
      <point x="800" y="625" type="line"/>
      <point x="137" y="625" type="line"/>
      <point x="152" y="747" type="line"/>
    </contour>
  </outline>
</glyph>
<glyph name="macron" format="2">
  <advance width="576"/>
  <unicode hex="00AF"/>
  <outline>
    <contour>
      <point x="278" y="1338" type="line"/>
      <point x="633" y="1338" type="line"/>
      <point x="617" y="1216" type="line"/>
      <point x="262" y="1216" type="line"/>
    </contour>
  </outline>
</glyph>
<glyph name="degree" format="2">
  <advance width="576"/>
  <unicode hex="00B0"/>
  <outline>
    <contour>
      <point x="311" y="1269" type="qcurve"/>
      <point x="311" y="1228"/>
      <point x="333" y="1157"/>
      <point x="372" y="1106"/>
      <point x="425" y="1076"/>
      <point x="455" y="1076" type="qcurve"/>
      <point x="485" y="1076"/>
      <point x="539" y="1106"/>
      <point x="578" y="1157"/>
      <point x="601" y="1228"/>
      <point x="601" y="1269" type="qcurve"/>
      <point x="601" y="1309"/>
      <point x="578" y="1380"/>
      <point x="539" y="1434"/>
      <point x="485" y="1464"/>
      <point x="455" y="1464" type="qcurve"/>
      <point x="425" y="1464"/>
      <point x="372" y="1434"/>
      <point x="333" y="1380"/>
      <point x="311" y="1309"/>
    </contour>
    <contour>
      <point x="234" y="1269" type="qcurve"/>
      <point x="234" y="1329"/>
      <point x="269" y="1437"/>
      <point x="329" y="1519"/>
      <point x="410" y="1566"/>
      <point x="456" y="1566" type="qcurve"/>
      <point x="501" y="1566"/>
      <point x="583" y="1519"/>
      <point x="642" y="1437"/>
      <point x="677" y="1329"/>
      <point x="677" y="1269" type="qcurve"/>
      <point x="677" y="1208"/>
      <point x="642" y="1101"/>
      <point x="583" y="1020"/>
      <point x="501" y="974"/>
      <point x="456" y="974" type="qcurve"/>
      <point x="410" y="974"/>
      <point x="329" y="1020"/>
      <point x="269" y="1101"/>
      <point x="234" y="1208"/>
    </contour>
  </outline>
</glyph>
<glyph name="twosuperior" format="2">
  <advance width="552"/>
  <unicode hex="00B2"/>
  <outline>
    <contour>
      <point x="297" y="1362" type="line"/>
      <point x="333" y="1410"/>
      <point x="433" y="1464"/>
      <point x="482" y="1464" type="qcurve"/>
      <point x="516" y="1464"/>
      <point x="575" y="1437"/>
      <point x="620" y="1386"/>
      <point x="644" y="1310"/>
      <point x="644" y="1262" type="qcurve"/>
      <point x="644" y="1216"/>
      <point x="629" y="1136"/>
      <point x="596" y="1058"/>
      <point x="543" y="976"/>
      <point x="467" y="879"/>
      <point x="365" y="762"/>
      <point x="301" y="689" type="qcurve"/>
      <point x="575" y="719" type="line"/>
      <point x="560" y="604" type="line"/>
      <point x="151" y="604" type="line"/>
      <point x="154" y="624" type="line"/>
      <point x="228" y="721"/>
      <point x="345" y="864"/>
      <point x="434" y="973"/>
      <point x="496" y="1056"/>
      <point x="534" y="1129"/>
      <point x="552" y="1201"/>
      <point x="552" y="1245" type="qcurve"/>
      <point x="552" y="1294"/>
      <point x="509" y="1362"/>
      <point x="469" y="1362" type="qcurve"/>
      <point x="434" y="1362"/>
      <point x="375" y="1316"/>
      <point x="353" y="1287" type="qcurve"/>
    </contour>
  </outline>
</glyph>
<glyph name="threesuperior" format="2">
  <advance width="552"/>
  <unicode hex="00B3"/>
  <outline>
    <contour>
      <point x="342" y="1032" type="line"/>
      <point x="356" y="1134" type="line"/>
      <point x="394" y="1134" type="line"/>
      <point x="417" y="1134"/>
      <point x="461" y="1159"/>
      <point x="497" y="1200"/>
      <point x="518" y="1255"/>
      <point x="518" y="1285" type="qcurve"/>
      <point x="518" y="1320"/>
      <point x="490" y="1362"/>
      <point x="461" y="1362" type="qcurve"/>
      <point x="441" y="1362"/>
      <point x="389" y="1327"/>
      <point x="353" y="1288" type="qcurve"/>
      <point x="297" y="1362" type="line"/>
      <point x="308" y="1375"/>
      <point x="344" y="1410"/>
      <point x="389" y="1442"/>
      <point x="440" y="1464"/>
      <point x="467" y="1464" type="qcurve"/>
      <point x="500" y="1464"/>
      <point x="553" y="1440"/>
      <point x="590" y="1398"/>
      <point x="609" y="1340"/>
      <point x="609" y="1307" type="qcurve"/>
      <point x="609" y="1266"/>
      <point x="584" y="1196"/>
      <point x="544" y="1141"/>
      <point x="493" y="1103"/>
      <point x="466" y="1093" type="qcurve"/>
      <point x="465" y="1087" type="line"/>
      <point x="479" y="1082"/>
      <point x="524" y="1058"/>
      <point x="565" y="1012"/>
      <point x="594" y="942"/>
      <point x="594" y="891" type="qcurve"/>
      <point x="594" y="822"/>
      <point x="551" y="709"/>
      <point x="480" y="630"/>
      <point x="388" y="586"/>
      <point x="338" y="586" type="qcurve"/>
      <point x="307" y="586"/>
      <point x="253" y="605"/>
      <point x="209" y="635"/>
      <point x="175" y="672"/>
      <point x="164" y="690" type="qcurve"/>
      <point x="235" y="770" type="line"/>
      <point x="251" y="734"/>
      <point x="307" y="688"/>
      <point x="352" y="688" type="qcurve"/>
      <point x="384" y="688"/>
      <point x="440" y="719"/>
      <point x="480" y="773"/>
      <point x="503" y="843"/>
      <point x="503" y="882" type="qcurve"/>
      <point x="503" y="913"/>
      <point x="488" y="968"/>
      <point x="458" y="1009"/>
      <point x="413" y="1032"/>
      <point x="384" y="1032" type="qcurve"/>
    </contour>
  </outline>
</glyph>
<glyph name="acute" format="2">
  <advance width="576"/>
  <unicode hex="00B4"/>
  <outline>
    <contour>
      <point x="311" y="1176" type="line"/>
      <point x="544" y="1521" type="line"/>
      <point x="566" y="1521" type="line"/>
      <point x="628" y="1434" type="line"/>
      <point x="628" y="1404" type="line"/>
      <point x="353" y="1116" type="line"/>
    </contour>
  </outline>
</glyph>
<glyph name="mu" format="2">
  <advance width="768"/>
  <unicode hex="00B5"/>
  <outline>
    <contour>
      <point x="341" y="974" type="line"/>
      <point x="277" y="487" type="line"/>
      <point x="271" y="445"/>
      <point x="266" y="373"/>
      <point x="266" y="341" type="qcurve"/>
      <point x="266" y="276"/>
      <point x="286" y="182"/>
      <point x="320" y="121"/>
      <point x="365" y="92"/>
      <point x="392" y="92" type="qcurve"/>
      <point x="425" y="92"/>
      <point x="490" y="137"/>
      <point x="546" y="233"/>
      <point x="592" y="383"/>
      <point x="605" y="487" type="qcurve"/>
      <point x="666" y="944" type="line"/>
      <point x="769" y="974" type="line"/>
      <point x="791" y="974" type="line"/>
      <point x="697" y="259" type="line"/>
      <point x="693" y="233"/>
      <point x="689" y="199"/>
      <point x="687" y="176"/>
      <point x="686" y="162"/>
      <point x="686" y="156" type="qcurve"/>
      <point x="686" y="115"/>
      <point x="725" y="72"/>
      <point x="761" y="72" type="qcurve"/>
      <point x="748" y="-30" type="line"/>
      <point x="731" y="-30" type="line"/>
      <point x="683" y="-30"/>
      <point x="620" y="-1"/>
      <point x="582" y="43"/>
      <point x="566" y="97"/>
      <point x="565" y="122" type="qcurve"/>
      <point x="557" y="122" type="line"/>
      <point x="548" y="98"/>
      <point x="515" y="44"/>
      <point x="469" y="-1"/>
      <point x="410" y="-30"/>
      <point x="375" y="-30" type="qcurve"/>
      <point x="344" y="-30"/>
      <point x="296" y="-1"/>
      <point x="263" y="43"/>
      <point x="242" y="97"/>
      <point x="236" y="122" type="qcurve"/>
      <point x="229" y="122" type="line"/>
      <point x="152" y="-460" type="line"/>
      <point x="49" y="-490" type="line"/>
      <point x="26" y="-490" type="line"/>
      <point x="216" y="944" type="line"/>
      <point x="319" y="974" type="line"/>
    </contour>
  </outline>
</glyph>
<glyph name="cedilla" format="2">
  <advance width="576"/>
  <unicode hex="00B8"/>
  <outline>
    <contour>
      <point x="339" y="19" type="line"/>
      <point x="294" y="-110" type="line"/>
      <point x="312" y="-110"/>
      <point x="348" y="-132"/>
      <point x="378" y="-175"/>
      <point x="397" y="-240"/>
      <point x="397" y="-283" type="qcurve"/>
      <point x="397" y="-334"/>
      <point x="365" y="-411"/>
      <point x="317" y="-463"/>
      <point x="257" y="-490"/>
      <point x="230" y="-490" type="qcurve"/>
      <point x="203" y="-490"/>
      <point x="161" y="-476"/>
      <point x="130" y="-456"/>
      <point x="108" y="-433"/>
      <point x="101" y="-423" type="qcurve"/>
      <point x="142" y="-347" type="line"/>
      <point x="154" y="-373"/>
      <point x="197" y="-408"/>
      <point x="218" y="-408" type="qcurve"/>
      <point x="259" y="-408"/>
      <point x="305" y="-342"/>
      <point x="305" y="-288" type="qcurve"/>
      <point x="305" y="-266"/>
      <point x="292" y="-229"/>
      <point x="271" y="-204"/>
      <point x="244" y="-190"/>
      <point x="230" y="-190" type="qcurve"/>
      <point x="211" y="-190"/>
      <point x="177" y="-201"/>
      <point x="168" y="-206" type="qcurve"/>
      <point x="248" y="19" type="line"/>
    </contour>
  </outline>
</glyph>
<glyph name="onesuperior" format="2">
  <advance width="552"/>
  <unicode hex="00B9"/>
  <outline>
    <contour>
      <point x="560" y="1464" type="line"/>
      <point x="446" y="604" type="line"/>
      <point x="362" y="604" type="line"/>
      <point x="458" y="1335" type="line"/>
      <point x="453" y="1335" type="line"/>
      <point x="359" y="1309" type="line"/>
      <point x="359" y="1391" type="line"/>
      <point x="535" y="1464" type="line"/>
    </contour>
  </outline>
</glyph>
<glyph name="questiondown" format="2">
  <advance width="768"/>
  <unicode hex="00BF"/>
  <outline>
    <contour>
      <point x="648" y="125" type="line"/>
      <point x="590" y="47"/>
      <point x="458" y="-30"/>
      <point x="387" y="-30" type="qcurve"/>
      <point x="342" y="-30"/>
      <point x="259" y="12"/>
      <point x="200" y="91"/>
      <point x="170" y="203"/>
      <point x="180" y="273" type="qcurve"/>
      <point x="188" y="339"/>
      <point x="226" y="436"/>
      <point x="284" y="516"/>
      <point x="364" y="591"/>
      <point x="413" y="635" type="qcurve"/>
      <point x="455" y="672"/>
      <point x="514" y="729"/>
      <point x="552" y="778"/>
      <point x="572" y="823"/>
      <point x="575" y="847" type="qcurve"/>
      <point x="579" y="878"/>
      <point x="572" y="923"/>
      <point x="557" y="953"/>
      <point x="532" y="967"/>
      <point x="519" y="967" type="qcurve"/>
      <point x="490" y="967"/>
      <point x="459" y="949"/>
      <point x="444" y="933" type="qcurve"/>
      <point x="398" y="1006" type="line"/>
      <point x="423" y="1032"/>
      <point x="497" y="1069"/>
      <point x="533" y="1069" type="qcurve"/>
      <point x="563" y="1069"/>
      <point x="618" y="1042"/>
      <point x="658" y="987"/>
      <point x="674" y="903"/>
      <point x="667" y="846" type="qcurve"/>
      <point x="661" y="802"/>
      <point x="623" y="717"/>
      <point x="567" y="635"/>
      <point x="497" y="558"/>
      <point x="459" y="522" type="qcurve"/>
      <point x="418" y="483"/>
      <point x="362" y="421"/>
      <point x="325" y="362"/>
      <point x="305" y="301"/>
      <point x="300" y="264" type="qcurve"/>
      <point x="294" y="216"/>
      <point x="306" y="144"/>
      <point x="335" y="96"/>
      <point x="377" y="72"/>
      <point x="401" y="72" type="qcurve"/>
      <point x="424" y="72"/>
      <point x="474" y="92"/>
      <point x="522" y="132"/>
      <point x="566" y="189"/>
      <point x="585" y="227" type="qcurve"/>
    </contour>
    <contour>
      <point x="476" y="1351" type="qcurve"/>
      <point x="476" y="1374"/>
      <point x="489" y="1415"/>
      <point x="513" y="1447"/>
      <point x="543" y="1464"/>
      <point x="561" y="1464" type="qcurve"/>
      <point x="578" y="1464"/>
      <point x="609" y="1447"/>
      <point x="633" y="1415"/>
      <point x="646" y="1374"/>
      <point x="646" y="1351" type="qcurve"/>
      <point x="646" y="1327"/>
      <point x="633" y="1287"/>
      <point x="609" y="1255"/>
      <point x="578" y="1238"/>
      <point x="561" y="1238" type="qcurve"/>
      <point x="543" y="1238"/>
      <point x="513" y="1255"/>
      <point x="489" y="1287"/>
      <point x="476" y="1327"/>
    </contour>
  </outline>
</glyph>
<glyph name="Ccedilla" format="2">
  <advance width="1008"/>
  <unicode hex="00C7"/>
  <outline>
    <contour>
      <point x="1029" y="1112" type="line"/>
      <point x="1018" y="1149"/>
      <point x="972" y="1230"/>
      <point x="904" y="1298"/>
      <point x="813" y="1342"/>
      <point x="756" y="1342" type="qcurve"/>
      <point x="704" y="1342"/>
      <point x="595" y="1292"/>
      <point x="491" y="1197"/>
      <point x="399" y="1060"/>
      <point x="330" y="888"/>
      <point x="290" y="684"/>
      <point x="290" y="569" type="qcurve"/>
      <point x="290" y="450"/>
      <point x="341" y="272"/>
      <point x="425" y="152"/>
      <point x="533" y="92"/>
      <point x="591" y="92" type="qcurve"/>
      <point x="648" y="92"/>
      <point x="746" y="137"/>
      <point x="827" y="205"/>
      <point x="890" y="286"/>
      <point x="910" y="322" type="qcurve"/>
      <point x="998" y="204" type="line"/>
      <point x="958" y="157"/>
      <point x="876" y="77"/>
      <point x="784" y="15"/>
      <point x="678" y="-23"/>
      <point x="615" y="-28" type="qcurve"/>
      <point x="587" y="-110" type="line"/>
      <point x="605" y="-110"/>
      <point x="641" y="-132"/>
      <point x="671" y="-175"/>
      <point x="689" y="-240"/>
      <point x="689" y="-283" type="qcurve"/>
      <point x="689" y="-334"/>
      <point x="658" y="-411"/>
      <point x="610" y="-463"/>
      <point x="550" y="-490"/>
      <point x="522" y="-490" type="qcurve"/>
      <point x="496" y="-490"/>
      <point x="454" y="-476"/>
      <point x="422" y="-456"/>
      <point x="401" y="-433"/>
      <point x="394" y="-423" type="qcurve"/>
      <point x="434" y="-347" type="line"/>
      <point x="446" y="-373"/>
      <point x="489" y="-408"/>
      <point x="511" y="-408" type="qcurve"/>
      <point x="551" y="-408"/>
      <point x="598" y="-342"/>
      <point x="598" y="-288" type="qcurve"/>
      <point x="598" y="-266"/>
      <point x="584" y="-229"/>
      <point x="563" y="-204"/>
      <point x="536" y="-190"/>
      <point x="523" y="-190" type="qcurve"/>
      <point x="503" y="-190"/>
      <point x="470" y="-201"/>
      <point x="461" y="-206" type="qcurve"/>
      <point x="524" y="-26" type="line"/>
      <point x="445" y="-15"/>
      <point x="307" y="76"/>
      <point x="204" y="228"/>
      <point x="146" y="437"/>
      <point x="146" y="566" type="qcurve"/>
      <point x="146" y="694"/>
      <point x="193" y="927"/>
      <point x="276" y="1127"/>
      <point x="392" y="1288"/>
      <point x="527" y="1402"/>
      <point x="679" y="1464"/>
      <point x="758" y="1464" type="qcurve"/>
      <point x="815" y="1464"/>
      <point x="919" y="1429"/>
      <point x="1010" y="1366"/>
      <point x="1086" y="1281"/>
      <point x="1118" y="1230" type="qcurve"/>
    </contour>
  </outline>
</glyph>
<glyph name="multiply" format="2">
  <advance width="864"/>
  <unicode hex="00D7"/>
  <outline>
    <contour>
      <point x="259" y="888" type="line"/>
      <point x="335" y="974" type="line"/>
      <point x="521" y="673" type="line"/>
      <point x="786" y="974" type="line"/>
      <point x="839" y="888" type="line"/>
      <point x="574" y="587" type="line"/>
      <point x="760" y="286" type="line"/>
      <point x="684" y="200" type="line"/>
      <point x="498" y="501" type="line"/>
      <point x="233" y="200" type="line"/>
      <point x="179" y="286" type="line"/>
      <point x="445" y="587" type="line"/>
    </contour>
  </outline>
</glyph>
<glyph name="Oslash" format="2">
  <advance width="1200"/>
  <unicode hex="00D8"/>
  <outline>
    <contour>
      <point x="786" y="1464" type="qcurve"/>
      <point x="830" y="1464"/>
      <point x="917" y="1442"/>
      <point x="965" y="1416" type="qcurve"/>
      <point x="1033" y="1559" type="line"/>
      <point x="1136" y="1529" type="line"/>
      <point x="1052" y="1351" type="line"/>
      <point x="1097" y="1307"/>
      <point x="1163" y="1198"/>
      <point x="1208" y="1073"/>
      <point x="1229" y="936"/>
      <point x="1229" y="864" type="qcurve"/>
      <point x="1229" y="736"/>
      <point x="1179" y="504"/>
      <point x="1091" y="305"/>
      <point x="971" y="144"/>
      <point x="832" y="31"/>
      <point x="680" y="-30"/>
      <point x="603" y="-30" type="qcurve"/>
      <point x="584" y="-30"/>
      <point x="535" y="-23"/>
      <point x="485" y="-11"/>
      <point x="439" y="7"/>
      <point x="423" y="18" type="qcurve"/>
      <point x="356" y="-125" type="line"/>
      <point x="253" y="-95" type="line"/>
      <point x="336" y="82" type="line"/>
      <point x="293" y="126"/>
      <point x="227" y="236"/>
      <point x="182" y="361"/>
      <point x="160" y="498"/>
      <point x="160" y="570" type="qcurve"/>
      <point x="160" y="695"/>
      <point x="207" y="925"/>
      <point x="292" y="1124"/>
      <point x="409" y="1286"/>
      <point x="548" y="1401"/>
      <point x="704" y="1464"/>
    </contour>
    <contour>
      <point x="612" y="92" type="qcurve"/>
      <point x="668" y="92"/>
      <point x="781" y="143"/>
      <point x="886" y="239"/>
      <point x="977" y="377"/>
      <point x="1046" y="549"/>
      <point x="1085" y="755"/>
      <point x="1085" y="870" type="qcurve"/>
      <point x="1085" y="968"/>
      <point x="1041" y="1153"/>
      <point x="992" y="1222" type="qcurve"/>
      <point x="477" y="133" type="line"/>
      <point x="508" y="113"/>
      <point x="578" y="92"/>
    </contour>
    <contour>
      <point x="777" y="1342" type="qcurve"/>
      <point x="717" y="1342"/>
      <point x="600" y="1287"/>
      <point x="495" y="1186"/>
      <point x="406" y="1045"/>
      <point x="341" y="872"/>
      <point x="304" y="672"/>
      <point x="304" y="564" type="qcurve"/>
      <point x="304" y="464"/>
      <point x="347" y="282"/>
      <point x="397" y="211" type="qcurve"/>
      <point x="911" y="1301" type="line"/>
      <point x="870" y="1326"/>
      <point x="806" y="1342"/>
    </contour>
  </outline>
</glyph>
<glyph name="germandbls" format="2">
  <advance width="864"/>
  <unicode hex="00DF"/>
  <outline>
    <contour>
      <point x="404" y="72" type="line"/>
      <point x="476" y="72"/>
      <point x="598" y="114"/>
      <point x="686" y="195"/>
      <point x="737" y="315"/>
      <point x="737" y="392" type="qcurve"/>
      <point x="737" y="443"/>
      <point x="702" y="518"/>
      <point x="651" y="579"/>
      <point x="591" y="633"/>
      <point x="540" y="695"/>
      <point x="506" y="771"/>
      <point x="506" y="824" type="qcurve"/>
      <point x="506" y="878"/>
      <point x="540" y="965"/>
      <point x="591" y="1042"/>
      <point x="651" y="1114"/>
      <point x="702" y="1191"/>
      <point x="737" y="1278"/>
      <point x="737" y="1332" type="qcurve"/>
      <point x="737" y="1359"/>
      <point x="721" y="1407"/>
      <point x="692" y="1443"/>
      <point x="651" y="1464"/>
      <point x="626" y="1464" type="qcurve"/>
      <point x="586" y="1464"/>
      <point x="504" y="1407"/>
      <point x="432" y="1292"/>
      <point x="376" y="1118"/>
      <point x="360" y="1001" type="qcurve"/>
      <point x="228" y="0" type="line"/>
      <point x="107" y="0" type="line"/>
      <point x="244" y="1039" type="line"/>
      <point x="259" y="1153"/>
      <point x="339" y="1347"/>
      <point x="449" y="1487"/>
      <point x="579" y="1566"/>
      <point x="644" y="1566" type="qcurve"/>
      <point x="691" y="1566"/>
      <point x="764" y="1529"/>
      <point x="816" y="1468"/>
      <point x="844" y="1389"/>
      <point x="844" y="1347" type="qcurve"/>
      <point x="844" y="1286"/>
      <point x="808" y="1191"/>
      <point x="755" y="1113"/>
      <point x="692" y="1047"/>
      <point x="639" y="985"/>
      <point x="603" y="922"/>
      <point x="603" y="886" type="qcurve"/>
      <point x="603" y="850"/>
      <point x="641" y="788"/>
      <point x="698" y="727"/>
      <point x="764" y="662"/>
      <point x="821" y="581"/>
      <point x="859" y="480"/>
      <point x="859" y="415" type="qcurve"/>
      <point x="859" y="322"/>
      <point x="808" y="162"/>
      <point x="749" y="101" type="qcurve"/>
      <point x="692" y="40"/>
      <point x="509" y="-30"/>
      <point x="390" y="-30" type="qcurve"/>
    </contour>
  </outline>
</glyph>
<glyph name="ccedilla" format="2">
  <advance width="768"/>
  <unicode hex="00E7"/>
  <outline>
    <contour>
      <point x="742" y="747" type="line"/>
      <point x="735" y="768"/>
      <point x="703" y="822"/>
      <point x="655" y="869"/>
      <point x="592" y="902"/>
      <point x="554" y="902" type="qcurve"/>
      <point x="512" y="902"/>
      <point x="434" y="861"/>
      <point x="366" y="789"/>
      <point x="310" y="691"/>
      <point x="269" y="577"/>
      <point x="248" y="451"/>
      <point x="248" y="387" type="qcurve"/>
      <point x="248" y="319"/>
      <point x="275" y="203"/>
      <point x="326" y="119"/>
      <point x="398" y="72"/>
      <point x="444" y="72" type="qcurve"/>
      <point x="482" y="72"/>
      <point x="550" y="105"/>
      <point x="605" y="152"/>
      <point x="647" y="206"/>
      <point x="660" y="227" type="qcurve"/>
      <point x="737" y="125" type="line"/>
      <point x="679" y="57"/>
      <point x="545" y="-18"/>
      <point x="473" y="-28" type="qcurve"/>
      <point x="444" y="-110" type="line"/>
      <point x="462" y="-110"/>
      <point x="498" y="-132"/>
      <point x="528" y="-175"/>
      <point x="547" y="-240"/>
      <point x="547" y="-283" type="qcurve"/>
      <point x="547" y="-334"/>
      <point x="515" y="-411"/>
      <point x="467" y="-463"/>
      <point x="407" y="-490"/>
      <point x="380" y="-490" type="qcurve"/>
      <point x="353" y="-490"/>
      <point x="311" y="-476"/>
      <point x="280" y="-456"/>
      <point x="258" y="-433"/>
      <point x="251" y="-423" type="qcurve"/>
      <point x="292" y="-347" type="line"/>
      <point x="304" y="-373"/>
      <point x="347" y="-408"/>
      <point x="368" y="-408" type="qcurve"/>
      <point x="409" y="-408"/>
      <point x="455" y="-342"/>
      <point x="455" y="-288" type="qcurve"/>
      <point x="455" y="-266"/>
      <point x="442" y="-229"/>
      <point x="421" y="-204"/>
      <point x="394" y="-190"/>
      <point x="380" y="-190" type="qcurve"/>
      <point x="361" y="-190"/>
      <point x="327" y="-201"/>
      <point x="318" y="-206" type="qcurve"/>
      <point x="382" y="-26" type="line"/>
      <point x="320" y="-14"/>
      <point x="223" y="57"/>
      <point x="155" y="166"/>
      <point x="119" y="306"/>
      <point x="119" y="386" type="qcurve"/>
      <point x="119" y="470"/>
      <point x="151" y="627"/>
      <point x="210" y="765"/>
      <point x="291" y="878"/>
      <point x="389" y="959"/>
      <point x="501" y="1004"/>
      <point x="560" y="1004" type="qcurve"/>
      <point x="608" y="1004"/>
      <point x="689" y="976"/>
      <point x="755" y="932"/>
      <point x="803" y="877"/>
      <point x="818" y="849" type="qcurve"/>
    </contour>
  </outline>
</glyph>
<glyph name="divide" format="2">
  <advance width="864"/>
  <unicode hex="00F7"/>
  <outline>
    <contour>
      <point x="197" y="548" type="line"/>
      <point x="812" y="548" type="line"/>
      <point x="796" y="426" type="line"/>
      <point x="181" y="426" type="line"/>
    </contour>
    <contour>
      <point x="353" y="93" type="qcurve"/>
      <point x="353" y="118"/>
      <point x="367" y="163"/>
      <point x="392" y="197"/>
      <point x="425" y="216"/>
      <point x="445" y="216" type="qcurve"/>
      <point x="464" y="216"/>
      <point x="497" y="197"/>
      <point x="522" y="163"/>
      <point x="537" y="118"/>
      <point x="537" y="93" type="qcurve"/>
      <point x="537" y="68"/>
      <point x="522" y="23"/>
      <point x="497" y="-10"/>
      <point x="464" y="-30"/>
      <point x="445" y="-30" type="qcurve"/>
      <point x="425" y="-30"/>
      <point x="392" y="-10"/>
      <point x="367" y="23"/>
      <point x="353" y="68"/>
    </contour>
    <contour>
      <point x="457" y="881" type="qcurve"/>
      <point x="457" y="906"/>
      <point x="471" y="951"/>
      <point x="497" y="984"/>
      <point x="530" y="1004"/>
      <point x="549" y="1004" type="qcurve"/>
      <point x="568" y="1004"/>
      <point x="602" y="984"/>
      <point x="626" y="951"/>
      <point x="641" y="906"/>
      <point x="641" y="881" type="qcurve"/>
      <point x="641" y="855"/>
      <point x="626" y="811"/>
      <point x="602" y="777"/>
      <point x="568" y="758"/>
      <point x="549" y="758" type="qcurve"/>
      <point x="530" y="758"/>
      <point x="497" y="777"/>
      <point x="471" y="811"/>
      <point x="457" y="855"/>
    </contour>
  </outline>
</glyph>
<glyph name="oslash" format="2">
  <advance width="840"/>
  <unicode hex="00F8"/>
  <outline>
    <contour>
      <point x="553" y="1004" type="qcurve"/>
      <point x="622" y="1004"/>
      <point x="678" y="974" type="qcurve"/>
      <point x="740" y="1099" type="line"/>
      <point x="813" y="1069" type="line"/>
      <point x="743" y="926" type="line"/>
      <point x="803" y="867"/>
      <point x="857" y="692"/>
      <point x="857" y="596" type="qcurve"/>
      <point x="857" y="469"/>
      <point x="788" y="242"/>
      <point x="667" y="71"/>
      <point x="506" y="-30"/>
      <point x="416" y="-30" type="qcurve"/>
      <point x="345" y="-30"/>
      <point x="289" y="0" type="qcurve"/>
      <point x="228" y="-125" type="line"/>
      <point x="155" y="-95" type="line"/>
      <point x="224" y="46" type="line"/>
      <point x="166" y="110"/>
      <point x="111" y="284"/>
      <point x="111" y="381" type="qcurve"/>
      <point x="111" y="507"/>
      <point x="182" y="734"/>
      <point x="302" y="904"/>
      <point x="463" y="1004"/>
    </contour>
    <contour>
      <point x="339" y="101" type="line"/>
      <point x="386" y="72"/>
      <point x="429" y="72" type="qcurve"/>
      <point x="471" y="72"/>
      <point x="548" y="113"/>
      <point x="614" y="185"/>
      <point x="668" y="284"/>
      <point x="707" y="398"/>
      <point x="728" y="524"/>
      <point x="728" y="588" type="qcurve"/>
      <point x="728" y="648"/>
      <point x="707" y="756"/>
      <point x="683" y="804" type="qcurve"/>
    </contour>
    <contour>
      <point x="539" y="902" type="qcurve"/>
      <point x="476" y="902"/>
      <point x="366" y="811"/>
      <point x="286" y="663"/>
      <point x="240" y="477"/>
      <point x="240" y="381" type="qcurve"/>
      <point x="240" y="321"/>
      <point x="261" y="213"/>
      <point x="284" y="168" type="qcurve"/>
      <point x="628" y="871" type="line"/>
      <point x="608" y="888"/>
      <point x="562" y="902"/>
    </contour>
  </outline>
</glyph>
<glyph name="dcroat" format="2">
  <advance width="840"/>
  <unicode hex="0111"/>
  <outline>
    <contour>
      <point x="807" y="1464" type="line"/>
      <point x="910" y="1494" type="line"/>
      <point x="932" y="1494" type="line"/>
      <point x="905" y="1290" type="line"/>
      <point x="1011" y="1290" type="line"/>
      <point x="993" y="1158" type="line"/>
      <point x="889" y="1165" type="line"/>
      <point x="758" y="179" type="line"/>
      <point x="757" y="167"/>
      <point x="755" y="147"/>
      <point x="755" y="138" type="qcurve"/>
      <point x="755" y="105"/>
      <point x="778" y="72"/>
      <point x="803" y="72" type="qcurve"/>
      <point x="789" y="-30" type="line"/>
      <point x="712" y="-30"/>
      <point x="640" y="60"/>
      <point x="640" y="142" type="qcurve"/>
      <point x="632" y="142" type="line"/>
      <point x="614" y="114"/>
      <point x="565" y="54"/>
      <point x="503" y="3"/>
      <point x="428" y="-30"/>
      <point x="382" y="-30" type="qcurve"/>
      <point x="328" y="-30"/>
      <point x="232" y="23"/>
      <point x="160" y="124"/>
      <point x="118" y="271"/>
      <point x="118" y="366" type="qcurve"/>
      <point x="118" y="446"/>
      <point x="149" y="603"/>
      <point x="203" y="745"/>
      <point x="279" y="866"/>
      <point x="370" y="954"/>
      <point x="472" y="1004"/>
      <point x="526" y="1004" type="qcurve"/>
      <point x="558" y="1004"/>
      <point x="617" y="986"/>
      <point x="669" y="957"/>
      <point x="710" y="921"/>
      <point x="725" y="902" type="qcurve"/>
      <point x="733" y="902" type="line"/>
      <point x="769" y="1174" type="line"/>
      <point x="587" y="1188" type="line"/>
      <point x="601" y="1290" type="line"/>
      <point x="784" y="1290" type="line"/>
    </contour>
    <contour>
      <point x="717" y="785" type="line"/>
      <point x="706" y="806"/>
      <point x="672" y="848"/>
      <point x="627" y="881"/>
      <point x="570" y="902"/>
      <point x="536" y="902" type="qcurve"/>
      <point x="496" y="902"/>
      <point x="422" y="860"/>
      <point x="358" y="787"/>
      <point x="305" y="685"/>
      <point x="268" y="566"/>
      <point x="247" y="432"/>
      <point x="247" y="363" type="qcurve"/>
      <point x="247" y="285"/>
      <point x="275" y="174"/>
      <point x="323" y="104"/>
      <point x="385" y="72"/>
      <point x="418" y="72" type="qcurve"/>
      <point x="453" y="72"/>
      <point x="518" y="105"/>
      <point x="577" y="158"/>
      <point x="628" y="227"/>
      <point x="648" y="263" type="qcurve"/>
    </contour>
  </outline>
</glyph>
<glyph name="Eogonek" format="2">
  <advance width="816"/>
  <unicode hex="0118"/>
  <outline>
    <contour>
      <point x="326" y="1434" type="line"/>
      <point x="910" y="1434" type="line"/>
      <point x="891" y="1292" type="line"/>
      <point x="446" y="1312" type="line"/>
      <point x="383" y="839" type="line"/>
      <point x="754" y="839" type="line"/>
      <point x="737" y="717" type="line"/>
      <point x="368" y="717" type="line"/>
      <point x="289" y="122" type="line"/>
      <point x="758" y="142" type="line"/>
      <point x="740" y="0" type="line"/>
      <point x="692" y="0" type="line"/>
      <point x="659" y="-26"/>
      <point x="602" y="-82"/>
      <point x="560" y="-142"/>
      <point x="536" y="-207"/>
      <point x="536" y="-241" type="qcurve"/>
      <point x="536" y="-279"/>
      <point x="569" y="-328"/>
      <point x="593" y="-328" type="qcurve"/>
      <point x="609" y="-328"/>
      <point x="633" y="-318"/>
      <point x="652" y="-302" type="qcurve"/>
      <point x="666" y="-412" type="line"/>
      <point x="635" y="-429"/>
      <point x="593" y="-440"/>
      <point x="572" y="-440" type="qcurve"/>
      <point x="541" y="-440"/>
      <point x="493" y="-414"/>
      <point x="461" y="-369"/>
      <point x="444" y="-307"/>
      <point x="444" y="-272" type="qcurve"/>
      <point x="444" y="-193"/>
      <point x="492" y="-116" type="qcurve"/>
      <point x="533" y="-52"/>
      <point x="610" y="0" type="qcurve"/>
      <point x="137" y="0" type="line"/>
    </contour>
  </outline>
</glyph>
<glyph name="Hbar" format="2">
  <advance width="1128"/>
  <unicode hex="0126"/>
  <outline>
    <contour>
      <point x="467" y="1464" type="line"/>
      <point x="430" y="1188" type="line"/>
      <point x="1011" y="1188" type="line"/>
      <point x="1044" y="1434" type="line"/>
      <point x="1185" y="1464" type="line"/>
      <point x="1148" y="1188" type="line"/>
      <point x="1206" y="1188" type="line"/>
      <point x="1190" y="1066" type="line"/>
      <point x="1133" y="1066" type="line"/>
      <point x="992" y="0" type="line"/>
      <point x="855" y="0" type="line"/>
      <point x="950" y="717" type="line"/>
      <point x="368" y="717" type="line"/>
      <point x="273" y="0" type="line"/>
      <point x="137" y="0" type="line"/>
      <point x="277" y="1066" type="line"/>
      <point x="218" y="1066" type="line"/>
      <point x="234" y="1188" type="line"/>
      <point x="293" y="1188" type="line"/>
      <point x="326" y="1434" type="line"/>
    </contour>
    <contour>
      <point x="965" y="839" type="line"/>
      <point x="995" y="1066" type="line"/>
      <point x="413" y="1066" type="line"/>
      <point x="383" y="839" type="line"/>
    </contour>
  </outline>
</glyph>
<glyph name="hbar" format="2">
  <advance width="840"/>
  <unicode hex="0127"/>
  <outline>
    <contour>
      <point x="185" y="1290" type="line"/>
      <point x="284" y="1290" type="line"/>
      <point x="308" y="1464" type="line"/>
      <point x="410" y="1494" type="line"/>
      <point x="433" y="1494" type="line"/>
      <point x="406" y="1290" type="line"/>
      <point x="595" y="1290" type="line"/>
      <point x="577" y="1158" type="line"/>
      <point x="390" y="1171" type="line"/>
      <point x="346" y="837" type="line"/>
      <point x="353" y="837" type="line"/>
      <point x="412" y="916"/>
      <point x="542" y="1004"/>
      <point x="622" y="1004" type="qcurve"/>
      <point x="668" y="1004"/>
      <point x="742" y="972"/>
      <point x="794" y="911"/>
      <point x="824" y="821"/>
      <point x="824" y="764" type="qcurve"/>
      <point x="824" y="733"/>
      <point x="819" y="697" type="qcurve"/>
      <point x="753" y="196" type="line"/>
      <point x="749" y="163"/>
      <point x="749" y="140" type="qcurve"/>
      <point x="749" y="104"/>
      <point x="771" y="72"/>
      <point x="795" y="72" type="qcurve"/>
      <point x="782" y="-30" type="line"/>
      <point x="731" y="-30"/>
      <point x="679" y="-4"/>
      <point x="645" y="43"/>
      <point x="630" y="109"/>
      <point x="630" y="149" type="qcurve"/>
      <point x="630" y="184"/>
      <point x="636" y="227" type="qcurve"/>
      <point x="698" y="697" type="line"/>
      <point x="701" y="720"/>
      <point x="701" y="745" type="qcurve"/>
      <point x="701" y="817"/>
      <point x="639" y="902"/>
      <point x="584" y="902" type="qcurve"/>
      <point x="546" y="902"/>
      <point x="475" y="869"/>
      <point x="410" y="812"/>
      <point x="352" y="738"/>
      <point x="327" y="696" type="qcurve"/>
      <point x="236" y="0" type="line"/>
      <point x="114" y="0" type="line"/>
      <point x="270" y="1180" type="line"/>
      <point x="171" y="1188" type="line"/>
    </contour>
  </outline>
</glyph>
<glyph name="dotlessi" format="2">
  <advance width="432"/>
  <unicode hex="0131"/>
  <outline>
    <contour>
      <point x="155" y="0" type="line"/>
      <point x="284" y="974" type="line"/>
      <point x="387" y="1004" type="line"/>
      <point x="410" y="1004" type="line"/>
      <point x="277" y="0" type="line"/>
    </contour>
  </outline>
</glyph>
<glyph name="jcircumflex" format="2">
  <advance width="432"/>
  <unicode hex="0135"/>
  <outline>
    <contour>
      <point x="284" y="974" type="line"/>
      <point x="387" y="1004" type="line"/>
      <point x="410" y="1004" type="line"/>
      <point x="266" y="-77" type="line"/>
      <point x="251" y="-196"/>
      <point x="193" y="-354"/>
      <point x="112" y="-450"/>
      <point x="8" y="-490"/>
      <point x="-54" y="-490" type="qcurve"/>
      <point x="-41" y="-388" type="line"/>
      <point x="36" y="-388"/>
      <point x="119" y="-270"/>
      <point x="135" y="-152" type="qcurve"/>
    </contour>
    <contour>
      <point x="595" y="1249" type="line"/>
      <point x="515" y="1219" type="line"/>
      <point x="404" y="1434" type="line"/>
      <point x="396" y="1434" type="line"/>
      <point x="227" y="1219" type="line"/>
      <point x="155" y="1249" type="line"/>
      <point x="353" y="1537" type="line"/>
      <point x="474" y="1537" type="line"/>
    </contour>
  </outline>
</glyph>
<glyph name="kgreenlandic" format="2">
  <advance width="768"/>
  <unicode hex="0138"/>
  <outline>
    <contour>
      <point x="757" y="0" type="line"/>
      <point x="614" y="-30" type="line"/>
      <point x="371" y="477" type="line"/>
      <point x="363" y="477" type="line"/>
      <point x="287" y="390" type="line"/>
      <point x="236" y="0" type="line"/>
      <point x="114" y="0" type="line"/>
      <point x="242" y="974" type="line"/>
      <point x="346" y="1004" type="line"/>
      <point x="368" y="1004" type="line"/>
      <point x="308" y="546" type="line"/>
      <point x="315" y="546" type="line"/>
      <point x="712" y="1004" type="line"/>
      <point x="803" y="974" type="line"/>
      <point x="446" y="571" type="line"/>
    </contour>
  </outline>
</glyph>
<glyph name="Eng" format="2">
  <advance width="1128"/>
  <unicode hex="014A"/>
  <outline>
    <contour>
      <point x="417" y="1464" type="line"/>
      <point x="943" y="306" type="line"/>
      <point x="950" y="306" type="line"/>
      <point x="1103" y="1464" type="line"/>
      <point x="1192" y="1434" type="line"/>
      <point x="992" y="-77" type="line"/>
      <point x="976" y="-196"/>
      <point x="918" y="-354"/>
      <point x="837" y="-450"/>
      <point x="733" y="-490"/>
      <point x="671" y="-490" type="qcurve"/>
      <point x="685" y="-388" type="line"/>
      <point x="761" y="-388"/>
      <point x="845" y="-270"/>
      <point x="860" y="-152" type="qcurve"/>
      <point x="887" y="52" type="line"/>
      <point x="384" y="1159" type="line"/>
      <point x="377" y="1159" type="line"/>
      <point x="224" y="0" type="line"/>
      <point x="132" y="0" type="line"/>
      <point x="321" y="1434" type="line"/>
    </contour>
  </outline>
</glyph>
<glyph name="oe" format="2">
  <advance width="1368"/>
  <unicode hex="0153"/>
  <outline>
    <contour>
      <point x="552" y="1004" type="qcurve"/>
      <point x="652" y="1004"/>
      <point x="786" y="894"/>
      <point x="823" y="797" type="qcurve"/>
      <point x="887" y="894"/>
      <point x="1048" y="1004"/>
      <point x="1136" y="1004" type="qcurve"/>
      <point x="1190" y="1004"/>
      <point x="1284" y="960"/>
      <point x="1355" y="868"/>
      <point x="1395" y="726"/>
      <point x="1395" y="629" type="qcurve"/>
      <point x="1395" y="597"/>
      <point x="1391" y="526"/>
      <point x="1385" y="487" type="qcurve"/>
      <point x="848" y="487" type="line"/>
      <point x="844" y="455"/>
      <point x="840" y="396"/>
      <point x="840" y="369" type="qcurve"/>
      <point x="840" y="288"/>
      <point x="873" y="175"/>
      <point x="929" y="104"/>
      <point x="1001" y="72"/>
      <point x="1041" y="72" type="qcurve"/>
      <point x="1077" y="72"/>
      <point x="1142" y="103"/>
      <point x="1196" y="149"/>
      <point x="1239" y="203"/>
      <point x="1253" y="227" type="qcurve"/>
      <point x="1331" y="125" type="line"/>
      <point x="1316" y="106"/>
      <point x="1259" y="53"/>
      <point x="1181" y="4"/>
      <point x="1082" y="-30"/>
      <point x="1024" y="-30" type="qcurve"/>
      <point x="814" y="-30"/>
      <point x="741" y="177" type="qcurve"/>
      <point x="677" y="80"/>
      <point x="515" y="-30"/>
      <point x="415" y="-30" type="qcurve"/>
      <point x="344" y="-30"/>
      <point x="232" y="30"/>
      <point x="153" y="139"/>
      <point x="111" y="290"/>
      <point x="111" y="381" type="qcurve"/>
      <point x="111" y="465"/>
      <point x="143" y="623"/>
      <point x="201" y="762"/>
      <point x="282" y="876"/>
      <point x="380" y="959"/>
      <point x="492" y="1004"/>
    </contour>
    <contour>
      <point x="539" y="902" type="qcurve"/>
      <point x="475" y="902"/>
      <point x="366" y="811"/>
      <point x="286" y="663"/>
      <point x="241" y="476"/>
      <point x="241" y="380" type="qcurve"/>
      <point x="241" y="313"/>
      <point x="266" y="200"/>
      <point x="314" y="118"/>
      <point x="383" y="72"/>
      <point x="428" y="72" type="qcurve"/>
      <point x="470" y="72"/>
      <point x="547" y="113"/>
      <point x="613" y="185"/>
      <point x="668" y="284"/>
      <point x="707" y="398"/>
      <point x="728" y="524"/>
      <point x="728" y="588" type="qcurve"/>
      <point x="728" y="655"/>
      <point x="702" y="770"/>
      <point x="653" y="854"/>
      <point x="583" y="902"/>
    </contour>
    <contour>
      <point x="1285" y="589" type="line"/>
      <point x="1289" y="620"/>
      <point x="1289" y="652" type="qcurve"/>
      <point x="1289" y="703"/>
      <point x="1267" y="793"/>
      <point x="1223" y="862"/>
      <point x="1159" y="902"/>
      <point x="1117" y="902" type="qcurve"/>
      <point x="1070" y="902"/>
      <point x="988" y="853"/>
      <point x="921" y="769"/>
      <point x="874" y="655"/>
      <point x="862" y="589" type="qcurve"/>
    </contour>
  </outline>
</glyph>
<glyph name="Tcommaaccent" format="2">
  <advance width="864"/>
  <unicode hex="0162"/>
  <outline>
    <contour>
      <point x="213" y="1434" type="line"/>
      <point x="1029" y="1434" type="line"/>
      <point x="1010" y="1292" type="line"/>
      <point x="674" y="1312" type="line"/>
      <point x="500" y="0" type="line"/>
      <point x="462" y="-110" type="line"/>
      <point x="480" y="-110"/>
      <point x="516" y="-132"/>
      <point x="546" y="-175"/>
      <point x="565" y="-240"/>
      <point x="565" y="-283" type="qcurve"/>
      <point x="565" y="-334"/>
      <point x="533" y="-411"/>
      <point x="485" y="-463"/>
      <point x="425" y="-490"/>
      <point x="398" y="-490" type="qcurve"/>
      <point x="371" y="-490"/>
      <point x="329" y="-476"/>
      <point x="298" y="-456"/>
      <point x="276" y="-433"/>
      <point x="269" y="-423" type="qcurve"/>
      <point x="310" y="-347" type="line"/>
      <point x="322" y="-373"/>
      <point x="365" y="-408"/>
      <point x="386" y="-408" type="qcurve"/>
      <point x="427" y="-408"/>
      <point x="473" y="-342"/>
      <point x="473" y="-288" type="qcurve"/>
      <point x="473" y="-266"/>
      <point x="460" y="-229"/>
      <point x="439" y="-204"/>
      <point x="412" y="-190"/>
      <point x="398" y="-190" type="qcurve"/>
      <point x="379" y="-190"/>
      <point x="345" y="-201"/>
      <point x="336" y="-206" type="qcurve"/>
      <point x="409" y="0" type="line"/>
      <point x="364" y="0" type="line"/>
      <point x="537" y="1312" type="line"/>
      <point x="194" y="1292" type="line"/>
    </contour>
  </outline>
</glyph>
<glyph name="tcommaaccent" format="2">
  <advance width="552"/>
  <unicode hex="0163"/>
  <outline>
    <contour>
      <point x="485" y="1322" type="line"/>
      <point x="443" y="1004" type="line"/>
      <point x="604" y="1004" type="line"/>
      <point x="587" y="872" type="line"/>
      <point x="427" y="885" type="line"/>
      <point x="349" y="297" type="line"/>
      <point x="345" y="273"/>
      <point x="341" y="230"/>
      <point x="341" y="211" type="qcurve"/>
      <point x="341" y="176"/>
      <point x="356" y="123"/>
      <point x="389" y="89"/>
      <point x="442" y="72"/>
      <point x="481" y="72" type="qcurve"/>
      <point x="467" y="-30" type="line"/>
      <point x="437" y="-30"/>
      <point x="383" y="-26"/>
      <point x="360" y="-21" type="qcurve"/>
      <point x="330" y="-110" type="line"/>
      <point x="348" y="-110"/>
      <point x="384" y="-132"/>
      <point x="414" y="-175"/>
      <point x="433" y="-240"/>
      <point x="433" y="-283" type="qcurve"/>
      <point x="433" y="-334"/>
      <point x="401" y="-411"/>
      <point x="353" y="-463"/>
      <point x="293" y="-490"/>
      <point x="266" y="-490" type="qcurve"/>
      <point x="239" y="-490"/>
      <point x="197" y="-476"/>
      <point x="166" y="-456"/>
      <point x="144" y="-433"/>
      <point x="137" y="-423" type="qcurve"/>
      <point x="178" y="-347" type="line"/>
      <point x="190" y="-373"/>
      <point x="233" y="-408"/>
      <point x="254" y="-408" type="qcurve"/>
      <point x="295" y="-408"/>
      <point x="341" y="-342"/>
      <point x="341" y="-288" type="qcurve"/>
      <point x="341" y="-266"/>
      <point x="328" y="-229"/>
      <point x="307" y="-204"/>
      <point x="280" y="-190"/>
      <point x="266" y="-190" type="qcurve"/>
      <point x="247" y="-190"/>
      <point x="213" y="-201"/>
      <point x="204" y="-206" type="qcurve"/>
      <point x="281" y="13" type="line"/>
      <point x="251" y="37"/>
      <point x="221" y="122"/>
      <point x="221" y="191" type="qcurve"/>
      <point x="221" y="217"/>
      <point x="225" y="284"/>
      <point x="231" y="326" type="qcurve"/>
      <point x="306" y="893" type="line"/>
      <point x="181" y="902" type="line"/>
      <point x="194" y="1004" type="line"/>
      <point x="321" y="1004" type="line"/>
      <point x="359" y="1292" type="line"/>
      <point x="462" y="1322" type="line"/>
    </contour>
  </outline>
</glyph>
<glyph name="Tbar" format="2">
  <advance width="864"/>
  <unicode hex="0166"/>
  <outline>
    <contour>
      <point x="213" y="1434" type="line"/>
      <point x="1029" y="1434" type="line"/>
      <point x="1010" y="1292" type="line"/>
      <point x="674" y="1312" type="line"/>
      <point x="610" y="829" type="line"/>
      <point x="796" y="829" type="line"/>
      <point x="779" y="707" type="line"/>
      <point x="593" y="707" type="line"/>
      <point x="500" y="0" type="line"/>
      <point x="364" y="0" type="line"/>
      <point x="457" y="707" type="line"/>
      <point x="271" y="707" type="line"/>
      <point x="287" y="829" type="line"/>
      <point x="473" y="829" type="line"/>
      <point x="537" y="1312" type="line"/>
      <point x="194" y="1292" type="line"/>
    </contour>
  </outline>
</glyph>
<glyph name="tbar" format="2">
  <advance width="552"/>
  <unicode hex="0167"/>
  <outline>
    <contour>
      <point x="485" y="1322" type="line"/>
      <point x="443" y="1004" type="line"/>
      <point x="604" y="1004" type="line"/>
      <point x="586" y="872" type="line"/>
      <point x="427" y="885" type="line"/>
      <point x="388" y="588" type="line"/>
      <point x="550" y="588" type="line"/>
      <point x="536" y="486" type="line"/>
      <point x="374" y="486" type="line"/>
      <point x="349" y="297" type="line"/>
      <point x="341" y="240"/>
      <point x="344" y="155"/>
      <point x="372" y="99"/>
      <point x="431" y="72"/>
      <point x="481" y="72" type="qcurve"/>
      <point x="467" y="-30" type="line"/>
      <point x="374" y="-30"/>
      <point x="275" y="8"/>
      <point x="225" y="92"/>
      <point x="218" y="228"/>
      <point x="231" y="326" type="qcurve"/>
      <point x="252" y="486" type="line"/>
      <point x="125" y="486" type="line"/>
      <point x="139" y="588" type="line"/>
      <point x="266" y="588" type="line"/>
      <point x="306" y="893" type="line"/>
      <point x="181" y="902" type="line"/>
      <point x="194" y="1004" type="line"/>
      <point x="321" y="1004" type="line"/>
      <point x="359" y="1292" type="line"/>
      <point x="462" y="1322" type="line"/>
    </contour>
  </outline>
</glyph>
<glyph name="uni0251" format="2">
  <advance width="840"/>
  <unicode hex="0251"/>
  <outline>
    <contour>
      <point x="868" y="1004" type="line"/>
      <point x="758" y="179" type="line"/>
      <point x="757" y="167"/>
      <point x="755" y="147"/>
      <point x="755" y="138" type="qcurve"/>
      <point x="755" y="105"/>
      <point x="778" y="72"/>
      <point x="803" y="72" type="qcurve"/>
      <point x="789" y="-30" type="line"/>
      <point x="732" y="-30"/>
      <point x="677" y="-10"/>
      <point x="646" y="21"/>
      <point x="632" y="57"/>
      <point x="630" y="72" type="qcurve"/>
      <point x="623" y="72" type="line"/>
      <point x="582" y="27"/>
      <point x="484" y="-30"/>
      <point x="416" y="-30" type="qcurve"/>
      <point x="353" y="-30"/>
      <point x="242" y="24"/>
      <point x="159" y="128"/>
      <point x="111" y="279"/>
      <point x="111" y="377" type="qcurve"/>
      <point x="111" y="458"/>
      <point x="143" y="614"/>
      <point x="200" y="753"/>
      <point x="280" y="871"/>
      <point x="378" y="956"/>
      <point x="491" y="1004"/>
      <point x="553" y="1004" type="qcurve"/>
      <point x="585" y="1004"/>
      <point x="638" y="994"/>
      <point x="681" y="976"/>
      <point x="719" y="950"/>
      <point x="737" y="934" type="qcurve"/>
      <point x="845" y="1004" type="line"/>
    </contour>
    <contour>
      <point x="721" y="815" type="line"/>
      <point x="685" y="861"/>
      <point x="598" y="902"/>
      <point x="539" y="902" type="qcurve"/>
      <point x="501" y="902"/>
      <point x="428" y="863"/>
      <point x="361" y="793"/>
      <point x="304" y="697"/>
      <point x="263" y="581"/>
      <point x="239" y="450"/>
      <point x="239" y="381" type="qcurve"/>
      <point x="239" y="297"/>
      <point x="275" y="180"/>
      <point x="330" y="106"/>
      <point x="398" y="72"/>
      <point x="429" y="72" type="qcurve"/>
      <point x="458" y="72"/>
      <point x="512" y="83"/>
      <point x="563" y="108"/>
      <point x="612" y="151"/>
      <point x="638" y="183" type="qcurve"/>
    </contour>
  </outline>
</glyph>
<glyph name="uni0252" format="2">
  <advance width="840"/>
  <unicode hex="0252"/>
  <outline>
    <contour>
      <point x="242" y="0" type="line"/>
      <point x="120" y="0" type="line"/>
      <point x="225" y="795" type="line"/>
      <point x="227" y="807"/>
      <point x="228" y="827"/>
      <point x="228" y="836" type="qcurve"/>
      <point x="228" y="869"/>
      <point x="206" y="902"/>
      <point x="181" y="902" type="qcurve"/>
      <point x="194" y="1004" type="line"/>
      <point x="251" y="1004"/>
      <point x="305" y="967"/>
      <point x="334" y="914"/>
      <point x="344" y="854"/>
      <point x="344" y="832" type="qcurve"/>
      <point x="351" y="832" type="line"/>
      <point x="370" y="860"/>
      <point x="419" y="920"/>
      <point x="480" y="971"/>
      <point x="556" y="1004"/>
      <point x="602" y="1004" type="qcurve"/>
      <point x="656" y="1004"/>
      <point x="752" y="951"/>
      <point x="824" y="850"/>
      <point x="866" y="703"/>
      <point x="866" y="608" type="qcurve"/>
      <point x="866" y="534"/>
      <point x="838" y="382"/>
      <point x="786" y="241"/>
      <point x="713" y="116"/>
      <point x="623" y="24"/>
      <point x="517" y="-30"/>
      <point x="458" y="-30" type="qcurve"/>
      <point x="425" y="-30"/>
      <point x="365" y="-13"/>
      <point x="314" y="15"/>
      <point x="272" y="52"/>
      <point x="258" y="72" type="qcurve"/>
      <point x="251" y="72" type="line"/>
    </contour>
    <contour>
      <point x="266" y="189" type="line"/>
      <point x="278" y="168"/>
      <point x="311" y="126"/>
      <point x="356" y="93"/>
      <point x="413" y="72"/>
      <point x="448" y="72" type="qcurve"/>
      <point x="507" y="72"/>
      <point x="613" y="164"/>
      <point x="692" y="315"/>
      <point x="737" y="510"/>
      <point x="737" y="613" type="qcurve"/>
      <point x="737" y="691"/>
      <point x="708" y="801"/>
      <point x="660" y="870"/>
      <point x="599" y="902"/>
      <point x="566" y="902" type="qcurve"/>
      <point x="530" y="902"/>
      <point x="465" y="869"/>
      <point x="407" y="816"/>
      <point x="356" y="747"/>
      <point x="335" y="711" type="qcurve"/>
    </contour>
  </outline>
</glyph>
<glyph name="uni0254" format="2">
  <advance width="768"/>
  <unicode hex="0254"/>
  <outline>
    <contour>
      <point x="155" y="227" type="line"/>
      <point x="161" y="206"/>
      <point x="194" y="152"/>
      <point x="242" y="105"/>
      <point x="305" y="72"/>
      <point x="342" y="72" type="qcurve"/>
      <point x="408" y="72"/>
      <point x="521" y="161"/>
      <point x="602" y="307"/>
      <point x="649" y="491"/>
      <point x="649" y="587" type="qcurve"/>
      <point x="649" y="655"/>
      <point x="622" y="771"/>
      <point x="571" y="855"/>
      <point x="498" y="902"/>
      <point x="452" y="902" type="qcurve"/>
      <point x="414" y="902"/>
      <point x="347" y="869"/>
      <point x="291" y="822"/>
      <point x="249" y="768"/>
      <point x="236" y="747" type="qcurve"/>
      <point x="160" y="849" type="line"/>
      <point x="184" y="878"/>
      <point x="245" y="933"/>
      <point x="321" y="977"/>
      <point x="412" y="1004"/>
      <point x="466" y="1004" type="qcurve"/>
      <point x="537" y="1004"/>
      <point x="652" y="943"/>
      <point x="734" y="832"/>
      <point x="778" y="680"/>
      <point x="778" y="588" type="qcurve"/>
      <point x="778" y="504"/>
      <point x="746" y="347"/>
      <point x="689" y="209"/>
      <point x="610" y="96"/>
      <point x="513" y="15"/>
      <point x="403" y="-30"/>
      <point x="344" y="-30" type="qcurve"/>
      <point x="296" y="-30"/>
      <point x="212" y="-2"/>
      <point x="144" y="42"/>
      <point x="94" y="97"/>
      <point x="78" y="125" type="qcurve"/>
    </contour>
  </outline>
</glyph>
<glyph name="uni0255" format="2">
  <advance width="768"/>
  <unicode hex="0255"/>
  <outline>
    <contour>
      <point x="742" y="747" type="line"/>
      <point x="735" y="768"/>
      <point x="703" y="822"/>
      <point x="655" y="869"/>
      <point x="592" y="902"/>
      <point x="554" y="902" type="qcurve"/>
      <point x="491" y="902"/>
      <point x="380" y="813"/>
      <point x="296" y="667"/>
      <point x="248" y="483"/>
      <point x="248" y="387" type="qcurve"/>
      <point x="248" y="329"/>
      <point x="259" y="271" type="qcurve"/>
      <point x="317" y="338"/>
      <point x="420" y="422"/>
      <point x="506" y="470"/>
      <point x="572" y="487"/>
      <point x="594" y="487" type="qcurve"/>
      <point x="632" y="487"/>
      <point x="689" y="459"/>
      <point x="726" y="411"/>
      <point x="745" y="348"/>
      <point x="745" y="312" type="qcurve"/>
      <point x="745" y="229"/>
      <point x="683" y="102"/>
      <point x="588" y="15"/>
      <point x="474" y="-30"/>
      <point x="422" y="-30" type="qcurve"/>
      <point x="358" y="-30"/>
      <point x="245" y="31"/>
      <point x="202" y="88" type="qcurve"/>
      <point x="185" y="68"/>
      <point x="149" y="25"/>
      <point x="113" y="-16"/>
      <point x="82" y="-53"/>
      <point x="71" y="-67" type="qcurve"/>
      <point x="-4" y="-30" type="line"/>
      <point x="161" y="162" type="line"/>
      <point x="140" y="210"/>
      <point x="118" y="318"/>
      <point x="118" y="381" type="qcurve"/>
      <point x="118" y="504"/>
      <point x="181" y="729"/>
      <point x="297" y="901"/>
      <point x="460" y="1004"/>
      <point x="560" y="1004" type="qcurve"/>
      <point x="603" y="1004"/>
      <point x="683" y="976"/>
      <point x="750" y="932"/>
      <point x="803" y="877"/>
      <point x="818" y="849" type="qcurve"/>
    </contour>
    <contour>
      <point x="287" y="185" type="qcurve"/>
      <point x="317" y="131"/>
      <point x="392" y="72"/>
      <point x="444" y="72" type="qcurve"/>
      <point x="481" y="72"/>
      <point x="559" y="100"/>
      <point x="624" y="154"/>
      <point x="666" y="234"/>
      <point x="666" y="286" type="qcurve"/>
      <point x="666" y="308"/>
      <point x="652" y="345"/>
      <point x="627" y="371"/>
      <point x="594" y="385"/>
      <point x="575" y="385" type="qcurve"/>
      <point x="554" y="385"/>
      <point x="502" y="371"/>
      <point x="434" y="329"/>
      <point x="346" y="250"/>
    </contour>
  </outline>
</glyph>
<glyph name="uni0256" format="2">
  <advance width="840"/>
  <unicode hex="0256"/>
  <outline>
    <contour>
      <point x="807" y="1464" type="line"/>
      <point x="910" y="1494" type="line"/>
      <point x="932" y="1494" type="line"/>
      <point x="713" y="-163" type="line"/>
      <point x="707" y="-211"/>
      <point x="707" y="-249" type="qcurve"/>
      <point x="707" y="-284"/>
      <point x="721" y="-337"/>
      <point x="753" y="-371"/>
      <point x="806" y="-388"/>
      <point x="832" y="-388" type="qcurve"/>
      <point x="818" y="-490" type="line"/>
      <point x="754" y="-490"/>
      <point x="665" y="-466"/>
      <point x="610" y="-413"/>
      <point x="585" y="-329"/>
      <point x="585" y="-269" type="qcurve"/>
      <point x="585" y="-213"/>
      <point x="596" y="-134" type="qcurve"/>
      <point x="632" y="142" type="line"/>
      <point x="614" y="114"/>
      <point x="565" y="54"/>
      <point x="503" y="3"/>
      <point x="428" y="-30"/>
      <point x="382" y="-30" type="qcurve"/>
      <point x="328" y="-30"/>
      <point x="232" y="23"/>
      <point x="160" y="124"/>
      <point x="118" y="271"/>
      <point x="118" y="366" type="qcurve"/>
      <point x="118" y="440"/>
      <point x="146" y="592"/>
      <point x="197" y="733"/>
      <point x="270" y="858"/>
      <point x="361" y="950"/>
      <point x="467" y="1004"/>
      <point x="526" y="1004" type="qcurve"/>
      <point x="558" y="1004"/>
      <point x="617" y="986"/>
      <point x="669" y="957"/>
      <point x="710" y="921"/>
      <point x="725" y="902" type="qcurve"/>
      <point x="733" y="902" type="line"/>
    </contour>
    <contour>
      <point x="717" y="785" type="line"/>
      <point x="706" y="806"/>
      <point x="672" y="848"/>
      <point x="627" y="881"/>
      <point x="570" y="902"/>
      <point x="536" y="902" type="qcurve"/>
      <point x="496" y="902"/>
      <point x="422" y="860"/>
      <point x="357" y="787"/>
      <point x="305" y="685"/>
      <point x="266" y="566"/>
      <point x="245" y="432"/>
      <point x="245" y="363" type="qcurve"/>
      <point x="245" y="285"/>
      <point x="275" y="174"/>
      <point x="323" y="104"/>
      <point x="385" y="72"/>
      <point x="418" y="72" type="qcurve"/>
      <point x="453" y="72"/>
      <point x="518" y="105"/>
      <point x="577" y="158"/>
      <point x="628" y="227"/>
      <point x="648" y="263" type="qcurve"/>
    </contour>
  </outline>
</glyph>
<glyph name="uni0257" format="2">
  <advance width="840"/>
  <unicode hex="0257"/>
  <outline>
    <contour>
      <point x="1073" y="1464" type="qcurve"/>
      <point x="1060" y="1362" type="line"/>
      <point x="1017" y="1361"/>
      <point x="956" y="1325"/>
      <point x="915" y="1262"/>
      <point x="890" y="1177"/>
      <point x="884" y="1126" type="qcurve"/>
      <point x="758" y="179" type="line"/>
      <point x="756" y="162"/>
      <point x="756" y="145" type="qcurve"/>
      <point x="756" y="115"/>
      <point x="776" y="72"/>
      <point x="803" y="72" type="qcurve"/>
      <point x="789" y="-30" type="line"/>
      <point x="758" y="-29"/>
      <point x="703" y="-11"/>
      <point x="663" y="30"/>
      <point x="640" y="94"/>
      <point x="640" y="142" type="qcurve"/>
      <point x="632" y="142" type="line"/>
      <point x="614" y="114"/>
      <point x="565" y="54"/>
      <point x="503" y="3"/>
      <point x="428" y="-30"/>
      <point x="382" y="-30" type="qcurve"/>
      <point x="328" y="-30"/>
      <point x="232" y="23"/>
      <point x="160" y="124"/>
      <point x="118" y="271"/>
      <point x="118" y="366" type="qcurve"/>
      <point x="118" y="440"/>
      <point x="146" y="592"/>
      <point x="197" y="733"/>
      <point x="270" y="858"/>
      <point x="361" y="950"/>
      <point x="467" y="1004"/>
      <point x="526" y="1004" type="qcurve"/>
      <point x="558" y="1004"/>
      <point x="617" y="986"/>
      <point x="669" y="957"/>
      <point x="710" y="921"/>
      <point x="725" y="902" type="qcurve"/>
      <point x="733" y="902" type="line"/>
      <point x="752" y="1051" type="line"/>
      <point x="768" y="1169"/>
      <point x="826" y="1328"/>
      <point x="907" y="1424"/>
      <point x="1011" y="1464"/>
    </contour>
    <contour>
      <point x="717" y="785" type="line"/>
      <point x="706" y="806"/>
      <point x="672" y="848"/>
      <point x="627" y="881"/>
      <point x="570" y="902"/>
      <point x="536" y="902" type="qcurve"/>
      <point x="496" y="902"/>
      <point x="422" y="860"/>
      <point x="358" y="787"/>
      <point x="305" y="685"/>
      <point x="268" y="566"/>
      <point x="247" y="432"/>
      <point x="247" y="363" type="qcurve"/>
      <point x="247" y="285"/>
      <point x="275" y="174"/>
      <point x="323" y="104"/>
      <point x="385" y="72"/>
      <point x="418" y="72" type="qcurve"/>
      <point x="453" y="72"/>
      <point x="518" y="105"/>
      <point x="577" y="158"/>
      <point x="628" y="227"/>
      <point x="648" y="263" type="qcurve"/>
    </contour>
  </outline>
</glyph>
<glyph name="uni025C" format="2">
  <advance width="648"/>
  <unicode hex="025C"/>
  <outline>
    <contour>
      <point x="374" y="589" type="line"/>
      <point x="406" y="589"/>
      <point x="461" y="625"/>
      <point x="504" y="684"/>
      <point x="529" y="759"/>
      <point x="529" y="797" type="qcurve"/>
      <point x="529" y="848"/>
      <point x="481" y="902"/>
      <point x="445" y="902" type="qcurve"/>
      <point x="416" y="902"/>
      <point x="362" y="877"/>
      <point x="311" y="834"/>
      <point x="268" y="778"/>
      <point x="251" y="747" type="qcurve"/>
      <point x="174" y="849" type="line"/>
      <point x="200" y="882"/>
      <point x="261" y="938"/>
      <point x="332" y="980"/>
      <point x="410" y="1004"/>
      <point x="452" y="1004" type="qcurve"/>
      <point x="491" y="1004"/>
      <point x="559" y="983"/>
      <point x="609" y="939"/>
      <point x="638" y="871"/>
      <point x="638" y="825" type="qcurve"/>
      <point x="638" y="773"/>
      <point x="608" y="688"/>
      <point x="561" y="622"/>
      <point x="500" y="574"/>
      <point x="468" y="558" type="qcurve"/>
      <point x="467" y="548" type="line"/>
      <point x="512" y="527"/>
      <point x="570" y="473"/>
      <point x="604" y="412"/>
      <point x="617" y="347"/>
      <point x="617" y="315" type="qcurve"/>
      <point x="617" y="237"/>
      <point x="572" y="109"/>
      <point x="494" y="19"/>
      <point x="387" y="-30"/>
      <point x="326" y="-30" type="qcurve"/>
      <point x="292" y="-30"/>
      <point x="222" y="-11"/>
      <point x="157" y="28"/>
      <point x="100" y="86"/>
      <point x="78" y="125" type="qcurve"/>
      <point x="155" y="227" type="line"/>
      <point x="165" y="197"/>
      <point x="199" y="141"/>
      <point x="244" y="98"/>
      <point x="300" y="72"/>
      <point x="332" y="72" type="qcurve"/>
      <point x="371" y="72"/>
      <point x="434" y="114"/>
      <point x="479" y="182"/>
      <point x="503" y="269"/>
      <point x="503" y="315" type="qcurve"/>
      <point x="503" y="351"/>
      <point x="485" y="414"/>
      <point x="451" y="460"/>
      <point x="404" y="487"/>
      <point x="374" y="487" type="qcurve"/>
      <point x="329" y="487" type="line"/>
      <point x="342" y="589" type="line"/>
    </contour>
  </outline>
</glyph>
<glyph name="uni025D" format="2">
  <advance width="936"/>
  <unicode hex="025D"/>
  <outline>
    <contour>
      <point x="374" y="589" type="line"/>
      <point x="406" y="589"/>
      <point x="461" y="625"/>
      <point x="504" y="684"/>
      <point x="529" y="759"/>
      <point x="529" y="797" type="qcurve"/>
      <point x="529" y="848"/>
      <point x="481" y="902"/>
      <point x="445" y="902" type="qcurve"/>
      <point x="416" y="902"/>
      <point x="362" y="877"/>
      <point x="311" y="834"/>
      <point x="268" y="778"/>
      <point x="251" y="747" type="qcurve"/>
      <point x="174" y="849" type="line"/>
      <point x="200" y="882"/>
      <point x="261" y="938"/>
      <point x="332" y="980"/>
      <point x="410" y="1004"/>
      <point x="452" y="1004" type="qcurve"/>
      <point x="491" y="1004"/>
      <point x="559" y="983"/>
      <point x="608" y="939"/>
      <point x="638" y="871"/>
      <point x="638" y="825" type="qcurve"/>
      <point x="869" y="1004" type="line"/>
      <point x="877" y="974" type="line"/>
      <point x="854" y="942"/>
      <point x="818" y="886"/>
      <point x="791" y="830"/>
      <point x="778" y="770"/>
      <point x="778" y="734" type="qcurve"/>
      <point x="778" y="702"/>
      <point x="807" y="653"/>
      <point x="836" y="653" type="qcurve"/>
      <point x="865" y="653"/>
      <point x="896" y="707"/>
      <point x="896" y="746" type="qcurve"/>
      <point x="969" y="746" type="line"/>
      <point x="969" y="706"/>
      <point x="947" y="635"/>
      <point x="910" y="582"/>
      <point x="858" y="551"/>
      <point x="829" y="551" type="qcurve"/>
      <point x="803" y="551"/>
      <point x="761" y="574"/>
      <point x="730" y="614"/>
      <point x="713" y="669"/>
      <point x="713" y="701" type="qcurve"/>
      <point x="713" y="724"/>
      <point x="720" y="764"/>
      <point x="726" y="782" type="qcurve"/>
      <point x="724" y="791" type="line"/>
      <point x="614" y="705" type="line"/>
      <point x="590" y="651"/>
      <point x="511" y="579"/>
      <point x="468" y="558" type="qcurve"/>
      <point x="467" y="548" type="line"/>
      <point x="512" y="527"/>
      <point x="570" y="473"/>
      <point x="604" y="412"/>
      <point x="617" y="347"/>
      <point x="617" y="315" type="qcurve"/>
      <point x="617" y="237"/>
      <point x="572" y="109"/>
      <point x="494" y="19"/>
      <point x="387" y="-30"/>
      <point x="326" y="-30" type="qcurve"/>
      <point x="292" y="-30"/>
      <point x="222" y="-11"/>
      <point x="157" y="28"/>
      <point x="100" y="86"/>
      <point x="78" y="125" type="qcurve"/>
      <point x="155" y="227" type="line"/>
      <point x="165" y="197"/>
      <point x="199" y="141"/>
      <point x="244" y="98"/>
      <point x="299" y="72"/>
      <point x="332" y="72" type="qcurve"/>
      <point x="371" y="72"/>
      <point x="434" y="114"/>
      <point x="479" y="182"/>
      <point x="503" y="269"/>
      <point x="503" y="315" type="qcurve"/>
      <point x="503" y="351"/>
      <point x="485" y="414"/>
      <point x="451" y="460"/>
      <point x="404" y="487"/>
      <point x="374" y="487" type="qcurve"/>
      <point x="329" y="487" type="line"/>
      <point x="342" y="589" type="line"/>
    </contour>
  </outline>
</glyph>
<glyph name="uni0260" format="2">
  <advance width="840"/>
  <unicode hex="0260"/>
  <outline>
    <contour>
      <point x="739" y="40" type="line"/>
      <point x="725" y="-69"/>
      <point x="675" y="-227"/>
      <point x="604" y="-338"/>
      <point x="508" y="-407"/>
      <point x="387" y="-446"/>
      <point x="239" y="-460"/>
      <point x="150" y="-460" type="qcurve"/>
      <point x="164" y="-358" type="line"/>
      <point x="249" y="-358"/>
      <point x="398" y="-341"/>
      <point x="515" y="-271"/>
      <point x="595" y="-127"/>
      <point x="612" y="0" type="qcurve"/>
      <point x="631" y="142" type="line"/>
      <point x="623" y="142" type="line"/>
      <point x="617" y="127"/>
      <point x="576" y="79"/>
      <point x="515" y="33"/>
      <point x="437" y="0"/>
      <point x="392" y="0" type="qcurve"/>
      <point x="339" y="0"/>
      <point x="242" y="55"/>
      <point x="170" y="157"/>
      <point x="127" y="300"/>
      <point x="127" y="389" type="qcurve"/>
      <point x="127" y="461"/>
      <point x="156" y="608"/>
      <point x="209" y="745"/>
      <point x="284" y="864"/>
      <point x="374" y="953"/>
      <point x="477" y="1004"/>
      <point x="533" y="1004" type="qcurve"/>
      <point x="551" y="1004"/>
      <point x="597" y="994"/>
      <point x="646" y="970"/>
      <point x="696" y="931"/>
      <point x="719" y="902" type="qcurve"/>
      <point x="731" y="902" type="line"/>
      <point x="741" y="983"/>
      <point x="794" y="1100"/>
      <point x="872" y="1177"/>
      <point x="970" y="1214"/>
      <point x="1025" y="1214" type="qcurve"/>
      <point x="1012" y="1112" type="line"/>
      <point x="985" y="1112"/>
      <point x="934" y="1089"/>
      <point x="890" y="1034"/>
      <point x="857" y="942"/>
      <point x="848" y="872" type="qcurve"/>
    </contour>
    <contour>
      <point x="716" y="786" type="line"/>
      <point x="677" y="849"/>
      <point x="593" y="902"/>
      <point x="534" y="902" type="qcurve"/>
      <point x="478" y="902"/>
      <point x="377" y="810"/>
      <point x="300" y="661"/>
      <point x="255" y="474"/>
      <point x="255" y="379" type="qcurve"/>
      <point x="255" y="306"/>
      <point x="284" y="201"/>
      <point x="332" y="134"/>
      <point x="394" y="102"/>
      <point x="428" y="102" type="qcurve"/>
      <point x="467" y="102"/>
      <point x="536" y="132"/>
      <point x="592" y="177"/>
      <point x="633" y="230"/>
      <point x="645" y="254" type="qcurve"/>
    </contour>
  </outline>
</glyph>
<glyph name="uni0261" format="2">
  <advance width="840"/>
  <unicode hex="0261"/>
  <outline>
    <contour>
      <point x="838" y="784" type="qcurve"/>
      <point x="739" y="40" type="line"/>
      <point x="724" y="-73"/>
      <point x="674" y="-234"/>
      <point x="602" y="-345"/>
      <point x="507" y="-412"/>
      <point x="386" y="-448"/>
      <point x="239" y="-460"/>
      <point x="150" y="-460" type="qcurve"/>
      <point x="164" y="-358" type="line"/>
      <point x="215" y="-358"/>
      <point x="316" y="-354"/>
      <point x="407" y="-333"/>
      <point x="488" y="-289"/>
      <point x="553" y="-209"/>
      <point x="600" y="-88"/>
      <point x="612" y="0" type="qcurve"/>
      <point x="631" y="142" type="line"/>
      <point x="623" y="142" type="line"/>
      <point x="617" y="127"/>
      <point x="576" y="79"/>
      <point x="515" y="33"/>
      <point x="437" y="0"/>
      <point x="392" y="0" type="qcurve"/>
      <point x="339" y="0"/>
      <point x="242" y="55"/>
      <point x="170" y="157"/>
      <point x="127" y="300"/>
      <point x="127" y="389" type="qcurve"/>
      <point x="127" y="461"/>
      <point x="156" y="608"/>
      <point x="210" y="745"/>
      <point x="284" y="864"/>
      <point x="375" y="953"/>
      <point x="479" y="1004"/>
      <point x="534" y="1004" type="qcurve"/>
      <point x="561" y="1004"/>
      <point x="624" y="995"/>
      <point x="698" y="952"/>
      <point x="786" y="863"/>
    </contour>
    <contour>
      <point x="715" y="783" type="line"/>
      <point x="677" y="846"/>
      <point x="594" y="902"/>
      <point x="536" y="902" type="qcurve"/>
      <point x="479" y="902"/>
      <point x="378" y="810"/>
      <point x="301" y="661"/>
      <point x="255" y="474"/>
      <point x="255" y="379" type="qcurve"/>
      <point x="255" y="306"/>
      <point x="284" y="201"/>
      <point x="332" y="134"/>
      <point x="394" y="102"/>
      <point x="428" y="102" type="qcurve"/>
      <point x="467" y="102"/>
      <point x="536" y="132"/>
      <point x="592" y="177"/>
      <point x="633" y="230"/>
      <point x="645" y="254" type="qcurve"/>
    </contour>
  </outline>
</glyph>
<glyph name="uni0264" format="2">
  <advance width="768"/>
  <unicode hex="0264"/>
  <outline>
    <contour>
      <point x="500" y="690" type="qcurve"/>
      <point x="545" y="791"/>
      <point x="627" y="915"/>
      <point x="707" y="982"/>
      <point x="792" y="1004"/>
      <point x="841" y="1004" type="qcurve"/>
      <point x="827" y="902" type="line"/>
      <point x="798" y="902"/>
      <point x="740" y="884"/>
      <point x="679" y="831"/>
      <point x="616" y="735"/>
      <point x="581" y="658" type="qcurve"/>
      <point x="524" y="530" type="line"/>
      <point x="536" y="457"/>
      <point x="554" y="351"/>
      <point x="563" y="274"/>
      <point x="568" y="221"/>
      <point x="568" y="202" type="qcurve"/>
      <point x="568" y="152"/>
      <point x="539" y="68"/>
      <point x="492" y="5"/>
      <point x="428" y="-30"/>
      <point x="394" y="-30" type="qcurve"/>
      <point x="365" y="-30"/>
      <point x="326" y="-7"/>
      <point x="302" y="34"/>
      <point x="291" y="87"/>
      <point x="291" y="117" type="qcurve"/>
      <point x="291" y="163"/>
      <point x="314" y="256"/>
      <point x="347" y="343"/>
      <point x="386" y="424"/>
      <point x="403" y="460" type="qcurve"/>
      <point x="367" y="659" type="line"/>
      <point x="353" y="736"/>
      <point x="318" y="831"/>
      <point x="271" y="884"/>
      <point x="209" y="902"/>
      <point x="166" y="902" type="qcurve"/>
      <point x="179" y="1004" type="line"/>
      <point x="237" y="1004"/>
      <point x="335" y="991"/>
      <point x="416" y="930"/>
      <point x="478" y="803"/>
    </contour>
    <contour>
      <point x="431" y="325" type="qcurve"/>
      <point x="407" y="277"/>
      <point x="368" y="170"/>
      <point x="368" y="123" type="qcurve"/>
      <point x="368" y="103"/>
      <point x="382" y="72"/>
      <point x="398" y="72" type="qcurve"/>
      <point x="413" y="72"/>
      <point x="433" y="95"/>
      <point x="443" y="130"/>
      <point x="446" y="168"/>
      <point x="446" y="183" type="qcurve"/>
      <point x="446" y="212"/>
      <point x="440" y="282"/>
    </contour>
  </outline>
</glyph>
<glyph name="uni0265" format="2">
  <advance width="840"/>
  <unicode hex="0265"/>
  <outline>
    <contour>
      <point x="541" y="-490" type="line"/>
      <point x="624" y="137" type="line"/>
      <point x="617" y="137" type="line"/>
      <point x="551" y="49"/>
      <point x="424" y="-30"/>
      <point x="356" y="-30" type="qcurve"/>
      <point x="307" y="-30"/>
      <point x="229" y="2"/>
      <point x="174" y="62"/>
      <point x="144" y="149"/>
      <point x="144" y="205" type="qcurve"/>
      <point x="144" y="219"/>
      <point x="147" y="251"/>
      <point x="149" y="267" type="qcurve"/>
      <point x="217" y="777" type="line"/>
      <point x="221" y="808"/>
      <point x="221" y="833" type="qcurve"/>
      <point x="221" y="869"/>
      <point x="199" y="902"/>
      <point x="175" y="902" type="qcurve"/>
      <point x="188" y="1004" type="line"/>
      <point x="269" y="1004"/>
      <point x="340" y="909"/>
      <point x="340" y="828" type="qcurve"/>
      <point x="340" y="808"/>
      <point x="337" y="768"/>
      <point x="334" y="747" type="qcurve"/>
      <point x="273" y="287" type="line"/>
      <point x="269" y="255"/>
      <point x="269" y="227" type="qcurve"/>
      <point x="269" y="152"/>
      <point x="328" y="72"/>
      <point x="386" y="72" type="qcurve"/>
      <point x="457" y="72"/>
      <point x="581" y="177"/>
      <point x="643" y="277" type="qcurve"/>
      <point x="734" y="974" type="line"/>
      <point x="838" y="1004" type="line"/>
      <point x="860" y="1004" type="line"/>
      <point x="667" y="-460" type="line"/>
      <point x="563" y="-490" type="line"/>
    </contour>
  </outline>
</glyph>
<glyph name="uni0266" format="2">
  <advance width="840"/>
  <unicode hex="0266"/>
  <outline>
    <contour>
      <point x="574" y="1464" type="qcurve"/>
      <point x="560" y="1362" type="line"/>
      <point x="518" y="1362"/>
      <point x="457" y="1326"/>
      <point x="416" y="1263"/>
      <point x="391" y="1177"/>
      <point x="384" y="1126" type="qcurve"/>
      <point x="346" y="837" type="line"/>
      <point x="353" y="837" type="line"/>
      <point x="412" y="916"/>
      <point x="542" y="1004"/>
      <point x="622" y="1004" type="qcurve"/>
      <point x="668" y="1004"/>
      <point x="742" y="972"/>
      <point x="794" y="911"/>
      <point x="824" y="821"/>
      <point x="824" y="764" type="qcurve"/>
      <point x="824" y="733"/>
      <point x="819" y="697" type="qcurve"/>
      <point x="753" y="196" type="line"/>
      <point x="749" y="163"/>
      <point x="749" y="140" type="qcurve"/>
      <point x="749" y="104"/>
      <point x="771" y="72"/>
      <point x="795" y="72" type="qcurve"/>
      <point x="782" y="-30" type="line"/>
      <point x="739" y="-30"/>
      <point x="681" y="-4"/>
      <point x="645" y="43"/>
      <point x="630" y="109"/>
      <point x="630" y="149" type="qcurve"/>
      <point x="630" y="181"/>
      <point x="636" y="227" type="qcurve"/>
      <point x="698" y="697" type="line"/>
      <point x="701" y="717"/>
      <point x="701" y="745" type="qcurve"/>
      <point x="701" y="817"/>
      <point x="640" y="902"/>
      <point x="584" y="902" type="qcurve"/>
      <point x="546" y="902"/>
      <point x="475" y="869"/>
      <point x="410" y="812"/>
      <point x="352" y="738"/>
      <point x="327" y="696" type="qcurve"/>
      <point x="236" y="0" type="line"/>
      <point x="114" y="0" type="line"/>
      <point x="253" y="1051" type="line"/>
      <point x="269" y="1169"/>
      <point x="326" y="1328"/>
      <point x="407" y="1424"/>
      <point x="512" y="1464"/>
    </contour>
  </outline>
</glyph>
<glyph name="uni0268" format="2">
  <advance width="432"/>
  <unicode hex="0268"/>
  <outline>
    <contour>
      <point x="108" y="589" type="line"/>
      <point x="233" y="589" type="line"/>
      <point x="284" y="974" type="line"/>
      <point x="387" y="1004" type="line"/>
      <point x="410" y="1004" type="line"/>
      <point x="355" y="589" type="line"/>
      <point x="473" y="589" type="line"/>
      <point x="456" y="457" type="line"/>
      <point x="338" y="466" type="line"/>
      <point x="277" y="0" type="line"/>
      <point x="155" y="0" type="line"/>
      <point x="218" y="476" type="line"/>
      <point x="94" y="487" type="line"/>
    </contour>
    <contour>
      <point x="320" y="1338" type="qcurve"/>
      <point x="320" y="1378"/>
      <point x="362" y="1434"/>
      <point x="392" y="1434" type="qcurve"/>
      <point x="422" y="1434"/>
      <point x="464" y="1378"/>
      <point x="464" y="1338" type="qcurve"/>
      <point x="464" y="1298"/>
      <point x="422" y="1242"/>
      <point x="392" y="1242" type="qcurve"/>
      <point x="362" y="1242"/>
      <point x="320" y="1298"/>
    </contour>
  </outline>
</glyph>
<glyph name="uni0269" format="2">
  <advance width="432"/>
  <unicode hex="0269"/>
  <outline>
    <contour>
      <point x="410" y="1004" type="line"/>
      <point x="316" y="297" type="line"/>
      <point x="309" y="249"/>
      <point x="309" y="211" type="qcurve"/>
      <point x="309" y="172"/>
      <point x="329" y="118"/>
      <point x="362" y="86"/>
      <point x="407" y="72"/>
      <point x="432" y="72" type="qcurve"/>
      <point x="419" y="-30" type="line"/>
      <point x="300" y="-30"/>
      <point x="188" y="86"/>
      <point x="188" y="201" type="qcurve"/>
      <point x="188" y="227"/>
      <point x="193" y="290"/>
      <point x="198" y="326" type="qcurve"/>
      <point x="284" y="974" type="line"/>
      <point x="386" y="1004" type="line"/>
    </contour>
  </outline>
</glyph>
<glyph name="uni026B" format="2">
  <advance width="552"/>
  <unicode hex="026B"/>
  <outline>
    <contour>
      <point x="420" y="1464" type="line"/>
      <point x="523" y="1494" type="line"/>
      <point x="545" y="1494" type="line"/>
      <point x="464" y="882" type="line"/>
      <point x="474" y="873"/>
      <point x="495" y="862"/>
      <point x="507" y="862" type="qcurve"/>
      <point x="539" y="862"/>
      <point x="583" y="941"/>
      <point x="592" y="1004" type="qcurve"/>
      <point x="653" y="1004" type="line"/>
      <point x="638" y="887"/>
      <point x="557" y="750"/>
      <point x="493" y="750" type="qcurve"/>
      <point x="482" y="750"/>
      <point x="461" y="754"/>
      <point x="449" y="761" type="qcurve"/>
      <point x="387" y="300" type="line"/>
      <point x="384" y="279"/>
      <point x="380" y="225"/>
      <point x="380" y="209" type="qcurve"/>
      <point x="381" y="191"/>
      <point x="389" y="144"/>
      <point x="410" y="102"/>
      <point x="448" y="72"/>
      <point x="479" y="72" type="qcurve"/>
      <point x="466" y="-30" type="line"/>
      <point x="401" y="-30"/>
      <point x="321" y="14"/>
      <point x="276" y="82"/>
      <point x="260" y="165"/>
      <point x="260" y="204" type="qcurve"/>
      <point x="260" y="226"/>
      <point x="263" y="285"/>
      <point x="266" y="307" type="qcurve"/>
      <point x="341" y="873" type="line"/>
      <point x="332" y="881"/>
      <point x="311" y="892"/>
      <point x="299" y="892" type="qcurve"/>
      <point x="266" y="892"/>
      <point x="223" y="813"/>
      <point x="215" y="750" type="qcurve"/>
      <point x="153" y="750" type="line"/>
      <point x="168" y="867"/>
      <point x="250" y="1004"/>
      <point x="314" y="1004" type="qcurve"/>
      <point x="326" y="1004"/>
      <point x="347" y="997"/>
      <point x="357" y="992" type="qcurve"/>
    </contour>
  </outline>
</glyph>
<glyph name="uni026C" format="2">
  <advance width="552"/>
  <unicode hex="026C"/>
  <outline>
    <contour>
      <point x="482" y="72" type="qcurve"/>
      <point x="469" y="-30" type="line"/>
      <point x="404" y="-30"/>
      <point x="324" y="14"/>
      <point x="279" y="82"/>
      <point x="263" y="165"/>
      <point x="263" y="204" type="qcurve"/>
      <point x="263" y="226"/>
      <point x="266" y="285"/>
      <point x="269" y="307" type="qcurve"/>
      <point x="314" y="640" type="line"/>
      <point x="242" y="648" type="line"/>
      <point x="218" y="648"/>
      <point x="177" y="670"/>
      <point x="148" y="709"/>
      <point x="131" y="762"/>
      <point x="131" y="792" type="qcurve"/>
      <point x="131" y="842"/>
      <point x="158" y="921"/>
      <point x="201" y="975"/>
      <point x="258" y="1004"/>
      <point x="289" y="1004" type="qcurve"/>
      <point x="331" y="1004"/>
      <point x="359" y="976" type="qcurve"/>
      <point x="423" y="1464" type="line"/>
      <point x="525" y="1494" type="line"/>
      <point x="548" y="1494" type="line"/>
      <point x="447" y="730" type="line"/>
      <point x="593" y="730" type="line"/>
      <point x="566" y="624" type="line"/>
      <point x="434" y="634" type="line"/>
      <point x="390" y="300" type="line"/>
      <point x="387" y="279"/>
      <point x="383" y="225"/>
      <point x="383" y="209" type="qcurve"/>
      <point x="384" y="191"/>
      <point x="392" y="144"/>
      <point x="413" y="102"/>
      <point x="451" y="72"/>
    </contour>
    <contour>
      <point x="194" y="810" type="qcurve"/>
      <point x="194" y="776"/>
      <point x="227" y="730"/>
      <point x="254" y="730" type="qcurve"/>
      <point x="326" y="730" type="line"/>
      <point x="338" y="826" type="line"/>
      <point x="339" y="831"/>
      <point x="339" y="838"/>
      <point x="339" y="842" type="qcurve"/>
      <point x="339" y="876"/>
      <point x="305" y="922"/>
      <point x="279" y="922" type="qcurve"/>
      <point x="262" y="922"/>
      <point x="230" y="906"/>
      <point x="207" y="876"/>
      <point x="194" y="835"/>
    </contour>
  </outline>
</glyph>
<glyph name="uni026D" format="2">
  <advance width="432"/>
  <unicode hex="026D"/>
  <outline>
    <contour>
      <point x="374" y="-388" type="qcurve"/>
      <point x="360" y="-490" type="line"/>
      <point x="296" y="-490"/>
      <point x="207" y="-460"/>
      <point x="152" y="-404"/>
      <point x="127" y="-322"/>
      <point x="127" y="-269" type="qcurve"/>
      <point x="127" y="-213"/>
      <point x="137" y="-134" type="qcurve"/>
      <point x="349" y="1464" type="line"/>
      <point x="451" y="1494" type="line"/>
      <point x="474" y="1494" type="line"/>
      <point x="255" y="-163" type="line"/>
      <point x="248" y="-211"/>
      <point x="248" y="-248" type="qcurve"/>
      <point x="248" y="-288"/>
      <point x="268" y="-341"/>
      <point x="302" y="-374"/>
      <point x="347" y="-388"/>
    </contour>
  </outline>
</glyph>
<glyph name="uni026F" format="2">
  <advance width="1248"/>
  <unicode hex="026F"/>
  <outline>
    <contour>
      <point x="1148" y="974" type="line"/>
      <point x="1252" y="1004" type="line"/>
      <point x="1274" y="1004" type="line"/>
      <point x="1142" y="0" type="line"/>
      <point x="1020" y="0" type="line"/>
      <point x="1037" y="136" type="line"/>
      <point x="1029" y="136" type="line"/>
      <point x="999" y="92"/>
      <point x="941" y="29"/>
      <point x="880" y="-11"/>
      <point x="815" y="-30"/>
      <point x="779" y="-30" type="qcurve"/>
      <point x="738" y="-30"/>
      <point x="677" y="-3"/>
      <point x="632" y="44"/>
      <point x="603" y="108"/>
      <point x="596" y="146" type="qcurve"/>
      <point x="588" y="146" type="line"/>
      <point x="556" y="102"/>
      <point x="496" y="36"/>
      <point x="434" y="-8"/>
      <point x="368" y="-30"/>
      <point x="329" y="-30" type="qcurve"/>
      <point x="293" y="-30"/>
      <point x="224" y="-2"/>
      <point x="170" y="55"/>
      <point x="137" y="143"/>
      <point x="137" y="202" type="qcurve"/>
      <point x="137" y="216"/>
      <point x="139" y="243"/>
      <point x="140" y="258" type="qcurve"/>
      <point x="209" y="777" type="line"/>
      <point x="214" y="808"/>
      <point x="214" y="833" type="qcurve"/>
      <point x="214" y="869"/>
      <point x="191" y="902"/>
      <point x="167" y="902" type="qcurve"/>
      <point x="181" y="1004" type="line"/>
      <point x="332" y="1004"/>
      <point x="332" y="826" type="qcurve"/>
      <point x="332" y="808"/>
      <point x="329" y="769"/>
      <point x="326" y="747" type="qcurve"/>
      <point x="265" y="278" type="line"/>
      <point x="263" y="264"/>
      <point x="261" y="239"/>
      <point x="261" y="227" type="qcurve"/>
      <point x="261" y="154"/>
      <point x="317" y="72"/>
      <point x="364" y="72" type="qcurve"/>
      <point x="397" y="72"/>
      <point x="457" y="102"/>
      <point x="514" y="157"/>
      <point x="570" y="232"/>
      <point x="599" y="277" type="qcurve"/>
      <point x="692" y="974" type="line"/>
      <point x="795" y="1004" type="line"/>
      <point x="818" y="1004" type="line"/>
      <point x="719" y="258" type="line"/>
      <point x="716" y="241"/>
      <point x="716" y="223" type="qcurve"/>
      <point x="716" y="194"/>
      <point x="729" y="139"/>
      <point x="754" y="97"/>
      <point x="791" y="72"/>
      <point x="815" y="72" type="qcurve"/>
      <point x="851" y="72"/>
      <point x="913" y="102"/>
      <point x="971" y="157"/>
      <point x="1028" y="233"/>
      <point x="1057" y="278" type="qcurve"/>
    </contour>
  </outline>
</glyph>
<glyph name="uni0270" format="2">
  <advance width="1248"/>
  <unicode hex="0270"/>
  <outline>
    <contour>
      <point x="1148" y="974" type="line"/>
      <point x="1252" y="1004" type="line"/>
      <point x="1274" y="1004" type="line"/>
      <point x="1080" y="-460" type="line"/>
      <point x="977" y="-490" type="line"/>
      <point x="955" y="-490" type="line"/>
      <point x="1037" y="136" type="line"/>
      <point x="1029" y="136" type="line"/>
      <point x="999" y="92"/>
      <point x="941" y="29"/>
      <point x="880" y="-11"/>
      <point x="815" y="-30"/>
      <point x="779" y="-30" type="qcurve"/>
      <point x="738" y="-30"/>
      <point x="677" y="-3"/>
      <point x="632" y="44"/>
      <point x="603" y="108"/>
      <point x="596" y="146" type="qcurve"/>
      <point x="588" y="146" type="line"/>
      <point x="556" y="102"/>
      <point x="496" y="36"/>
      <point x="434" y="-8"/>
      <point x="368" y="-30"/>
      <point x="329" y="-30" type="qcurve"/>
      <point x="293" y="-30"/>
      <point x="224" y="-2"/>
      <point x="170" y="55"/>
      <point x="137" y="143"/>
      <point x="137" y="202" type="qcurve"/>
      <point x="137" y="216"/>
      <point x="139" y="243"/>
      <point x="140" y="258" type="qcurve"/>
      <point x="209" y="777" type="line"/>
      <point x="214" y="808"/>
      <point x="214" y="833" type="qcurve"/>
      <point x="214" y="869"/>
      <point x="191" y="902"/>
      <point x="167" y="902" type="qcurve"/>
      <point x="181" y="1004" type="line"/>
      <point x="332" y="1004"/>
      <point x="332" y="826" type="qcurve"/>
      <point x="332" y="808"/>
      <point x="329" y="769"/>
      <point x="326" y="747" type="qcurve"/>
      <point x="265" y="278" type="line"/>
      <point x="263" y="264"/>
      <point x="261" y="239"/>
      <point x="261" y="227" type="qcurve"/>
      <point x="261" y="154"/>
      <point x="317" y="72"/>
      <point x="364" y="72" type="qcurve"/>
      <point x="397" y="72"/>
      <point x="457" y="102"/>
      <point x="514" y="157"/>
      <point x="570" y="232"/>
      <point x="599" y="277" type="qcurve"/>
      <point x="692" y="974" type="line"/>
      <point x="795" y="1004" type="line"/>
      <point x="818" y="1004" type="line"/>
      <point x="719" y="258" type="line"/>
      <point x="716" y="241"/>
      <point x="716" y="223" type="qcurve"/>
      <point x="716" y="194"/>
      <point x="729" y="139"/>
      <point x="754" y="97"/>
      <point x="791" y="72"/>
      <point x="815" y="72" type="qcurve"/>
      <point x="851" y="72"/>
      <point x="913" y="102"/>
      <point x="971" y="157"/>
      <point x="999" y="195" type="qcurve"/>
      <point x="1027" y="232"/>
      <point x="1056" y="277" type="qcurve"/>
    </contour>
  </outline>
</glyph>
<glyph name="uni0274" format="2">
  <advance width="840"/>
  <unicode hex="0274"/>
  <outline>
    <contour>
      <point x="331" y="1004" type="line"/>
      <point x="674" y="285" type="line"/>
      <point x="680" y="285" type="line"/>
      <point x="770" y="974" type="line"/>
      <point x="859" y="1004" type="line"/>
      <point x="881" y="1004" type="line"/>
      <point x="749" y="0" type="line"/>
      <point x="642" y="0" type="line"/>
      <point x="298" y="719" type="line"/>
      <point x="293" y="719" type="line"/>
      <point x="198" y="0" type="line"/>
      <point x="92" y="0" type="line"/>
      <point x="220" y="974" type="line"/>
    </contour>
  </outline>
</glyph>
<glyph name="uni0275" format="2">
  <advance width="840"/>
  <unicode hex="0275"/>
  <outline>
    <contour>
      <point x="553" y="1004" type="qcurve"/>
      <point x="623" y="1004"/>
      <point x="735" y="944"/>
      <point x="815" y="836"/>
      <point x="857" y="686"/>
      <point x="857" y="596" type="qcurve"/>
      <point x="857" y="514"/>
      <point x="826" y="358"/>
      <point x="769" y="219"/>
      <point x="689" y="102"/>
      <point x="590" y="17"/>
      <point x="477" y="-30"/>
      <point x="416" y="-30" type="qcurve"/>
      <point x="344" y="-30"/>
      <point x="232" y="30"/>
      <point x="153" y="139"/>
      <point x="111" y="290"/>
      <point x="111" y="381" type="qcurve"/>
      <point x="111" y="503"/>
      <point x="180" y="728"/>
      <point x="300" y="901"/>
      <point x="461" y="1004"/>
    </contour>
    <contour>
      <point x="429" y="72" type="qcurve"/>
      <point x="478" y="72"/>
      <point x="568" y="128"/>
      <point x="643" y="226"/>
      <point x="698" y="359"/>
      <point x="713" y="436" type="qcurve"/>
      <point x="242" y="436" type="line"/>
      <point x="240" y="422"/>
      <point x="240" y="395"/>
      <point x="240" y="383" type="qcurve"/>
      <point x="240" y="315"/>
      <point x="265" y="201"/>
      <point x="313" y="119"/>
      <point x="383" y="72"/>
    </contour>
    <contour>
      <point x="539" y="902" type="qcurve"/>
      <point x="489" y="902"/>
      <point x="399" y="846"/>
      <point x="325" y="748"/>
      <point x="270" y="615"/>
      <point x="255" y="538" type="qcurve"/>
      <point x="726" y="538" type="line"/>
      <point x="728" y="566"/>
      <point x="728" y="592" type="qcurve"/>
      <point x="728" y="659"/>
      <point x="702" y="772"/>
      <point x="653" y="855"/>
      <point x="583" y="902"/>
    </contour>
  </outline>
</glyph>
<glyph name="uni0276" format="2">
  <advance width="1008"/>
  <unicode hex="0276"/>
  <outline>
    <contour>
      <point x="1073" y="974" type="line"/>
      <point x="1056" y="849" type="line"/>
      <point x="751" y="870" type="line"/>
      <point x="713" y="589" type="line"/>
      <point x="974" y="589" type="line"/>
      <point x="960" y="487" type="line"/>
      <point x="701" y="487" type="line"/>
      <point x="650" y="103" type="line"/>
      <point x="962" y="125" type="line"/>
      <point x="945" y="0" type="line"/>
      <point x="519" y="0" type="line"/>
      <point x="492" y="-10"/>
      <point x="439" y="-30"/>
      <point x="413" y="-30" type="qcurve"/>
      <point x="352" y="-30"/>
      <point x="245" y="27"/>
      <point x="165" y="134"/>
      <point x="119" y="288"/>
      <point x="119" y="385" type="qcurve"/>
      <point x="119" y="503"/>
      <point x="178" y="726"/>
      <point x="289" y="899"/>
      <point x="449" y="1004"/>
      <point x="550" y="1004" type="qcurve"/>
      <point x="574" y="1004"/>
      <point x="627" y="988"/>
      <point x="647" y="974" type="qcurve"/>
    </contour>
    <contour>
      <point x="629" y="871" type="line"/>
      <point x="606" y="888"/>
      <point x="561" y="902"/>
      <point x="536" y="902" type="qcurve"/>
      <point x="476" y="902"/>
      <point x="371" y="822"/>
      <point x="294" y="682"/>
      <point x="249" y="495"/>
      <point x="249" y="389" type="qcurve"/>
      <point x="249" y="313"/>
      <point x="278" y="195"/>
      <point x="327" y="114"/>
      <point x="391" y="72"/>
      <point x="426" y="72" type="qcurve"/>
      <point x="451" y="72"/>
      <point x="500" y="86"/>
      <point x="528" y="102" type="qcurve"/>
    </contour>
  </outline>
</glyph>
<glyph name="uni0277" format="2">
  <advance width="1200"/>
  <unicode hex="0277"/>
  <outline>
    <contour>
      <point x="827" y="-30" type="qcurve"/>
      <point x="788" y="-30"/>
      <point x="720" y="-8"/>
      <point x="667" y="40"/>
      <point x="631" y="114"/>
      <point x="625" y="167" type="qcurve"/>
      <point x="617" y="167" type="line"/>
      <point x="598" y="114"/>
      <point x="542" y="40"/>
      <point x="476" y="-8"/>
      <point x="403" y="-30"/>
      <point x="365" y="-30" type="qcurve"/>
      <point x="314" y="-30"/>
      <point x="224" y="17"/>
      <point x="157" y="109"/>
      <point x="118" y="243"/>
      <point x="118" y="329" type="qcurve"/>
      <point x="118" y="492"/>
      <point x="212" y="743"/>
      <point x="376" y="915"/>
      <point x="601" y="1004"/>
      <point x="732" y="1004" type="qcurve"/>
      <point x="833" y="1004"/>
      <point x="1003" y="942"/>
      <point x="1126" y="822"/>
      <point x="1195" y="647"/>
      <point x="1195" y="535" type="qcurve"/>
      <point x="1195" y="464"/>
      <point x="1172" y="325"/>
      <point x="1127" y="200"/>
      <point x="1064" y="92"/>
      <point x="982" y="14"/>
      <point x="884" y="-30"/>
    </contour>
    <contour>
      <point x="247" y="333" type="qcurve"/>
      <point x="247" y="270"/>
      <point x="270" y="172"/>
      <point x="309" y="106"/>
      <point x="359" y="72"/>
      <point x="386" y="72" type="qcurve"/>
      <point x="472" y="72"/>
      <point x="585" y="233"/>
      <point x="606" y="393" type="qcurve"/>
      <point x="635" y="611" type="line"/>
      <point x="726" y="611" type="line"/>
      <point x="698" y="393" type="line"/>
      <point x="694" y="364"/>
      <point x="690" y="310"/>
      <point x="690" y="286" type="qcurve"/>
      <point x="690" y="72"/>
      <point x="833" y="72" type="qcurve"/>
      <point x="877" y="72"/>
      <point x="961" y="147"/>
      <point x="1026" y="274"/>
      <point x="1066" y="442"/>
      <point x="1066" y="535" type="qcurve"/>
      <point x="1066" y="607"/>
      <point x="1029" y="740"/>
      <point x="947" y="841"/>
      <point x="815" y="902"/>
      <point x="719" y="902" type="qcurve"/>
      <point x="597" y="902"/>
      <point x="419" y="816"/>
      <point x="303" y="664"/>
      <point x="247" y="456"/>
    </contour>
  </outline>
</glyph>
<glyph name="uni0278" format="2">
  <advance width="936"/>
  <unicode hex="0278"/>
  <outline>
    <contour>
      <point x="467" y="-460" type="line"/>
      <point x="365" y="-490" type="line"/>
      <point x="342" y="-490" type="line"/>
      <point x="403" y="-30" type="line"/>
      <point x="337" y="-25"/>
      <point x="230" y="39"/>
      <point x="155" y="147"/>
      <point x="113" y="294"/>
      <point x="113" y="382" type="qcurve"/>
      <point x="113" y="503"/>
      <point x="180" y="721"/>
      <point x="296" y="889"/>
      <point x="451" y="995"/>
      <point x="540" y="1004" type="qcurve"/>
      <point x="596" y="1434" type="line"/>
      <point x="699" y="1464" type="line"/>
      <point x="722" y="1464" type="line"/>
      <point x="662" y="1004" type="line"/>
      <point x="728" y="999"/>
      <point x="834" y="934"/>
      <point x="909" y="826"/>
      <point x="950" y="679"/>
      <point x="950" y="592" type="qcurve"/>
      <point x="950" y="471"/>
      <point x="884" y="253"/>
      <point x="769" y="85"/>
      <point x="614" y="-21"/>
      <point x="524" y="-30" type="qcurve"/>
    </contour>
    <contour>
      <point x="416" y="72" type="qcurve"/>
      <point x="527" y="902" type="line"/>
      <point x="458" y="885"/>
      <point x="352" y="782"/>
      <point x="280" y="638"/>
      <point x="242" y="469"/>
      <point x="242" y="386" type="qcurve"/>
      <point x="242" y="321"/>
      <point x="266" y="213"/>
      <point x="311" y="131"/>
      <point x="376" y="79"/>
    </contour>
    <contour>
      <point x="538" y="72" type="line"/>
      <point x="607" y="89"/>
      <point x="713" y="192"/>
      <point x="785" y="336"/>
      <point x="821" y="505"/>
      <point x="821" y="588" type="qcurve"/>
      <point x="821" y="653"/>
      <point x="797" y="762"/>
      <point x="752" y="843"/>
      <point x="689" y="894"/>
      <point x="648" y="902" type="qcurve"/>
    </contour>
  </outline>
</glyph>
<glyph name="uni027A" format="2">
  <advance width="552"/>
  <unicode hex="027A"/>
  <outline>
    <contour>
      <point x="370" y="166" type="line"/>
      <point x="362" y="166" type="line"/>
      <point x="315" y="69"/>
      <point x="215" y="-30"/>
      <point x="153" y="-30" type="qcurve"/>
      <point x="137" y="-30"/>
      <point x="106" y="-18"/>
      <point x="80" y="0"/>
      <point x="62" y="21"/>
      <point x="58" y="30" type="qcurve"/>
      <point x="79" y="188" type="line"/>
      <point x="90" y="168"/>
      <point x="151" y="132"/>
      <point x="194" y="132" type="qcurve"/>
      <point x="239" y="132"/>
      <point x="311" y="191"/>
      <point x="365" y="275"/>
      <point x="396" y="367"/>
      <point x="401" y="400" type="qcurve"/>
      <point x="539" y="1434" type="line"/>
      <point x="640" y="1464" type="line"/>
      <point x="662" y="1464" type="line"/>
      <point x="468" y="0" type="line"/>
      <point x="349" y="0" type="line"/>
    </contour>
  </outline>
</glyph>
<glyph name="uni027B" format="2">
  <advance width="552"/>
  <unicode hex="027B"/>
  <outline>
    <contour>
      <point x="565" y="-388" type="qcurve"/>
      <point x="551" y="-490" type="line"/>
      <point x="487" y="-490"/>
      <point x="398" y="-460"/>
      <point x="343" y="-404"/>
      <point x="318" y="-322"/>
      <point x="318" y="-269" type="qcurve"/>
      <point x="318" y="-243"/>
      <point x="323" y="-176"/>
      <point x="329" y="-134" type="qcurve"/>
      <point x="369" y="166" type="line"/>
      <point x="362" y="166" type="line"/>
      <point x="315" y="69"/>
      <point x="215" y="-30"/>
      <point x="153" y="-30" type="qcurve"/>
      <point x="137" y="-30"/>
      <point x="106" y="-18"/>
      <point x="80" y="0"/>
      <point x="62" y="21"/>
      <point x="58" y="30" type="qcurve"/>
      <point x="79" y="188" type="line"/>
      <point x="90" y="168"/>
      <point x="151" y="132"/>
      <point x="194" y="132" type="qcurve"/>
      <point x="233" y="132"/>
      <point x="304" y="186"/>
      <point x="358" y="263"/>
      <point x="392" y="346"/>
      <point x="396" y="375" type="qcurve"/>
      <point x="477" y="974" type="line"/>
      <point x="578" y="1004" type="line"/>
      <point x="601" y="1004" type="line"/>
      <point x="446" y="-163" type="line"/>
      <point x="440" y="-211"/>
      <point x="440" y="-248" type="qcurve"/>
      <point x="440" y="-288"/>
      <point x="459" y="-341"/>
      <point x="493" y="-374"/>
      <point x="539" y="-388"/>
    </contour>
  </outline>
</glyph>
<glyph name="uni027C" format="2">
  <advance width="552"/>
  <unicode hex="027C"/>
  <outline>
    <contour>
      <point x="175" y="-460" type="line"/>
      <point x="72" y="-490" type="line"/>
      <point x="50" y="-490" type="line"/>
      <point x="239" y="944" type="line"/>
      <point x="341" y="974" type="line"/>
      <point x="364" y="974" type="line"/>
      <point x="342" y="808" type="line"/>
      <point x="350" y="808" type="line"/>
      <point x="397" y="905"/>
      <point x="496" y="1004"/>
      <point x="557" y="1004" type="qcurve"/>
      <point x="574" y="1004"/>
      <point x="605" y="992"/>
      <point x="631" y="974"/>
      <point x="649" y="953"/>
      <point x="653" y="944" type="qcurve"/>
      <point x="632" y="786" type="line"/>
      <point x="620" y="806"/>
      <point x="560" y="842"/>
      <point x="516" y="842" type="qcurve"/>
      <point x="475" y="842"/>
      <point x="405" y="789"/>
      <point x="352" y="710"/>
      <point x="317" y="616"/>
      <point x="311" y="574" type="qcurve"/>
    </contour>
  </outline>
</glyph>
<glyph name="uni027D" format="2">
  <advance width="552"/>
  <unicode hex="027D"/>
  <outline>
    <contour>
      <point x="332" y="-388" type="qcurve"/>
      <point x="319" y="-490" type="line"/>
      <point x="254" y="-490"/>
      <point x="166" y="-460"/>
      <point x="110" y="-404"/>
      <point x="86" y="-322"/>
      <point x="86" y="-269" type="qcurve"/>
      <point x="86" y="-216"/>
      <point x="96" y="-134" type="qcurve"/>
      <point x="239" y="944" type="line"/>
      <point x="341" y="974" type="line"/>
      <point x="364" y="974" type="line"/>
      <point x="342" y="808" type="line"/>
      <point x="350" y="808" type="line"/>
      <point x="397" y="905"/>
      <point x="496" y="1004"/>
      <point x="557" y="1004" type="qcurve"/>
      <point x="574" y="1004"/>
      <point x="605" y="992"/>
      <point x="631" y="974"/>
      <point x="649" y="953"/>
      <point x="653" y="944" type="qcurve"/>
      <point x="632" y="786" type="line"/>
      <point x="620" y="806"/>
      <point x="560" y="842"/>
      <point x="516" y="842" type="qcurve"/>
      <point x="476" y="842"/>
      <point x="405" y="789"/>
      <point x="351" y="710"/>
      <point x="317" y="616"/>
      <point x="311" y="574" type="qcurve"/>
      <point x="214" y="-163" type="line"/>
      <point x="207" y="-211"/>
      <point x="207" y="-248" type="qcurve"/>
      <point x="207" y="-288"/>
      <point x="227" y="-341"/>
      <point x="260" y="-374"/>
      <point x="306" y="-388"/>
    </contour>
  </outline>
</glyph>
<glyph name="uni027F" format="2">
  <advance width="432"/>
  <unicode hex="027F"/>
  <outline>
    <contour>
      <point x="303" y="0" type="line"/>
      <point x="182" y="0" type="line"/>
      <point x="271" y="677" type="line"/>
      <point x="278" y="725"/>
      <point x="278" y="763" type="qcurve"/>
      <point x="278" y="798"/>
      <point x="263" y="850"/>
      <point x="231" y="885"/>
      <point x="178" y="902"/>
      <point x="139" y="902" type="qcurve"/>
      <point x="152" y="1004" type="line"/>
      <point x="204" y="1004"/>
      <point x="294" y="991"/>
      <point x="361" y="946"/>
      <point x="399" y="857"/>
      <point x="399" y="782" type="qcurve"/>
      <point x="399" y="753"/>
      <point x="394" y="686"/>
      <point x="389" y="648" type="qcurve"/>
    </contour>
  </outline>
</glyph>
<glyph name="uni0286" format="2">
  <advance width="552"/>
  <unicode hex="0286"/>
  <outline>
    <contour>
      <point x="494" y="0" type="line"/>
      <point x="477" y="-125" type="line"/>
      <point x="335" y="-113" type="line"/>
      <point x="320" y="-223"/>
      <point x="263" y="-369"/>
      <point x="191" y="-455"/>
      <point x="113" y="-490"/>
      <point x="76" y="-490" type="qcurve"/>
      <point x="44" y="-490"/>
      <point x="-8" y="-464"/>
      <point x="-44" y="-417"/>
      <point x="-65" y="-353"/>
      <point x="-65" y="-314" type="qcurve"/>
      <point x="-65" y="-235"/>
      <point x="-23" y="-117"/>
      <point x="50" y="-39"/>
      <point x="147" y="0"/>
      <point x="201" y="0" type="qcurve"/>
      <point x="228" y="0" type="line"/>
      <point x="367" y="1051" type="line"/>
      <point x="383" y="1169"/>
      <point x="440" y="1328"/>
      <point x="521" y="1424"/>
      <point x="625" y="1464"/>
      <point x="687" y="1464" type="qcurve"/>
      <point x="674" y="1362" type="line"/>
      <point x="597" y="1362"/>
      <point x="514" y="1244"/>
      <point x="498" y="1126" type="qcurve"/>
      <point x="349" y="0" type="line"/>
    </contour>
    <contour>
      <point x="214" y="-106" type="line"/>
      <point x="160" y="-102" type="line"/>
      <point x="132" y="-102"/>
      <point x="79" y="-134"/>
      <point x="37" y="-187"/>
      <point x="11" y="-255"/>
      <point x="11" y="-291" type="qcurve"/>
      <point x="11" y="-336"/>
      <point x="48" y="-388"/>
      <point x="76" y="-388" type="qcurve"/>
      <point x="92" y="-388"/>
      <point x="130" y="-371"/>
      <point x="165" y="-329"/>
      <point x="193" y="-259"/>
      <point x="200" y="-205" type="qcurve"/>
    </contour>
  </outline>
</glyph>
<glyph name="uni0287" format="2">
  <advance width="552"/>
  <unicode hex="0287"/>
  <outline>
    <contour>
      <point x="427" y="589" type="line"/>
      <point x="563" y="589" type="line"/>
      <point x="545" y="455" type="line"/>
      <point x="411" y="467" type="line"/>
      <point x="350" y="0" type="line"/>
      <point x="228" y="0" type="line"/>
      <point x="290" y="476" type="line"/>
      <point x="148" y="487" type="line"/>
      <point x="161" y="589" type="line"/>
      <point x="305" y="589" type="line"/>
      <point x="377" y="1127" type="line"/>
      <point x="380" y="1148"/>
      <point x="382" y="1185"/>
      <point x="382" y="1202" type="qcurve"/>
      <point x="382" y="1248"/>
      <point x="365" y="1310"/>
      <point x="335" y="1347"/>
      <point x="291" y="1362"/>
      <point x="263" y="1362" type="qcurve"/>
      <point x="277" y="1464" type="line"/>
      <point x="326" y="1464"/>
      <point x="407" y="1435"/>
      <point x="465" y="1368"/>
      <point x="497" y="1258"/>
      <point x="497" y="1176" type="qcurve"/>
      <point x="497" y="1121"/>
      <point x="488" y="1052" type="qcurve"/>
    </contour>
  </outline>
</glyph>
<glyph name="uni0288" format="2">
  <advance width="552"/>
  <unicode hex="0288"/>
  <outline>
    <contour>
      <point x="485" y="1322" type="line"/>
      <point x="443" y="1004" type="line"/>
      <point x="604" y="1004" type="line"/>
      <point x="587" y="872" type="line"/>
      <point x="427" y="886" type="line"/>
      <point x="288" y="-163" type="line"/>
      <point x="285" y="-186"/>
      <point x="281" y="-226"/>
      <point x="281" y="-244" type="qcurve"/>
      <point x="281" y="-316"/>
      <point x="341" y="-388"/>
      <point x="407" y="-388" type="qcurve"/>
      <point x="393" y="-490" type="line"/>
      <point x="338" y="-490"/>
      <point x="251" y="-469"/>
      <point x="192" y="-417"/>
      <point x="161" y="-329"/>
      <point x="161" y="-261" type="qcurve"/>
      <point x="161" y="-212"/>
      <point x="168" y="-156" type="qcurve"/>
      <point x="306" y="893" type="line"/>
      <point x="181" y="902" type="line"/>
      <point x="194" y="1004" type="line"/>
      <point x="321" y="1004" type="line"/>
      <point x="359" y="1292" type="line"/>
      <point x="461" y="1322" type="line"/>
    </contour>
  </outline>
</glyph>
<glyph name="uni0289" format="2">
  <advance width="840"/>
  <unicode hex="0289"/>
  <outline>
    <contour>
      <point x="683" y="589" type="line"/>
      <point x="734" y="974" type="line"/>
      <point x="838" y="1004" type="line"/>
      <point x="860" y="1004" type="line"/>
      <point x="805" y="589" type="line"/>
      <point x="863" y="589" type="line"/>
      <point x="850" y="487" type="line"/>
      <point x="791" y="487" type="line"/>
      <point x="752" y="189" type="line"/>
      <point x="750" y="174"/>
      <point x="749" y="149"/>
      <point x="749" y="138" type="qcurve"/>
      <point x="749" y="101"/>
      <point x="772" y="72"/>
      <point x="795" y="72" type="qcurve"/>
      <point x="782" y="-30" type="line"/>
      <point x="746" y="-29"/>
      <point x="693" y="-10"/>
      <point x="656" y="30"/>
      <point x="635" y="95"/>
      <point x="632" y="142" type="qcurve"/>
      <point x="625" y="142" type="line"/>
      <point x="608" y="116"/>
      <point x="556" y="56"/>
      <point x="486" y="4"/>
      <point x="402" y="-30"/>
      <point x="355" y="-30" type="qcurve"/>
      <point x="314" y="-30"/>
      <point x="238" y="-3"/>
      <point x="180" y="55"/>
      <point x="146" y="146"/>
      <point x="146" y="210" type="qcurve"/>
      <point x="146" y="227"/>
      <point x="149" y="261"/>
      <point x="151" y="280" type="qcurve"/>
      <point x="178" y="487" type="line"/>
      <point x="119" y="487" type="line"/>
      <point x="133" y="589" type="line"/>
      <point x="191" y="589" type="line"/>
      <point x="242" y="974" type="line"/>
      <point x="346" y="1004" type="line"/>
      <point x="368" y="1004" type="line"/>
      <point x="313" y="589" type="line"/>
    </contour>
    <contour>
      <point x="670" y="487" type="line"/>
      <point x="299" y="487" type="line"/>
      <point x="275" y="305" type="line"/>
      <point x="271" y="269"/>
      <point x="271" y="240" type="qcurve"/>
      <point x="271" y="193"/>
      <point x="291" y="129"/>
      <point x="325" y="90"/>
      <point x="369" y="72"/>
      <point x="393" y="72" type="qcurve"/>
      <point x="434" y="72"/>
      <point x="506" y="107"/>
      <point x="569" y="163"/>
      <point x="620" y="230"/>
      <point x="641" y="263" type="qcurve"/>
    </contour>
  </outline>
</glyph>
<glyph name="uni028B" format="2">
  <advance width="840"/>
  <unicode hex="028B"/>
  <outline>
    <contour>
      <point x="361" y="1004" type="line"/>
      <point x="267" y="297" type="line"/>
      <point x="264" y="276"/>
      <point x="262" y="237"/>
      <point x="262" y="220" type="qcurve"/>
      <point x="262" y="148"/>
      <point x="310" y="72"/>
      <point x="359" y="72" type="qcurve"/>
      <point x="401" y="72"/>
      <point x="491" y="117"/>
      <point x="578" y="200"/>
      <point x="656" y="320"/>
      <point x="716" y="470"/>
      <point x="752" y="648"/>
      <point x="752" y="747" type="qcurve"/>
      <point x="752" y="825"/>
      <point x="685" y="902"/>
      <point x="614" y="902" type="qcurve"/>
      <point x="628" y="1004" type="line"/>
      <point x="680" y="1004"/>
      <point x="771" y="982"/>
      <point x="840" y="927"/>
      <point x="881" y="835"/>
      <point x="881" y="765" type="qcurve"/>
      <point x="881" y="671"/>
      <point x="839" y="481"/>
      <point x="766" y="304"/>
      <point x="665" y="150"/>
      <point x="545" y="36"/>
      <point x="412" y="-30"/>
      <point x="342" y="-30" type="qcurve"/>
      <point x="238" y="-30"/>
      <point x="140" y="95"/>
      <point x="140" y="215" type="qcurve"/>
      <point x="140" y="241"/>
      <point x="146" y="296"/>
      <point x="149" y="326" type="qcurve"/>
      <point x="235" y="974" type="line"/>
      <point x="338" y="1004" type="line"/>
    </contour>
  </outline>
</glyph>
<glyph name="uni028D" format="2">
  <advance width="1080"/>
  <unicode hex="028D"/>
  <outline>
    <contour>
      <point x="42" y="0" type="line"/>
      <point x="408" y="974" type="line"/>
      <point x="500" y="974" type="line"/>
      <point x="575" y="296" type="line"/>
      <point x="583" y="296" type="line"/>
      <point x="837" y="974" type="line"/>
      <point x="929" y="974" type="line"/>
      <point x="1038" y="0" type="line"/>
      <point x="903" y="-30" type="line"/>
      <point x="828" y="705" type="line"/>
      <point x="821" y="705" type="line"/>
      <point x="563" y="0" type="line"/>
      <point x="472" y="0" type="line"/>
      <point x="399" y="705" type="line"/>
      <point x="392" y="705" type="line"/>
      <point x="122" y="-30" type="line"/>
    </contour>
  </outline>
</glyph>
<glyph name="uni028E" format="2">
  <advance width="720"/>
  <unicode hex="028E"/>
  <outline>
    <contour>
      <point x="520" y="-30" type="line"/>
      <point x="415" y="770" type="line"/>
      <point x="407" y="770" type="line"/>
      <point x="116" y="-30" type="line"/>
      <point x="39" y="0" type="line"/>
      <point x="407" y="1004" type="line"/>
      <point x="450" y="1122"/>
      <point x="526" y="1296"/>
      <point x="616" y="1409"/>
      <point x="731" y="1464"/>
      <point x="812" y="1464" type="qcurve"/>
      <point x="799" y="1362" type="line"/>
      <point x="742" y="1362"/>
      <point x="657" y="1316"/>
      <point x="587" y="1225"/>
      <point x="527" y="1091"/>
      <point x="495" y="1004" type="qcurve"/>
      <point x="655" y="0" type="line"/>
    </contour>
  </outline>
</glyph>
<glyph name="uni0290" format="2">
  <advance width="720"/>
  <unicode hex="0290"/>
  <outline>
    <contour>
      <point x="57" y="25" type="line"/>
      <point x="615" y="866" type="line"/>
      <point x="617" y="876" type="line"/>
      <point x="228" y="849" type="line"/>
      <point x="245" y="974" type="line"/>
      <point x="791" y="974" type="line"/>
      <point x="788" y="949" type="line"/>
      <point x="229" y="105" type="line"/>
      <point x="227" y="95" type="line"/>
      <point x="680" y="125" type="line"/>
      <point x="641" y="-163" type="line"/>
      <point x="634" y="-211"/>
      <point x="634" y="-248" type="qcurve"/>
      <point x="634" y="-288"/>
      <point x="653" y="-341"/>
      <point x="687" y="-374"/>
      <point x="733" y="-388"/>
      <point x="759" y="-388" type="qcurve"/>
      <point x="746" y="-490" type="line"/>
      <point x="681" y="-490"/>
      <point x="593" y="-460"/>
      <point x="537" y="-404"/>
      <point x="512" y="-322"/>
      <point x="512" y="-269" type="qcurve"/>
      <point x="512" y="-216"/>
      <point x="523" y="-134" type="qcurve"/>
      <point x="540" y="0" type="line"/>
      <point x="54" y="0" type="line"/>
    </contour>
    <contour>
      <point x="57" y="25" type="line"/>
      <point x="615" y="866" type="line"/>
      <point x="617" y="876" type="line"/>
      <point x="228" y="849" type="line"/>
      <point x="245" y="974" type="line"/>
      <point x="791" y="974" type="line"/>
      <point x="788" y="949" type="line"/>
      <point x="229" y="105" type="line"/>
      <point x="227" y="95" type="line"/>
      <point x="680" y="125" type="line"/>
      <point x="663" y="0" type="line"/>
      <point x="54" y="0" type="line"/>
    </contour>
  </outline>
</glyph>
<glyph name="uni0292" format="2">
  <advance width="768"/>
  <unicode hex="0292"/>
  <outline>
    <contour>
      <point x="276" y="437" type="line"/>
      <point x="560" y="866" type="line"/>
      <point x="562" y="876" type="line"/>
      <point x="173" y="849" type="line"/>
      <point x="190" y="974" type="line"/>
      <point x="737" y="974" type="line"/>
      <point x="734" y="949" type="line"/>
      <point x="462" y="548" type="line"/>
      <point x="461" y="538" type="line"/>
      <point x="519" y="526"/>
      <point x="614" y="457"/>
      <point x="680" y="351"/>
      <point x="716" y="212"/>
      <point x="716" y="130" type="qcurve"/>
      <point x="716" y="7"/>
      <point x="650" y="-217"/>
      <point x="533" y="-388"/>
      <point x="374" y="-490"/>
      <point x="283" y="-490" type="qcurve"/>
      <point x="236" y="-490"/>
      <point x="154" y="-463"/>
      <point x="86" y="-420"/>
      <point x="35" y="-364"/>
      <point x="17" y="-335" type="qcurve"/>
      <point x="93" y="-233" type="line"/>
      <point x="101" y="-254"/>
      <point x="133" y="-308"/>
      <point x="180" y="-355"/>
      <point x="243" y="-388"/>
      <point x="281" y="-388" type="qcurve"/>
      <point x="323" y="-388"/>
      <point x="401" y="-348"/>
      <point x="469" y="-277"/>
      <point x="525" y="-180"/>
      <point x="566" y="-66"/>
      <point x="587" y="59"/>
      <point x="587" y="123" type="qcurve"/>
      <point x="587" y="192"/>
      <point x="560" y="308"/>
      <point x="509" y="394"/>
      <point x="437" y="442"/>
      <point x="391" y="442" type="qcurve"/>
      <point x="364" y="442"/>
      <point x="299" y="431"/>
      <point x="274" y="420" type="qcurve"/>
    </contour>
  </outline>
</glyph>
<glyph name="uni0293" format="2">
  <advance width="768"/>
  <unicode hex="0293"/>
  <outline>
    <contour>
      <point x="593" y="-268" type="qcurve"/>
      <point x="707" y="-460" type="line"/>
      <point x="618" y="-491" type="line"/>
      <point x="532" y="-342" type="line"/>
      <point x="475" y="-399"/>
      <point x="344" y="-460"/>
      <point x="281" y="-460" type="qcurve"/>
      <point x="222" y="-460"/>
      <point x="131" y="-422"/>
      <point x="68" y="-356"/>
      <point x="35" y="-264"/>
      <point x="35" y="-210" type="qcurve"/>
      <point x="35" y="-144"/>
      <point x="71" y="-39"/>
      <point x="131" y="33"/>
      <point x="210" y="72"/>
      <point x="254" y="72" type="qcurve"/>
      <point x="284" y="72"/>
      <point x="349" y="52"/>
      <point x="417" y="-1"/>
      <point x="488" y="-90"/>
      <point x="526" y="-159" type="qcurve"/>
      <point x="559" y="-88"/>
      <point x="587" y="52"/>
      <point x="587" y="127" type="qcurve"/>
      <point x="587" y="194"/>
      <point x="560" y="310"/>
      <point x="509" y="394"/>
      <point x="437" y="442"/>
      <point x="391" y="442" type="qcurve"/>
      <point x="364" y="442"/>
      <point x="299" y="431"/>
      <point x="274" y="420" type="qcurve"/>
      <point x="276" y="437" type="line"/>
      <point x="560" y="866" type="line"/>
      <point x="562" y="876" type="line"/>
      <point x="173" y="849" type="line"/>
      <point x="190" y="974" type="line"/>
      <point x="737" y="974" type="line"/>
      <point x="734" y="949" type="line"/>
      <point x="462" y="548" type="line"/>
      <point x="461" y="538" type="line"/>
      <point x="519" y="526"/>
      <point x="614" y="457"/>
      <point x="681" y="351"/>
      <point x="717" y="213"/>
      <point x="717" y="132" type="qcurve"/>
      <point x="717" y="13"/>
      <point x="651" y="-185"/>
    </contour>
    <contour>
      <point x="472" y="-245" type="qcurve"/>
      <point x="438" y="-184"/>
      <point x="380" y="-101"/>
      <point x="326" y="-51"/>
      <point x="273" y="-30"/>
      <point x="246" y="-30" type="qcurve"/>
      <point x="218" y="-30"/>
      <point x="170" y="-57"/>
      <point x="134" y="-103"/>
      <point x="113" y="-165"/>
      <point x="113" y="-199" type="qcurve"/>
      <point x="113" y="-229"/>
      <point x="130" y="-286"/>
      <point x="168" y="-331"/>
      <point x="227" y="-358"/>
      <point x="270" y="-358" type="qcurve"/>
      <point x="323" y="-358"/>
      <point x="429" y="-299"/>
    </contour>
  </outline>
</glyph>
<glyph name="uni0294" format="2">
  <advance width="768"/>
  <unicode hex="0294"/>
  <outline>
    <contour>
      <point x="395" y="687" type="line"/>
      <point x="432" y="687" type="line"/>
      <point x="497" y="687"/>
      <point x="602" y="752"/>
      <point x="676" y="859"/>
      <point x="716" y="999"/>
      <point x="716" y="1074" type="qcurve"/>
      <point x="716" y="1127"/>
      <point x="692" y="1230"/>
      <point x="645" y="1312"/>
      <point x="575" y="1362"/>
      <point x="529" y="1362" type="qcurve"/>
      <point x="493" y="1362"/>
      <point x="430" y="1338"/>
      <point x="374" y="1297"/>
      <point x="326" y="1240"/>
      <point x="305" y="1207" type="qcurve"/>
      <point x="229" y="1309" type="line"/>
      <point x="256" y="1340"/>
      <point x="320" y="1396"/>
      <point x="396" y="1439"/>
      <point x="488" y="1464"/>
      <point x="542" y="1464" type="qcurve"/>
      <point x="617" y="1464"/>
      <point x="730" y="1401"/>
      <point x="806" y="1295"/>
      <point x="845" y="1155"/>
      <point x="845" y="1079" type="qcurve"/>
      <point x="845" y="965"/>
      <point x="780" y="788"/>
      <point x="680" y="663"/>
      <point x="558" y="592"/>
      <point x="502" y="585" type="qcurve"/>
      <point x="425" y="0" type="line"/>
      <point x="304" y="0" type="line"/>
    </contour>
  </outline>
</glyph>
<glyph name="uni0296" format="2">
  <advance width="768"/>
  <unicode hex="0296"/>
  <outline>
    <contour>
      <point x="494" y="1434" type="line"/>
      <point x="597" y="1464" type="line"/>
      <point x="620" y="1464" type="line"/>
      <point x="539" y="849" type="line"/>
      <point x="579" y="841"/>
      <point x="661" y="791"/>
      <point x="726" y="704"/>
      <point x="767" y="578"/>
      <point x="767" y="495" type="qcurve"/>
      <point x="767" y="418"/>
      <point x="736" y="281"/>
      <point x="680" y="165"/>
      <point x="602" y="71"/>
      <point x="510" y="5"/>
      <point x="407" y="-30"/>
      <point x="353" y="-30" type="qcurve"/>
      <point x="302" y="-30"/>
      <point x="216" y="-5"/>
      <point x="149" y="38"/>
      <point x="97" y="94"/>
      <point x="79" y="125" type="qcurve"/>
      <point x="155" y="227" type="line"/>
      <point x="167" y="195"/>
      <point x="203" y="139"/>
      <point x="253" y="97"/>
      <point x="318" y="72"/>
      <point x="359" y="72" type="qcurve"/>
      <point x="420" y="72"/>
      <point x="524" y="147"/>
      <point x="597" y="266"/>
      <point x="638" y="412"/>
      <point x="638" y="484" type="qcurve"/>
      <point x="638" y="539"/>
      <point x="615" y="636"/>
      <point x="567" y="706"/>
      <point x="493" y="747"/>
      <point x="441" y="747" type="qcurve"/>
      <point x="404" y="747" type="line"/>
    </contour>
  </outline>
</glyph>
<glyph name="uni0297" format="2">
  <advance width="768"/>
  <unicode hex="0297"/>
  <outline>
    <contour>
      <point x="804" y="1207" type="line"/>
      <point x="797" y="1228"/>
      <point x="765" y="1282"/>
      <point x="716" y="1329"/>
      <point x="653" y="1362"/>
      <point x="615" y="1362" type="qcurve"/>
      <point x="561" y="1362"/>
      <point x="462" y="1297"/>
      <point x="383" y="1184"/>
      <point x="326" y="1033"/>
      <point x="315" y="947" type="qcurve"/>
      <point x="254" y="483" type="line"/>
      <point x="248" y="433"/>
      <point x="248" y="387" type="qcurve"/>
      <point x="248" y="319"/>
      <point x="275" y="203"/>
      <point x="326" y="119"/>
      <point x="398" y="72"/>
      <point x="444" y="72" type="qcurve"/>
      <point x="482" y="72"/>
      <point x="550" y="105"/>
      <point x="605" y="152"/>
      <point x="647" y="206"/>
      <point x="660" y="227" type="qcurve"/>
      <point x="737" y="125" type="line"/>
      <point x="713" y="96"/>
      <point x="650" y="41"/>
      <point x="572" y="-3"/>
      <point x="482" y="-30"/>
      <point x="431" y="-30" type="qcurve"/>
      <point x="360" y="-30"/>
      <point x="245" y="31"/>
      <point x="164" y="140"/>
      <point x="119" y="291"/>
      <point x="119" y="382" type="qcurve"/>
      <point x="119" y="431"/>
      <point x="125" y="484" type="qcurve"/>
      <point x="186" y="947" type="line"/>
      <point x="200" y="1058"/>
      <point x="279" y="1248"/>
      <point x="395" y="1386"/>
      <point x="543" y="1464"/>
      <point x="629" y="1464" type="qcurve"/>
      <point x="671" y="1464"/>
      <point x="749" y="1436"/>
      <point x="813" y="1392"/>
      <point x="863" y="1337"/>
      <point x="879" y="1309" type="qcurve"/>
    </contour>
  </outline>
</glyph>
<glyph name="uni029A" format="2">
  <advance width="840"/>
  <unicode hex="029A"/>
  <outline>
    <contour>
      <point x="491" y="537" type="line"/>
      <point x="477" y="435" type="line"/>
      <point x="383" y="435" type="line"/>
      <point x="350" y="435"/>
      <point x="276" y="418"/>
      <point x="215" y="378"/>
      <point x="176" y="310"/>
      <point x="176" y="259" type="qcurve"/>
      <point x="176" y="227"/>
      <point x="197" y="176"/>
      <point x="248" y="141"/>
      <point x="333" y="122"/>
      <point x="398" y="122" type="qcurve"/>
      <point x="470" y="122"/>
      <point x="598" y="187"/>
      <point x="694" y="302"/>
      <point x="750" y="460"/>
      <point x="750" y="552" type="qcurve"/>
      <point x="750" y="618"/>
      <point x="718" y="728"/>
      <point x="654" y="807"/>
      <point x="558" y="852"/>
      <point x="495" y="852" type="qcurve"/>
      <point x="455" y="852"/>
      <point x="364" y="838"/>
      <point x="287" y="796"/>
      <point x="236" y="721"/>
      <point x="236" y="661" type="qcurve"/>
      <point x="236" y="537"/>
      <point x="397" y="537" type="qcurve"/>
    </contour>
    <contour>
      <point x="237" y="492" type="line"/>
      <point x="210" y="505"/>
      <point x="174" y="542"/>
      <point x="153" y="586"/>
      <point x="145" y="635"/>
      <point x="145" y="661" type="qcurve"/>
      <point x="145" y="743"/>
      <point x="206" y="871"/>
      <point x="310" y="959"/>
      <point x="443" y="1004"/>
      <point x="515" y="1004" type="qcurve"/>
      <point x="584" y="1004"/>
      <point x="707" y="950"/>
      <point x="801" y="844"/>
      <point x="857" y="688"/>
      <point x="857" y="587" type="qcurve"/>
      <point x="857" y="500"/>
      <point x="821" y="342"/>
      <point x="756" y="205"/>
      <point x="667" y="93"/>
      <point x="560" y="13"/>
      <point x="440" y="-30"/>
      <point x="378" y="-30" type="qcurve"/>
      <point x="301" y="-30"/>
      <point x="190" y="7"/>
      <point x="119" y="75"/>
      <point x="85" y="169"/>
      <point x="85" y="225" type="qcurve"/>
      <point x="85" y="274"/>
      <point x="108" y="355"/>
      <point x="149" y="419"/>
      <point x="204" y="467"/>
      <point x="236" y="482" type="qcurve"/>
    </contour>
  </outline>
</glyph>
<glyph name="uni029B" format="2">
  <advance width="840"/>
  <unicode hex="029B"/>
  <outline>
    <contour>
      <point x="542" y="487" type="line"/>
      <point x="817" y="487" type="line"/>
      <point x="770" y="135" type="line"/>
      <point x="737" y="93"/>
      <point x="659" y="31"/>
      <point x="575" y="-10"/>
      <point x="488" y="-30"/>
      <point x="449" y="-30" type="qcurve"/>
      <point x="371" y="-30"/>
      <point x="248" y="31"/>
      <point x="163" y="144"/>
      <point x="119" y="303"/>
      <point x="119" y="401" type="qcurve"/>
      <point x="119" y="527"/>
      <point x="193" y="747"/>
      <point x="321" y="911"/>
      <point x="491" y="1005"/>
      <point x="587" y="1005" type="qcurve"/>
      <point x="636" y="1005"/>
      <point x="723" y="978"/>
      <point x="760" y="955" type="qcurve"/>
      <point x="774" y="1028"/>
      <point x="818" y="1127"/>
      <point x="888" y="1188"/>
      <point x="989" y="1214"/>
      <point x="1061" y="1214" type="qcurve"/>
      <point x="1048" y="1112" type="line"/>
      <point x="1003" y="1112"/>
      <point x="941" y="1081"/>
      <point x="899" y="1016"/>
      <point x="873" y="917"/>
      <point x="865" y="849" type="qcurve"/>
      <point x="788" y="747" type="line"/>
      <point x="773" y="780"/>
      <point x="734" y="837"/>
      <point x="683" y="879"/>
      <point x="620" y="903"/>
      <point x="581" y="903" type="qcurve"/>
      <point x="507" y="903"/>
      <point x="385" y="810"/>
      <point x="297" y="662"/>
      <point x="248" y="480"/>
      <point x="248" y="390" type="qcurve"/>
      <point x="248" y="319"/>
      <point x="275" y="202"/>
      <point x="329" y="118"/>
      <point x="409" y="72"/>
      <point x="462" y="72" type="qcurve"/>
      <point x="523" y="72"/>
      <point x="619" y="127"/>
      <point x="653" y="167" type="qcurve"/>
      <point x="682" y="385" type="line"/>
      <point x="528" y="385" type="line"/>
    </contour>
  </outline>
</glyph>
